<?xml version="1.0" standalone="no"?>
<!DOCTYPE svg PUBLIC "-//W3C//DTD SVG 1.1//EN" "http://www.w3.org/Graphics/SVG/1.1/DTD/svg11.dtd" >
<svg xmlns="http://www.w3.org/2000/svg" xmlns:xlink="http://www.w3.org/1999/xlink" version="1.1">
<metadata>
Created by FontForge 20170731 at Mon Sep 20 22:50:06 2021
 By Aleksey,,,
Copyright (c) Font Awesome
</metadata>
<defs>
<font id="FontAwesome6Free-Regular" horiz-adv-x="512" >
  <font-face 
    font-family="Font Awesome 6 Free Regular"
    font-weight="400"
    font-stretch="normal"
    units-per-em="512"
    panose-1="2 0 5 3 0 0 0 0 0 0"
    ascent="448"
    descent="-64"
    x-height="414"
    bbox="-1 -64.1429 640.143 448.267"
    underline-thickness="25"
    underline-position="-73"
    unicode-range="U+0030-1F9ED"
  />
<missing-glyph horiz-adv-x="384" 
d="M336 448h-288q-20 -1 -34 -14q-13 -14 -14 -34v-416q1 -20 14 -34q14 -13 34 -14h288q20 1 34 14q13 14 14 34v416q-1 20 -14 34q-14 13 -34 14v0zM336 358v-332l-115 166l115 166v0zM192 234l-115 166h230l-115 -166v0zM163 192l-115 -166v332l115 -166v0zM192 150
l115 -166h-230l115 166v0z" />
    <glyph glyph-name=".notdef" horiz-adv-x="384" 
d="M336 448h-288q-20 -1 -34 -14q-13 -14 -14 -34v-416q1 -20 14 -34q14 -13 34 -14h288q20 1 34 14q13 14 14 34v416q-1 20 -14 34q-14 13 -34 14v0zM336 358v-332l-115 166l115 166v0zM192 234l-115 166h230l-115 -166v0zM163 192l-115 -166v332l115 -166v0zM192 150
l115 -166h-230l115 166v0z" />
    <glyph glyph-name=".null" horiz-adv-x="0" 
 />
    <glyph glyph-name="nonmarkingreturn" horiz-adv-x="170" 
 />
    <glyph glyph-name="hashtag" unicode="&#xf292;" horiz-adv-x="448" 
d="M416 321h-58l10 59q1 13 -6 24q-7 10 -21 12q-13 2 -24 -5q-10 -7 -13 -21l-11 -69h-95l10 59q1 13 -6 24q-7 10 -21 12q-13 2 -24 -5q-10 -7 -13 -21l-11 -69h-69q-14 0 -23 -9q-9 -10 -9 -23q0 -14 9 -23t23 -9h58l-21 -128h-69q-14 0 -23 -9q-9 -10 -9 -23
q0 -14 9 -22q9 -9 23 -9h58l-10 -59q-1 -13 6 -24q7 -10 21 -13q2 -2 5 -2q25 2 32 27l11 69h95l-10 -59q-1 -13 6 -24q7 -10 21 -13h5q25 2 32 27l11 69h69q14 0 23 9t9 22q0 14 -9 23t-23 9h-58l21 128h69q14 0 23 9t9 22q0 15 -9 25t-23 10v0zM261 129h-95l21 128h95
l-21 -128v0z" />
    <glyph glyph-name="hashtag" unicode="#" horiz-adv-x="448" 
d="M416 321h-58l10 59q1 13 -6 24q-7 10 -21 12q-13 2 -24 -5q-10 -7 -13 -21l-11 -69h-95l10 59q1 13 -6 24q-7 10 -21 12q-13 2 -24 -5q-10 -7 -13 -21l-11 -69h-69q-14 0 -23 -9q-9 -10 -9 -23q0 -14 9 -23t23 -9h58l-21 -128h-69q-14 0 -23 -9q-9 -10 -9 -23
q0 -14 9 -22q9 -9 23 -9h58l-10 -59q-1 -13 6 -24q7 -10 21 -13q2 -2 5 -2q25 2 32 27l11 69h95l-10 -59q-1 -13 6 -24q7 -10 21 -13h5q25 2 32 27l11 69h69q14 0 23 9t9 22q0 14 -9 23t-23 9h-58l21 128h69q14 0 23 9t9 22q0 15 -9 25t-23 10v0zM261 129h-95l21 128h95
l-21 -128v0z" />
    <glyph glyph-name="0" unicode="0" horiz-adv-x="320" 
d="M160 416q-68 -2 -113 -47v0q-45 -45 -47 -113v-127q2 -68 47 -113t113 -47q68 2 113 47t47 113v127q-2 68 -47 113t-113 47v0zM256 128q-1 -41 -28 -68v0q-27 -27 -68 -28q-41 1 -68 28t-28 68v128q1 41 28 68t68 28q41 -1 68 -28t28 -68v-128v0z" />
    <glyph glyph-name="1" unicode="1" horiz-adv-x="256" 
d="M256 0q0 -14 -9 -23v0q-9 -9 -23 -9h-192q-14 0 -23 9t-9 23t9 23t23 9h64v292l-46 -31q-12 -7 -24 -4q-13 2 -21 13q-7 12 -4 24q2 13 13 21l96 64q16 10 33 1q16 -9 17 -28v-352h64q14 0 23 -9t9 -23v0z" />
    <glyph glyph-name="2" unicode="2" horiz-adv-x="320" 
d="M320 0q0 -14 -9 -23v0q-9 -9 -23 -9h-256q-21 1 -30 20q-7 20 8 35l193 185q24 24 26 56q1 31 -20 58q-23 27 -59 29q-35 1 -61 -23l-35 -32q-11 -9 -24 -8q-12 1 -22 10q-9 11 -8 24q1 12 10 22l35 31q45 42 109 40q63 -5 104 -52q37 -46 35 -103q-3 -56 -45 -98
l-136 -130h176q14 0 23 -9t9 -23v0z" />
    <glyph glyph-name="3" unicode="3" horiz-adv-x="320" 
d="M320 104q-1 -58 -40 -96v0q-38 -39 -96 -40h-80q-36 0 -63 20t-38 53q-4 13 1 25q6 11 19 16q13 4 24 -2q12 -6 16 -18q11 -28 41 -30h80q31 1 51 21t21 51q-1 31 -21 51t-51 21h-104q-21 1 -30 20q-7 21 8 36l132 120h-158q-14 0 -23 9t-9 23t9 23t23 9h240
q21 -1 30 -20q7 -21 -8 -36l-132 -120h22q57 -1 96 -40q38 -38 40 -96v0z" />
    <glyph glyph-name="4" unicode="4" horiz-adv-x="384" 
d="M384 114q0 -14 -9 -23v0q-9 -9 -23 -9h-32v-82q0 -14 -9 -23t-23 -9t-23 9t-9 23v82h-224q-17 0 -27 15q-9 15 -2 30l128 271q6 12 18 16t25 -1q12 -6 16 -18t-1 -25l-106 -224h173v142q0 14 9 23t23 9t23 -9t9 -23v-142h32q14 -1 23 -10t9 -22v0z" />
    <glyph glyph-name="5" unicode="5" horiz-adv-x="320" 
d="M320 103q-1 -57 -40 -95v0q-38 -39 -95 -40h-80q-36 0 -64 20t-39 54q-4 13 1 25q6 11 19 16q13 4 24 -2q12 -6 16 -19q12 -28 43 -30h80q30 1 50 21t21 50q-1 31 -21 51t-50 21h-153q-15 0 -25 11q-9 12 -6 26l32 178q6 24 31 26h192q14 0 23 -9t9 -23t-9 -23t-23 -9
h-165l-21 -113h115q57 -2 95 -40q39 -38 40 -96v0z" />
    <glyph glyph-name="6" unicode="6" horiz-adv-x="320" 
d="M168 287l64 76q9 11 8 24q-1 12 -11 21q-10 8 -21 8q-14 0 -24 -11q-33 -39 -59 -69q-48 -55 -76 -90q-27 -35 -38 -61t-11 -57q2 -68 47 -113t113 -47q68 2 113 47t47 113q-2 66 -44 110q-43 45 -108 49v0zM160 32q-41 1 -68 28v0q-27 27 -28 68q1 41 28 67q27 27 68 28
q41 -1 68 -28t28 -67q-1 -40 -28 -68q-27 -27 -68 -28v0z" />
    <glyph glyph-name="7" unicode="7" horiz-adv-x="320" 
d="M316 368l-224 -384q-10 -16 -28 -16q-8 0 -16 4q-12 7 -15 20q-3 12 3 24l196 336h-200q-14 0 -23 9t-9 23t9 23t23 9h256q18 -1 28 -16q8 -16 0 -32v0z" />
    <glyph glyph-name="8" unicode="8" horiz-adv-x="320" 
d="M268 199q35 36 36 89q-1 54 -38 90q-36 37 -90 38h-32q-54 -1 -90 -38q-37 -36 -38 -90q1 -53 36 -89q-24 -18 -38 -45q-14 -26 -14 -58q1 -54 38 -90q36 -37 90 -38h64q54 1 90 38q37 36 38 90q0 32 -14 58q-14 27 -38 45v0zM144 352h32q27 -1 45 -19t19 -45
q-1 -27 -19 -45t-45 -19h-32q-27 1 -45 19t-19 45q1 27 19 45t45 19v0zM192 32h-64q-27 1 -45 19t-19 45q1 27 19 45t45 19h64q27 -1 45 -19t19 -45q-1 -27 -19 -45t-45 -19v0z" />
    <glyph glyph-name="9" unicode="9" horiz-adv-x="320" 
d="M160 416q-68 -2 -113 -47v0q-45 -45 -47 -113q2 -66 44 -110q43 -45 108 -49l-64 -76q-9 -11 -8 -24q1 -12 11 -21q10 -8 21 -8q14 0 24 11q33 39 59 69q49 55 76 90t38 61t11 57q-2 68 -47 113t-113 47v0zM160 160q-41 1 -68 28v0q-27 27 -28 67q1 40 28 68q27 27 68 28
q41 -1 68 -28t28 -68q-1 -41 -28 -67q-27 -27 -68 -28v0z" />
    <glyph glyph-name="a" unicode="a" horiz-adv-x="384" 
d="M382 12l-160 384q-9 19 -30 20q-21 -1 -29 -20l-160 -384q-5 -12 -1 -24q5 -12 18 -18q12 -4 24 0q12 5 18 18l31 76h198l31 -76q10 -19 30 -20q6 0 12 2q13 6 18 18q4 12 0 24v0zM119 128l73 173l72 -173h-145v0z" />
    <glyph glyph-name="a" unicode="A" horiz-adv-x="384" 
d="M382 12l-160 384q-9 19 -30 20q-21 -1 -29 -20l-160 -384q-5 -12 -1 -24q5 -12 18 -18q12 -4 24 0q12 5 18 18l31 76h198l31 -76q10 -19 30 -20q6 0 12 2q13 6 18 18q4 12 0 24v0zM119 128l73 173l72 -173h-145v0z" />
    <glyph glyph-name="b" unicode="b" horiz-adv-x="320" 
d="M257 206q30 34 31 82q-1 54 -38 90q-36 37 -90 38h-128q-14 0 -23 -9t-9 -23v-384q0 -14 9 -23t23 -9h160q54 1 90 38q37 36 38 90q0 35 -17 64q-17 28 -46 46v0zM64 352h96q27 -1 45 -19t19 -45q-1 -27 -19 -45t-45 -19h-96v128v0zM192 32h-128v128h128q27 -1 45 -19
t19 -45q-1 -27 -19 -45t-45 -19v0z" />
    <glyph glyph-name="b" unicode="B" horiz-adv-x="320" 
d="M257 206q30 34 31 82q-1 54 -38 90q-36 37 -90 38h-128q-14 0 -23 -9t-9 -23v-384q0 -14 9 -23t23 -9h160q54 1 90 38q37 36 38 90q0 35 -17 64q-17 28 -46 46v0zM64 352h96q27 -1 45 -19t19 -45q-1 -27 -19 -45t-45 -19h-96v128v0zM192 32h-128v128h128q27 -1 45 -19
t19 -45q-1 -27 -19 -45t-45 -19v0z" />
    <glyph glyph-name="c" unicode="c" horiz-adv-x="384" 
d="M352 88q17 -1 24 -11v0q7 -11 7 -21q0 -12 -21 -33t-57 -37q-37 -17 -86 -18q-69 1 -118 34q-49 34 -75 85q-27 51 -27 105q0 53 26 104t75 84q49 34 119 35q50 -1 86 -18q37 -17 58 -37q20 -21 20 -33q0 -10 -7 -21q-8 -10 -25 -11q-16 1 -33 18q-14 13 -37 25
q-22 12 -62 13q-74 -3 -115 -52q-40 -48 -41 -107q1 -59 41 -108t115 -52q40 1 63 13t37 25q17 17 33 18v0z" />
    <glyph glyph-name="c" unicode="C" horiz-adv-x="384" 
d="M352 88q17 -1 24 -11v0q7 -11 7 -21q0 -12 -21 -33t-57 -37q-37 -17 -86 -18q-69 1 -118 34q-49 34 -75 85q-27 51 -27 105q0 53 26 104t75 84q49 34 119 35q50 -1 86 -18q37 -17 58 -37q20 -21 20 -33q0 -10 -7 -21q-8 -10 -25 -11q-16 1 -33 18q-14 13 -37 25
q-22 12 -62 13q-74 -3 -115 -52q-40 -48 -41 -107q1 -59 41 -108t115 -52q40 1 63 13t37 25q17 17 33 18v0z" />
    <glyph glyph-name="d" unicode="d" horiz-adv-x="384" 
d="M160 416h-128q-14 0 -23 -9t-9 -23v-384q0 -14 9 -23t23 -9h128q62 1 113 31q50 30 80 80q30 51 31 113q-1 62 -31 113q-30 50 -80 80q-51 30 -113 31v0zM160 32h-96v320h96q68 -2 113 -47t47 -112q-2 -67 -47 -113t-113 -48v0z" />
    <glyph glyph-name="d" unicode="D" horiz-adv-x="384" 
d="M160 416h-128q-14 0 -23 -9t-9 -23v-384q0 -14 9 -23t23 -9h128q62 1 113 31q50 30 80 80q30 51 31 113q-1 62 -31 113q-30 50 -80 80q-51 30 -113 31v0zM160 32h-96v320h96q68 -2 113 -47t47 -112q-2 -67 -47 -113t-113 -48v0z" />
    <glyph glyph-name="e" unicode="e" horiz-adv-x="320" 
d="M320 0q0 -14 -9 -23v0q-9 -9 -23 -9h-256q-14 0 -23 9t-9 23v384q0 14 9 23t23 9h256q14 0 23 -9t9 -23t-9 -23t-23 -9h-224v-128h160q14 0 23 -9t9 -23t-9 -23t-23 -9h-160v-128h224q14 0 23 -9t9 -23v0z" />
    <glyph glyph-name="e" unicode="E" horiz-adv-x="320" 
d="M320 0q0 -14 -9 -23v0q-9 -9 -23 -9h-256q-14 0 -23 9t-9 23v384q0 14 9 23t23 9h256q14 0 23 -9t9 -23t-9 -23t-23 -9h-224v-128h160q14 0 23 -9t9 -23t-9 -23t-23 -9h-160v-128h224q14 0 23 -9t9 -23v0z" />
    <glyph glyph-name="f" unicode="f" horiz-adv-x="320" 
d="M320 384q0 -14 -9 -23v0q-9 -9 -23 -9h-224v-128h160q14 0 23 -9t9 -22t-9 -22q-9 -10 -23 -10h-160v-160q0 -14 -9 -23t-23 -9t-23 9t-9 23v384q0 13 9 22t23 9h256q14 0 23 -9t9 -23v0z" />
    <glyph glyph-name="f" unicode="F" horiz-adv-x="320" 
d="M320 384q0 -14 -9 -23v0q-9 -9 -23 -9h-224v-128h160q14 0 23 -9t9 -22t-9 -22q-9 -10 -23 -10h-160v-160q0 -14 -9 -23t-23 -9t-23 9t-9 23v384q0 13 9 22t23 9h256q14 0 23 -9t9 -23v0z" />
    <glyph glyph-name="g" unicode="g" horiz-adv-x="448" 
d="M448 192q-1 -72 -35 -121v0q-33 -50 -84 -76v0q-52 -25 -106 -25q-67 1 -116 32q-50 30 -78 81q-28 50 -28 109q1 63 31 113q30 51 80 81q50 29 112 30q43 -1 81 -16q38 -14 62 -35q24 -20 25 -37q-1 -14 -10 -23t-22 -9q-16 1 -33 17q-14 14 -38 26t-65 13
q-67 -2 -112 -47q-45 -44 -47 -113q-1 -19 12 -56q12 -38 47 -69q35 -32 100 -34q61 2 104 37t54 90h-134q-14 0 -23 9t-9 23t9 22q9 9 23 9h168q14 0 23 -8q9 -9 9 -23v0z" />
    <glyph glyph-name="g" unicode="G" horiz-adv-x="448" 
d="M448 192q-1 -72 -35 -121v0q-33 -50 -84 -76v0q-52 -25 -106 -25q-67 1 -116 32q-50 30 -78 81q-28 50 -28 109q1 63 31 113q30 51 80 81q50 29 112 30q43 -1 81 -16q38 -14 62 -35q24 -20 25 -37q-1 -14 -10 -23t-22 -9q-16 1 -33 17q-14 14 -38 26t-65 13
q-67 -2 -112 -47q-45 -44 -47 -113q-1 -19 12 -56q12 -38 47 -69q35 -32 100 -34q61 2 104 37t54 90h-134q-14 0 -23 9t-9 23t9 22q9 9 23 9h168q14 0 23 -8q9 -9 9 -23v0z" />
    <glyph glyph-name="h" unicode="h" horiz-adv-x="384" 
d="M384 384v-384q0 -14 -9 -23t-23 -9t-23 9t-9 23v192h-256v-192q0 -14 -9 -23t-23 -9t-23 9t-9 23v384q0 14 9 23t23 9t23 -9t9 -23v-128h256v128q0 14 9 23t23 9t23 -9t9 -23v0z" />
    <glyph glyph-name="h" unicode="H" horiz-adv-x="384" 
d="M384 384v-384q0 -14 -9 -23t-23 -9t-23 9t-9 23v192h-256v-192q0 -14 -9 -23t-23 -9t-23 9t-9 23v384q0 14 9 23t23 9t23 -9t9 -23v-128h256v128q0 14 9 23t23 9t23 -9t9 -23v0z" />
    <glyph glyph-name="i" unicode="i" horiz-adv-x="320" 
d="M320 0q0 -14 -9 -23v0q-9 -9 -23 -9h-256q-14 0 -23 9t-9 23t9 23t23 9h96v320h-96q-14 0 -23 9t-9 23t9 23t23 9h256q14 0 23 -9t9 -23t-9 -23t-23 -9h-96v-320h96q14 0 23 -9t9 -23v0z" />
    <glyph glyph-name="i" unicode="I" horiz-adv-x="320" 
d="M320 0q0 -14 -9 -23v0q-9 -9 -23 -9h-256q-14 0 -23 9t-9 23t9 23t23 9h96v320h-96q-14 0 -23 9t-9 23t9 23t23 9h256q14 0 23 -9t9 -23t-9 -23t-23 -9h-96v-320h96q14 0 23 -9t9 -23v0z" />
    <glyph glyph-name="j" unicode="j" horiz-adv-x="320" 
d="M320 384v-259q-2 -67 -47 -111t-113 -46q-68 2 -113 46t-47 111v35q0 14 9 23t23 9t23 -9t9 -23v-35q1 -40 28 -66t68 -27q41 1 68 27t28 66v259q0 14 9 23t23 9t23 -9t9 -23v0z" />
    <glyph glyph-name="j" unicode="J" horiz-adv-x="320" 
d="M320 384v-259q-2 -67 -47 -111t-113 -46q-68 2 -113 46t-47 111v35q0 14 9 23t23 9t23 -9t9 -23v-35q1 -40 28 -66t68 -27q41 1 68 27t28 66v259q0 14 9 23t23 9t23 -9t9 -23v0z" />
    <glyph glyph-name="k" unicode="k" horiz-adv-x="320" 
d="M314 18q8 -11 5 -24v0q-2 -12 -13 -20q-8 -6 -18 -6q-16 0 -26 14l-134 193l-64 -66v-109q0 -14 -9 -23t-23 -9t-23 9t-9 23v384q0 14 9 23t23 9t23 -9t9 -23v-183l201 205q10 10 23 10q12 0 22 -9q10 -10 10 -23q0 -12 -9 -22l-137 -141l140 -203v0z" />
    <glyph glyph-name="k" unicode="K" horiz-adv-x="320" 
d="M314 18q8 -11 5 -24v0q-2 -12 -13 -20q-8 -6 -18 -6q-16 0 -26 14l-134 193l-64 -66v-109q0 -14 -9 -23t-23 -9t-23 9t-9 23v384q0 14 9 23t23 9t23 -9t9 -23v-183l201 205q10 10 23 10q12 0 22 -9q10 -10 10 -23q0 -12 -9 -22l-137 -141l140 -203v0z" />
    <glyph glyph-name="l" unicode="l" horiz-adv-x="320" 
d="M320 0q0 -14 -9 -23v0q-9 -9 -23 -9h-224q-14 0 -23 9t-9 23v384q0 14 9 23t23 9t23 -9t9 -23v-352h192q14 0 23 -9t9 -23v0z" />
    <glyph glyph-name="l" unicode="L" horiz-adv-x="320" 
d="M320 0q0 -14 -9 -23v0q-9 -9 -23 -9h-224q-14 0 -23 9t-9 23v384q0 14 9 23t23 9t23 -9t9 -23v-352h192q14 0 23 -9t9 -23v0z" />
    <glyph glyph-name="m" unicode="m" horiz-adv-x="448" 
d="M448 384v-384q0 -14 -9 -23t-23 -9t-23 9t-9 23v278l-133 -200q-10 -13 -27 -13t-27 13l-133 200v-278q0 -14 -9 -23t-23 -9t-23 9t-9 23v384q1 23 23 31q22 5 36 -13l165 -248l165 248q14 18 36 13q22 -8 23 -31v0z" />
    <glyph glyph-name="m" unicode="M" horiz-adv-x="448" 
d="M448 384v-384q0 -14 -9 -23t-23 -9t-23 9t-9 23v278l-133 -200q-10 -13 -27 -13t-27 13l-133 200v-278q0 -14 -9 -23t-23 -9t-23 9t-9 23v384q1 23 23 31q22 5 36 -13l165 -248l165 248q14 18 36 13q22 -8 23 -31v0z" />
    <glyph glyph-name="n" unicode="n" horiz-adv-x="384" 
d="M384 384v-384q-1 -22 -21 -30q-5 -2 -11 -2q-15 0 -25 12l-263 316v-296q0 -14 -9 -23t-23 -9t-23 9t-9 23v384q1 22 21 30q21 6 36 -10l263 -316v296q0 14 9 23t23 9t23 -9t9 -23v0z" />
    <glyph glyph-name="n" unicode="N" horiz-adv-x="384" 
d="M384 384v-384q-1 -22 -21 -30q-5 -2 -11 -2q-15 0 -25 12l-263 316v-296q0 -14 -9 -23t-23 -9t-23 9t-9 23v384q1 22 21 30q21 6 36 -10l263 -316v296q0 14 9 23t23 9t23 -9t9 -23v0z" />
    <glyph glyph-name="o" unicode="o" horiz-adv-x="448" 
d="M224 416q-62 -1 -113 -31v0q-50 -30 -80 -80v0q-30 -51 -31 -113q1 -62 31 -113q30 -50 80 -80q51 -30 113 -31q62 1 113 31q50 30 80 80q30 51 31 113q-1 62 -31 113q-30 50 -80 80q-51 30 -113 31v0zM224 32q-68 2 -113 47v0q-45 45 -47 113q2 68 47 113q45 44 113 46
q68 -2 113 -47t47 -112q-2 -67 -47 -113q-45 -45 -113 -47v0z" />
    <glyph glyph-name="o" unicode="O" horiz-adv-x="448" 
d="M224 416q-62 -1 -113 -31v0q-50 -30 -80 -80v0q-30 -51 -31 -113q1 -62 31 -113q30 -50 80 -80q51 -30 113 -31q62 1 113 31q50 30 80 80q30 51 31 113q-1 62 -31 113q-30 50 -80 80q-51 30 -113 31v0zM224 32q-68 2 -113 47v0q-45 45 -47 113q2 68 47 113q45 44 113 46
q68 -2 113 -47t47 -112q-2 -67 -47 -113q-45 -45 -113 -47v0z" />
    <glyph glyph-name="p" unicode="p" horiz-adv-x="320" 
d="M160 416h-128q-14 0 -23 -9t-9 -23v-384q0 -14 9 -23t23 -9t23 9t9 23v96h96q68 2 113 47t47 112q-2 67 -47 113t-113 48v0zM160 160h-96v192h96q41 -1 68 -28t28 -68q-1 -41 -28 -68t-68 -28v0z" />
    <glyph glyph-name="p" unicode="P" horiz-adv-x="320" 
d="M160 416h-128q-14 0 -23 -9t-9 -23v-384q0 -14 9 -23t23 -9t23 9t9 23v96h96q68 2 113 47t47 112q-2 67 -47 113t-113 48v0zM160 160h-96v192h96q41 -1 68 -28t28 -68q-1 -41 -28 -68t-68 -28v0z" />
    <glyph glyph-name="q" unicode="q" horiz-adv-x="448" 
d="M393 45q53 61 55 147q-1 62 -31 113q-29 50 -80 80q-50 30 -112 31q-62 -1 -113 -31t-81 -80q-30 -51 -31 -113q1 -62 31 -113q29 -50 80 -80q50 -30 112 -31q68 1 121 36l47 -57q10 -11 24 -11q16 1 24 11t8 21t-7 20l-47 57v0zM224 32q-68 2 -113 47v0q-45 45 -47 113
q2 68 47 113q45 44 113 46q68 -2 113 -47t47 -112q-1 -55 -33 -96l-70 84q-11 12 -25 12q-16 -1 -24 -11t-8 -21t7 -20l72 -86q-35 -21 -79 -22v0z" />
    <glyph glyph-name="q" unicode="Q" horiz-adv-x="448" 
d="M393 45q53 61 55 147q-1 62 -31 113q-29 50 -80 80q-50 30 -112 31q-62 -1 -113 -31t-81 -80q-30 -51 -31 -113q1 -62 31 -113q29 -50 80 -80q50 -30 112 -31q68 1 121 36l47 -57q10 -11 24 -11q16 1 24 11t8 21t-7 20l-47 57v0zM224 32q-68 2 -113 47v0q-45 45 -47 113
q2 68 47 113q45 44 113 46q68 -2 113 -47t47 -112q-1 -55 -33 -96l-70 84q-11 12 -25 12q-16 -1 -24 -11t-8 -21t7 -20l72 -86q-35 -21 -79 -22v0z" />
    <glyph glyph-name="r" unicode="r" horiz-adv-x="320" 
d="M229 138q40 17 65 52v0q25 36 26 82q-2 61 -42 102q-41 40 -102 42h-144q-14 0 -23 -9t-9 -23v-384q0 -14 9 -23t23 -9t23 9t9 23v128h93l105 -147q10 -13 26 -13q10 0 19 6q10 8 13 21q2 12 -6 24l-85 119v0zM64 352h112q34 -1 57 -23q22 -23 23 -57q-1 -34 -23 -56
q-23 -22 -57 -23h-112v159v0z" />
    <glyph glyph-name="r" unicode="R" horiz-adv-x="320" 
d="M229 138q40 17 65 52v0q25 36 26 82q-2 61 -42 102q-41 40 -102 42h-144q-14 0 -23 -9t-9 -23v-384q0 -14 9 -23t23 -9t23 9t9 23v128h93l105 -147q10 -13 26 -13q10 0 19 6q10 8 13 21q2 12 -6 24l-85 119v0zM64 352h112q34 -1 57 -23q22 -23 23 -57q-1 -34 -23 -56
q-23 -22 -57 -23h-112v159v0z" />
    <glyph glyph-name="s" unicode="s" horiz-adv-x="384" 
d="M350 69q-10 -56 -57 -82q-38 -20 -84 -19q-47 1 -90 13q-42 11 -67 22q-12 6 -17 17q-5 12 -1 25q6 12 18 17q11 5 24 0q59 -23 109 -29q50 -5 77 10q21 11 25 37q6 30 -17 47q-24 17 -87 34q-36 10 -74 26q-37 15 -60 46q-23 30 -15 82q9 49 51 77q69 44 207 8
q13 -4 19 -15q7 -11 3 -25q-3 -13 -14 -19q-12 -6 -25 -3q-67 17 -104 14t-51 -14q-19 -12 -23 -34q-6 -31 17 -47q24 -17 87 -34v0q36 -10 74 -26q37 -16 60 -46t15 -82v0z" />
    <glyph glyph-name="s" unicode="S" horiz-adv-x="384" 
d="M350 69q-10 -56 -57 -82q-38 -20 -84 -19q-47 1 -90 13q-42 11 -67 22q-12 6 -17 17q-5 12 -1 25q6 12 18 17q11 5 24 0q59 -23 109 -29q50 -5 77 10q21 11 25 37q6 30 -17 47q-24 17 -87 34q-36 10 -74 26q-37 15 -60 46q-23 30 -15 82q9 49 51 77q69 44 207 8
q13 -4 19 -15q7 -11 3 -25q-3 -13 -14 -19q-12 -6 -25 -3q-67 17 -104 14t-51 -14q-19 -12 -23 -34q-6 -31 17 -47q24 -17 87 -34v0q36 -10 74 -26q37 -16 60 -46t15 -82v0z" />
    <glyph glyph-name="t" unicode="t" horiz-adv-x="384" 
d="M384 384q0 -14 -9 -23v0q-9 -9 -23 -9h-128v-352q0 -14 -9 -23t-23 -9t-23 9t-9 23v352h-128q-14 0 -23 9t-9 23t9 23t23 9h320q14 0 23 -9t9 -23v0z" />
    <glyph glyph-name="t" unicode="T" horiz-adv-x="384" 
d="M384 384q0 -14 -9 -23v0q-9 -9 -23 -9h-128v-352q0 -14 -9 -23t-23 -9t-23 9t-9 23v352h-128q-14 0 -23 9t-9 23t9 23t23 9h320q14 0 23 -9t9 -23v0z" />
    <glyph glyph-name="u" unicode="u" horiz-adv-x="384" 
d="M384 384v-226q-2 -80 -56 -134q-55 -54 -136 -56q-81 2 -136 56q-54 54 -56 134v226q0 14 9 23t23 9t23 -9t9 -23v-226q1 -53 38 -89q36 -36 90 -37q54 1 90 37q37 36 38 89v226q0 14 9 23t23 9t23 -9t9 -23v0z" />
    <glyph glyph-name="u" unicode="U" horiz-adv-x="384" 
d="M384 384v-226q-2 -80 -56 -134q-55 -54 -136 -56q-81 2 -136 56q-54 54 -56 134v226q0 14 9 23t23 9t23 -9t9 -23v-226q1 -53 38 -89q36 -36 90 -37q54 1 90 37q37 36 38 89v226q0 14 9 23t23 9t23 -9t9 -23v0z" />
    <glyph glyph-name="v" unicode="v" horiz-adv-x="384" 
d="M382 372l-160 -384q-9 -19 -30 -20q-21 1 -30 20l-160 384q-4 12 0 24q5 12 18 18q12 4 24 0q12 -5 18 -18l130 -313l131 313q5 13 17 18q12 4 24 0q13 -6 18 -18q4 -12 0 -24v0z" />
    <glyph glyph-name="v" unicode="V" horiz-adv-x="384" 
d="M382 372l-160 -384q-9 -19 -30 -20q-21 1 -30 20l-160 384q-4 12 0 24q5 12 18 18q12 4 24 0q12 -5 18 -18l130 -313l131 313q5 13 17 18q12 4 24 0q13 -6 18 -18q4 -12 0 -24v0z" />
    <glyph glyph-name="w" unicode="w" horiz-adv-x="576" 
d="M573 373l-144 -384q-8 -20 -30 -21h-1q-22 2 -30 23l-80 279l-81 -279q-8 -21 -30 -23q-22 0 -31 21l-144 384q-4 13 1 24q5 12 18 17q13 4 24 -1q12 -5 17 -18l110 -293l85 292q8 20 31 22q23 -1 31 -23l85 -292l110 293q5 13 17 18q11 5 24 1t18 -16q5 -11 0 -24v0z
" />
    <glyph glyph-name="w" unicode="W" horiz-adv-x="576" 
d="M573 373l-144 -384q-8 -20 -30 -21h-1q-22 2 -30 23l-80 279l-81 -279q-8 -21 -30 -23q-22 0 -31 21l-144 384q-4 13 1 24q5 12 18 17q13 4 24 -1q12 -5 17 -18l110 -293l85 292q8 20 31 22q23 -1 31 -23l85 -292l110 293q5 13 17 18q11 5 24 1t18 -16q5 -11 0 -24v0z
" />
    <glyph glyph-name="x" unicode="x" horiz-adv-x="384" 
d="M377 20q8 -10 7 -23v0q-1 -13 -11 -22q-10 -7 -21 -7q-14 0 -25 12l-135 163l-135 -163q-11 -11 -25 -11q-11 0 -20 7q-11 9 -12 22t7 23l143 172l-143 170q-8 11 -7 24t12 22q10 8 23 7t22 -12l135 -162l135 162q9 11 22 12t23 -7q11 -9 12 -22t-7 -23l-143 -172
l143 -172v0z" />
    <glyph glyph-name="x" unicode="X" horiz-adv-x="384" 
d="M377 20q8 -10 7 -23v0q-1 -13 -11 -22q-10 -7 -21 -7q-14 0 -25 12l-135 163l-135 -163q-11 -11 -25 -11q-11 0 -20 7q-11 9 -12 22t7 23l143 172l-143 170q-8 11 -7 24t12 22q10 8 23 7t22 -12l135 -162l135 162q9 11 22 12t23 -7q11 -9 12 -22t-7 -23l-143 -172
l143 -172v0z" />
    <glyph glyph-name="y" unicode="y" horiz-adv-x="384" 
d="M378 365l-154 -215v-150q0 -14 -9 -22q-9 -9 -23 -9t-23 9q-9 8 -9 22v150l-154 215q-8 12 -6 24q3 13 13 21q12 8 24 6q13 -3 21 -13l134 -187l133 187q8 11 21 13q12 2 24 -5q11 -9 13 -22q3 -12 -5 -24v0z" />
    <glyph glyph-name="y" unicode="Y" horiz-adv-x="384" 
d="M378 365l-154 -215v-150q0 -14 -9 -22q-9 -9 -23 -9t-23 9q-9 8 -9 22v150l-154 215q-8 12 -6 24q3 13 13 21q12 8 24 6q13 -3 21 -13l134 -187l133 187q8 11 21 13q12 2 24 -5q11 -9 13 -22q3 -12 -5 -24v0z" />
    <glyph glyph-name="z" unicode="z" horiz-adv-x="384" 
d="M384 0q0 -14 -9 -23v0q-9 -9 -23 -9h-320q-20 1 -29 18q-8 19 4 34l277 332h-252q-14 0 -23 9t-9 23t9 23t23 9h320q20 -1 29 -18q8 -19 -4 -34l-277 -332h252q14 0 23 -9t9 -23v0z" />
    <glyph glyph-name="z" unicode="Z" horiz-adv-x="384" 
d="M384 0q0 -14 -9 -23v0q-9 -9 -23 -9h-320q-20 1 -29 18q-8 19 4 34l277 332h-252q-14 0 -23 9t-9 23t9 23t23 9h320q20 -1 29 -18q8 -19 -4 -34l-277 -332h252q14 0 23 -9t9 -23v0z" />
    <glyph glyph-name="copyright" unicode="&#xf1f9;" 
d="M256 448q-72 -1 -129 -35v0q-58 -34 -92 -92v0q-34 -57 -35 -129q1 -72 35 -129q34 -58 92 -92q57 -34 129 -35q72 1 129 35q58 34 92 92q34 57 35 129q-1 72 -35 129q-34 58 -92 92q-57 34 -129 35v0zM256 -16q-88 2 -147 61v0q-59 59 -61 147q2 88 61 147t147 61
q88 -2 147 -61t61 -147q-2 -88 -61 -147t-147 -61v0zM255 272v0v0v0q33 0 56 -23q17 -14 34 -1q14 17 0 34q-37 37 -90 38v0q-52 -1 -90 -38q-37 -39 -37 -90t37 -90q38 -37 90 -38v0v0q53 1 90 38q14 17 0 34q-17 13 -34 -1q-23 -23 -56 -23v0q-32 0 -56 23q-23 25 -23 57
t23 57q24 23 56 23v0z" />
    <glyph glyph-name="copyright" unicode="&#xa9;" 
d="M256 448q-72 -1 -129 -35v0q-58 -34 -92 -92v0q-34 -57 -35 -129q1 -72 35 -129q34 -58 92 -92q57 -34 129 -35q72 1 129 35q58 34 92 92q34 57 35 129q-1 72 -35 129q-34 58 -92 92q-57 34 -129 35v0zM256 -16q-88 2 -147 61v0q-59 59 -61 147q2 88 61 147t147 61
q88 -2 147 -61t61 -147q-2 -88 -61 -147t-147 -61v0zM255 272v0v0v0q33 0 56 -23q17 -14 34 -1q14 17 0 34q-37 37 -90 38v0q-52 -1 -90 -38q-37 -39 -37 -90t37 -90q38 -37 90 -38v0v0q53 1 90 38q14 17 0 34q-17 13 -34 -1q-23 -23 -56 -23v0q-32 0 -56 23q-23 25 -23 57
t23 57q24 23 56 23v0z" />
    <glyph glyph-name="registered" unicode="&#xf25d;" 
d="M256 448q-72 -1 -129 -35v0q-58 -34 -92 -92v0q-34 -57 -35 -129q1 -72 35 -129q34 -58 92 -92q57 -34 129 -35q72 1 129 35q58 34 92 92q34 57 35 129q-1 72 -35 129q-34 58 -92 92q-57 34 -129 35v0zM256 -16q-88 2 -147 61v0q-59 59 -61 147q2 88 61 147t147 61
q88 -2 147 -61t61 -147q-2 -88 -61 -147t-147 -61v0zM352 240q-1 34 -23 57v0q-23 22 -57 23h-88q-22 -2 -24 -24v-208q2 -22 24 -24q22 2 24 24v72h60l38 -82q7 -14 22 -14q5 0 10 2q19 11 12 32l-35 75q35 23 37 67v0zM272 208h-64v64h64q14 0 23 -9t9 -23t-9 -23t-23 -9
v0z" />
    <glyph glyph-name="registered" unicode="&#xae;" 
d="M256 448q-72 -1 -129 -35v0q-58 -34 -92 -92v0q-34 -57 -35 -129q1 -72 35 -129q34 -58 92 -92q57 -34 129 -35q72 1 129 35q58 34 92 92q34 57 35 129q-1 72 -35 129q-34 58 -92 92q-57 34 -129 35v0zM256 -16q-88 2 -147 61v0q-59 59 -61 147q2 88 61 147t147 61
q88 -2 147 -61t61 -147q-2 -88 -61 -147t-147 -61v0zM352 240q-1 34 -23 57v0q-23 22 -57 23h-88q-22 -2 -24 -24v-208q2 -22 24 -24q22 2 24 24v72h60l38 -82q7 -14 22 -14q5 0 10 2q19 11 12 32l-35 75q35 23 37 67v0zM272 208h-64v64h64q14 0 23 -9t9 -23t-9 -23t-23 -9
v0z" />
    <glyph glyph-name="keyboard" unicode="&#xf11c;" horiz-adv-x="576" 
d="M512 384h-448q-27 -1 -45 -19t-19 -45v-256q1 -27 19 -45t45 -19h448q27 1 45 19t19 45v256q-1 27 -19 45t-45 19v0zM528 64q-1 -15 -16 -16h-448q-15 1 -16 16v256q1 15 16 16h448q15 -1 16 -16v-256v0zM140 296h-24q-11 -1 -12 -12v-24q1 -11 12 -12h24q11 1 12 12v24
q-1 11 -12 12v0zM196 248h24q11 1 12 12v24q-1 11 -12 12h-24q-11 -1 -12 -12v-24q1 -11 12 -12v0zM276 248h24q11 1 12 12v24q-1 11 -12 12h-24q-11 -1 -12 -12v-24q1 -11 12 -12v0zM356 248h24q11 1 12 12v24q-1 11 -12 12h-24q-11 -1 -12 -12v-24q1 -11 12 -12v0z
M460 296h-24q-11 -1 -12 -12v-24q1 -11 12 -12h24q11 1 12 12v24q-1 11 -12 12v0zM140 216h-24q-11 -1 -12 -12v-24q1 -11 12 -12h24q11 1 12 12v24q-1 11 -12 12v0zM196 168h24q11 1 12 12v24q-1 11 -12 12h-24q-11 -1 -12 -12v-24q1 -11 12 -12v0zM276 168h24q11 1 12 12
v24q-1 11 -12 12h-24q-11 -1 -12 -12v-24q1 -11 12 -12v0zM356 168h24q11 1 12 12v24q-1 11 -12 12h-24q-11 -1 -12 -12v-24q1 -11 12 -12v0zM460 216h-24q-11 -1 -12 -12v-24q1 -11 12 -12h24q11 1 12 12v24q-1 11 -12 12v0zM400 128h-224q-15 -1 -16 -16v-16q1 -15 16 -16
h224q15 1 16 16v16q-1 15 -16 16v0z" />
    <glyph glyph-name="keyboard" unicode="&#x2328;" horiz-adv-x="576" 
d="M512 384h-448q-27 -1 -45 -19t-19 -45v-256q1 -27 19 -45t45 -19h448q27 1 45 19t19 45v256q-1 27 -19 45t-45 19v0zM528 64q-1 -15 -16 -16h-448q-15 1 -16 16v256q1 15 16 16h448q15 -1 16 -16v-256v0zM140 296h-24q-11 -1 -12 -12v-24q1 -11 12 -12h24q11 1 12 12v24
q-1 11 -12 12v0zM196 248h24q11 1 12 12v24q-1 11 -12 12h-24q-11 -1 -12 -12v-24q1 -11 12 -12v0zM276 248h24q11 1 12 12v24q-1 11 -12 12h-24q-11 -1 -12 -12v-24q1 -11 12 -12v0zM356 248h24q11 1 12 12v24q-1 11 -12 12h-24q-11 -1 -12 -12v-24q1 -11 12 -12v0z
M460 296h-24q-11 -1 -12 -12v-24q1 -11 12 -12h24q11 1 12 12v24q-1 11 -12 12v0zM140 216h-24q-11 -1 -12 -12v-24q1 -11 12 -12h24q11 1 12 12v24q-1 11 -12 12v0zM196 168h24q11 1 12 12v24q-1 11 -12 12h-24q-11 -1 -12 -12v-24q1 -11 12 -12v0zM276 168h24q11 1 12 12
v24q-1 11 -12 12h-24q-11 -1 -12 -12v-24q1 -11 12 -12v0zM356 168h24q11 1 12 12v24q-1 11 -12 12h-24q-11 -1 -12 -12v-24q1 -11 12 -12v0zM460 216h-24q-11 -1 -12 -12v-24q1 -11 12 -12h24q11 1 12 12v24q-1 11 -12 12v0zM400 128h-224q-15 -1 -16 -16v-16q1 -15 16 -16
h224q15 1 16 16v16q-1 15 -16 16v0z" />
    <glyph glyph-name="hourglass" unicode="&#xf254;" horiz-adv-x="384" 
d="M0 424q2 22 24 24h336q22 -2 24 -24q-2 -22 -24 -24h-8v-19q-2 -62 -44 -108l-82 -81l82 -82q42 -44 44 -107v-19h8q22 -2 24 -24q-2 -22 -24 -24h-336q-22 2 -24 24q2 22 24 24h8v19q1 63 45 107l81 82l-81 81q-44 46 -45 108v19h-8q-22 2 -24 24v0v0zM100 64h184
q-5 7 -10 12l-82 82l-81 -82q-1 0 -2 -1q-6 -5 -9 -11v0v0zM284 320q19 27 20 61v19h-224v-19q0 -34 20 -61h184v0z" />
    <glyph glyph-name="hourglass" unicode="&#xf250;" horiz-adv-x="384" 
d="M0 424q2 22 24 24h336q22 -2 24 -24q-2 -22 -24 -24h-8v-19q-2 -62 -44 -108l-82 -81l82 -82q42 -44 44 -107v-19h8q22 -2 24 -24q-2 -22 -24 -24h-336q-22 2 -24 24q2 22 24 24h8v19q1 63 45 107l81 82l-81 81q-44 46 -45 108v19h-8q-22 2 -24 24v0v0zM100 64h184
q-5 7 -10 12l-82 82l-81 -82q-1 0 -2 -1q-6 -5 -9 -11v0v0zM284 320q19 27 20 61v19h-224v-19q0 -34 20 -61h184v0z" />
    <glyph glyph-name="hourglass" unicode="&#x23f3;" horiz-adv-x="384" 
d="M0 424q2 22 24 24h336q22 -2 24 -24q-2 -22 -24 -24h-8v-19q-2 -62 -44 -108l-82 -81l82 -82q42 -44 44 -107v-19h8q22 -2 24 -24q-2 -22 -24 -24h-336q-22 2 -24 24q2 22 24 24h8v19q1 63 45 107l81 82l-81 81q-44 46 -45 108v19h-8q-22 2 -24 24v0v0zM100 64h184
q-5 7 -10 12l-82 82l-81 -82q-1 0 -2 -1q-6 -5 -9 -11v0v0zM284 320q19 27 20 61v19h-224v-19q0 -34 20 -61h184v0z" />
    <glyph glyph-name="moon" unicode="&#x1f319;" 
d="M422 68h-2q-17 -3 -34 -3q-73 1 -122 51q-50 49 -52 124q1 48 24 88q23 41 65 65q6 4 5 11q-1 6 -8 8q-9 2 -21 3q-11 1 -20 1q-63 0 -114 -30q-50 -30 -80 -81q-30 -50 -31 -113q1 -63 31 -113q29 -51 80 -80q50 -30 113 -31q52 0 97 22t77 61q4 6 1 12q-3 5 -9 5v0z
M256 16q-75 2 -124 52v0q-50 49 -52 124q1 58 33 102q32 45 84 64q-33 -53 -34 -118q1 -76 44 -133t111 -80q-30 -11 -62 -11v0z" />
    <glyph glyph-name="moon" unicode="&#xf186;" 
d="M422 68h-2q-17 -3 -34 -3q-73 1 -122 51q-50 49 -52 124q1 48 24 88q23 41 65 65q6 4 5 11q-1 6 -8 8q-9 2 -21 3q-11 1 -20 1q-63 0 -114 -30q-50 -30 -80 -81q-30 -50 -31 -113q1 -63 31 -113q29 -51 80 -80q50 -30 113 -31q52 0 97 22t77 61q4 6 1 12q-3 5 -9 5v0z
M256 16q-75 2 -124 52v0q-50 49 -52 124q1 58 33 102q32 45 84 64q-33 -53 -34 -118q1 -76 44 -133t111 -80q-30 -11 -62 -11v0z" />
    <glyph glyph-name="moon" unicode="&#x23fe;" 
d="M422 68h-2q-17 -3 -34 -3q-73 1 -122 51q-50 49 -52 124q1 48 24 88q23 41 65 65q6 4 5 11q-1 6 -8 8q-9 2 -21 3q-11 1 -20 1q-63 0 -114 -30q-50 -30 -80 -81q-30 -50 -31 -113q1 -63 31 -113q29 -51 80 -80q50 -30 113 -31q52 0 97 22t77 61q4 6 1 12q-3 5 -9 5v0z
M256 16q-75 2 -124 52v0q-50 49 -52 124q1 58 33 102q32 45 84 64q-33 -53 -34 -118q1 -76 44 -133t111 -80q-30 -11 -62 -11v0z" />
    <glyph glyph-name="square" unicode="&#xf0c8;" horiz-adv-x="448" 
d="M384 417h-320q-27 -1 -45 -19t-19 -44v-320q1 -27 19 -45q18 -19 45 -19h320q27 0 45 19q18 18 19 45v320q-1 26 -19 44t-45 19v0zM400 32q-1 -15 -16 -16h-320q-15 1 -16 16v320q1 15 16 16h320q15 -1 16 -16v-320v0z" />
    <glyph glyph-name="square" unicode="&#xf096;" horiz-adv-x="448" 
d="M384 417h-320q-27 -1 -45 -19t-19 -44v-320q1 -27 19 -45q18 -19 45 -19h320q27 0 45 19q18 18 19 45v320q-1 26 -19 44t-45 19v0zM400 32q-1 -15 -16 -16h-320q-15 1 -16 16v320q1 15 16 16h320q15 -1 16 -16v-320v0z" />
    <glyph glyph-name="square" unicode="&#x25fc;" horiz-adv-x="448" 
d="M384 417h-320q-27 -1 -45 -19t-19 -44v-320q1 -27 19 -45q18 -19 45 -19h320q27 0 45 19q18 18 19 45v320q-1 26 -19 44t-45 19v0zM400 32q-1 -15 -16 -16h-320q-15 1 -16 16v320q1 15 16 16h320q15 -1 16 -16v-320v0z" />
    <glyph glyph-name="square" unicode="&#x25fb;" horiz-adv-x="448" 
d="M384 417h-320q-27 -1 -45 -19t-19 -44v-320q1 -27 19 -45q18 -19 45 -19h320q27 0 45 19q18 18 19 45v320q-1 26 -19 44t-45 19v0zM400 32q-1 -15 -16 -16h-320q-15 1 -16 16v320q1 15 16 16h320q15 -1 16 -16v-320v0z" />
    <glyph glyph-name="square" unicode="&#x25a0;" horiz-adv-x="448" 
d="M384 417h-320q-27 -1 -45 -19t-19 -44v-320q1 -27 19 -45q18 -19 45 -19h320q27 0 45 19q18 18 19 45v320q-1 26 -19 44t-45 19v0zM400 32q-1 -15 -16 -16h-320q-15 1 -16 16v320q1 15 16 16h320q15 -1 16 -16v-320v0z" />
    <glyph glyph-name="circle" unicode="&#x1f7e4;" 
d="M256 448q-72 -1 -129 -35v0q-58 -34 -92 -92v0q-34 -57 -35 -129q1 -72 35 -129q34 -58 92 -92q57 -34 129 -35q72 1 129 35q58 34 92 92q34 57 35 129q-1 72 -35 129q-34 58 -92 92q-57 34 -129 35v0zM256 -16q-88 2 -147 61v0q-59 59 -61 147q2 88 61 147t147 61
q88 -2 147 -61t61 -147q-2 -88 -61 -147t-147 -61v0z" />
    <glyph glyph-name="circle" unicode="&#x1f7e3;" 
d="M256 448q-72 -1 -129 -35v0q-58 -34 -92 -92v0q-34 -57 -35 -129q1 -72 35 -129q34 -58 92 -92q57 -34 129 -35q72 1 129 35q58 34 92 92q34 57 35 129q-1 72 -35 129q-34 58 -92 92q-57 34 -129 35v0zM256 -16q-88 2 -147 61v0q-59 59 -61 147q2 88 61 147t147 61
q88 -2 147 -61t61 -147q-2 -88 -61 -147t-147 -61v0z" />
    <glyph glyph-name="circle" unicode="&#x1f7e2;" 
d="M256 448q-72 -1 -129 -35v0q-58 -34 -92 -92v0q-34 -57 -35 -129q1 -72 35 -129q34 -58 92 -92q57 -34 129 -35q72 1 129 35q58 34 92 92q34 57 35 129q-1 72 -35 129q-34 58 -92 92q-57 34 -129 35v0zM256 -16q-88 2 -147 61v0q-59 59 -61 147q2 88 61 147t147 61
q88 -2 147 -61t61 -147q-2 -88 -61 -147t-147 -61v0z" />
    <glyph glyph-name="circle" unicode="&#x1f7e1;" 
d="M256 448q-72 -1 -129 -35v0q-58 -34 -92 -92v0q-34 -57 -35 -129q1 -72 35 -129q34 -58 92 -92q57 -34 129 -35q72 1 129 35q58 34 92 92q34 57 35 129q-1 72 -35 129q-34 58 -92 92q-57 34 -129 35v0zM256 -16q-88 2 -147 61v0q-59 59 -61 147q2 88 61 147t147 61
q88 -2 147 -61t61 -147q-2 -88 -61 -147t-147 -61v0z" />
    <glyph glyph-name="circle" unicode="&#x1f7e0;" 
d="M256 448q-72 -1 -129 -35v0q-58 -34 -92 -92v0q-34 -57 -35 -129q1 -72 35 -129q34 -58 92 -92q57 -34 129 -35q72 1 129 35q58 34 92 92q34 57 35 129q-1 72 -35 129q-34 58 -92 92q-57 34 -129 35v0zM256 -16q-88 2 -147 61v0q-59 59 -61 147q2 88 61 147t147 61
q88 -2 147 -61t61 -147q-2 -88 -61 -147t-147 -61v0z" />
    <glyph glyph-name="circle" unicode="&#x1f535;" 
d="M256 448q-72 -1 -129 -35v0q-58 -34 -92 -92v0q-34 -57 -35 -129q1 -72 35 -129q34 -58 92 -92q57 -34 129 -35q72 1 129 35q58 34 92 92q34 57 35 129q-1 72 -35 129q-34 58 -92 92q-57 34 -129 35v0zM256 -16q-88 2 -147 61v0q-59 59 -61 147q2 88 61 147t147 61
q88 -2 147 -61t61 -147q-2 -88 -61 -147t-147 -61v0z" />
    <glyph glyph-name="circle" unicode="&#x1f534;" 
d="M256 448q-72 -1 -129 -35v0q-58 -34 -92 -92v0q-34 -57 -35 -129q1 -72 35 -129q34 -58 92 -92q57 -34 129 -35q72 1 129 35q58 34 92 92q34 57 35 129q-1 72 -35 129q-34 58 -92 92q-57 34 -129 35v0zM256 -16q-88 2 -147 61v0q-59 59 -61 147q2 88 61 147t147 61
q88 -2 147 -61t61 -147q-2 -88 -61 -147t-147 -61v0z" />
    <glyph glyph-name="circle" unicode="&#xf1db;" 
d="M256 448q-72 -1 -129 -35v0q-58 -34 -92 -92v0q-34 -57 -35 -129q1 -72 35 -129q34 -58 92 -92q57 -34 129 -35q72 1 129 35q58 34 92 92q34 57 35 129q-1 72 -35 129q-34 58 -92 92q-57 34 -129 35v0zM256 -16q-88 2 -147 61v0q-59 59 -61 147q2 88 61 147t147 61
q88 -2 147 -61t61 -147q-2 -88 -61 -147t-147 -61v0z" />
    <glyph glyph-name="circle" unicode="&#xf111;" 
d="M256 448q-72 -1 -129 -35v0q-58 -34 -92 -92v0q-34 -57 -35 -129q1 -72 35 -129q34 -58 92 -92q57 -34 129 -35q72 1 129 35q58 34 92 92q34 57 35 129q-1 72 -35 129q-34 58 -92 92q-57 34 -129 35v0zM256 -16q-88 2 -147 61v0q-59 59 -61 147q2 88 61 147t147 61
q88 -2 147 -61t61 -147q-2 -88 -61 -147t-147 -61v0z" />
    <glyph glyph-name="circle" unicode="&#xf10c;" 
d="M256 448q-72 -1 -129 -35v0q-58 -34 -92 -92v0q-34 -57 -35 -129q1 -72 35 -129q34 -58 92 -92q57 -34 129 -35q72 1 129 35q58 34 92 92q34 57 35 129q-1 72 -35 129q-34 58 -92 92q-57 34 -129 35v0zM256 -16q-88 2 -147 61v0q-59 59 -61 147q2 88 61 147t147 61
q88 -2 147 -61t61 -147q-2 -88 -61 -147t-147 -61v0z" />
    <glyph glyph-name="circle" unicode="&#x2b24;" 
d="M256 448q-72 -1 -129 -35v0q-58 -34 -92 -92v0q-34 -57 -35 -129q1 -72 35 -129q34 -58 92 -92q57 -34 129 -35q72 1 129 35q58 34 92 92q34 57 35 129q-1 72 -35 129q-34 58 -92 92q-57 34 -129 35v0zM256 -16q-88 2 -147 61v0q-59 59 -61 147q2 88 61 147t147 61
q88 -2 147 -61t61 -147q-2 -88 -61 -147t-147 -61v0z" />
    <glyph glyph-name="circle" unicode="&#x26ab;" 
d="M256 448q-72 -1 -129 -35v0q-58 -34 -92 -92v0q-34 -57 -35 -129q1 -72 35 -129q34 -58 92 -92q57 -34 129 -35q72 1 129 35q58 34 92 92q34 57 35 129q-1 72 -35 129q-34 58 -92 92q-57 34 -129 35v0zM256 -16q-88 2 -147 61v0q-59 59 -61 147q2 88 61 147t147 61
q88 -2 147 -61t61 -147q-2 -88 -61 -147t-147 -61v0z" />
    <glyph glyph-name="circle" unicode="&#x26aa;" 
d="M256 448q-72 -1 -129 -35v0q-58 -34 -92 -92v0q-34 -57 -35 -129q1 -72 35 -129q34 -58 92 -92q57 -34 129 -35q72 1 129 35q58 34 92 92q34 57 35 129q-1 72 -35 129q-34 58 -92 92q-57 34 -129 35v0zM256 -16q-88 2 -147 61v0q-59 59 -61 147q2 88 61 147t147 61
q88 -2 147 -61t61 -147q-2 -88 -61 -147t-147 -61v0z" />
    <glyph glyph-name="circle" unicode="&#x25cf;" 
d="M256 448q-72 -1 -129 -35v0q-58 -34 -92 -92v0q-34 -57 -35 -129q1 -72 35 -129q34 -58 92 -92q57 -34 129 -35q72 1 129 35q58 34 92 92q34 57 35 129q-1 72 -35 129q-34 58 -92 92q-57 34 -129 35v0zM256 -16q-88 2 -147 61v0q-59 59 -61 147q2 88 61 147t147 61
q88 -2 147 -61t61 -147q-2 -88 -61 -147t-147 -61v0z" />
    <glyph glyph-name="sun" unicode="&#xf185;" 
d="M505 123l-48 69l48 69q11 17 4 36q-8 18 -28 23l-83 14l-14 83q-5 20 -23 28q-19 7 -36 -4l-69 -47l-69 47q-17 11 -36 4q-18 -8 -23 -28l-14 -83l-83 -14q-20 -5 -28 -23q-7 -19 4 -36l48 -69l-48 -69q-11 -17 -4 -36q8 -18 28 -23l83 -14l14 -83q5 -20 23 -28
q19 -7 36 4l69 47l69 -47q10 -7 21 -7q8 0 15 3q18 8 23 28l14 83l83 14q20 5 28 23q7 19 -4 36v0zM457 109l-100 -18l-18 -100l-83 58l-83 -58l-18 100l-100 18l58 84l-58 82l100 18l18 100l83 -58l83 58l18 -100l100 -18l-58 -82l58 -84v0zM256 305q-48 -1 -79 -33v0
q-31 -31 -32 -78q1 -48 33 -79q31 -31 78 -32q47 1 78 32q32 32 33 79q-1 46 -32 78t-79 33v0zM256 129q-27 1 -45 19v0q-18 18 -19 45q1 27 19 45q18 17 45 18q27 -1 45 -19t19 -44q-1 -27 -19 -45t-45 -19v0z" />
    <glyph glyph-name="sun" unicode="&#x2600;" 
d="M505 123l-48 69l48 69q11 17 4 36q-8 18 -28 23l-83 14l-14 83q-5 20 -23 28q-19 7 -36 -4l-69 -47l-69 47q-17 11 -36 4q-18 -8 -23 -28l-14 -83l-83 -14q-20 -5 -28 -23q-7 -19 4 -36l48 -69l-48 -69q-11 -17 -4 -36q8 -18 28 -23l83 -14l14 -83q5 -20 23 -28
q19 -7 36 4l69 47l69 -47q10 -7 21 -7q8 0 15 3q18 8 23 28l14 83l83 14q20 5 28 23q7 19 -4 36v0zM457 109l-100 -18l-18 -100l-83 58l-83 -58l-18 100l-100 18l58 84l-58 82l100 18l18 100l83 -58l83 58l18 -100l100 -18l-58 -82l58 -84v0zM256 305q-48 -1 -79 -33v0
q-31 -31 -32 -78q1 -48 33 -79q31 -31 78 -32q47 1 78 32q32 32 33 79q-1 46 -32 78t-79 33v0zM256 129q-27 1 -45 19v0q-18 18 -19 45q1 27 19 45q18 17 45 18q27 -1 45 -19t19 -44q-1 -27 -19 -45t-45 -19v0z" />
    <glyph glyph-name="square-check" unicode="&#xf14a;" horiz-adv-x="448" 
d="M384 416h-320q-27 -1 -45 -19t-19 -45v-320q1 -27 19 -45t45 -19h320q27 1 45 19t19 45v320q-1 27 -19 45t-45 19v0zM400 32q-1 -15 -16 -16h-320q-15 1 -16 16v320q1 15 16 16h320q15 -1 16 -16v-320v0zM303 273l-111 -111l-48 47q-17 14 -34 0q-14 -17 0 -34l64 -64
q9 -7 18 -7q10 0 17 7l128 128q14 17 0 34q-17 14 -34 0v0z" />
    <glyph glyph-name="square-check" unicode="&#xf046;" horiz-adv-x="448" 
d="M384 416h-320q-27 -1 -45 -19t-19 -45v-320q1 -27 19 -45t45 -19h320q27 1 45 19t19 45v320q-1 27 -19 45t-45 19v0zM400 32q-1 -15 -16 -16h-320q-15 1 -16 16v320q1 15 16 16h320q15 -1 16 -16v-320v0zM303 273l-111 -111l-48 47q-17 14 -34 0q-14 -17 0 -34l64 -64
q9 -7 18 -7q10 0 17 7l128 128q14 17 0 34q-17 14 -34 0v0z" />
    <glyph glyph-name="square-check" unicode="&#x2705;" horiz-adv-x="448" 
d="M384 416h-320q-27 -1 -45 -19t-19 -45v-320q1 -27 19 -45t45 -19h320q27 1 45 19t19 45v320q-1 27 -19 45t-45 19v0zM400 32q-1 -15 -16 -16h-320q-15 1 -16 16v320q1 15 16 16h320q15 -1 16 -16v-320v0zM303 273l-111 -111l-48 47q-17 14 -34 0q-14 -17 0 -34l64 -64
q9 -7 18 -7q10 0 17 7l128 128q14 17 0 34q-17 14 -34 0v0z" />
    <glyph glyph-name="square-check" unicode="&#x2611;" horiz-adv-x="448" 
d="M384 416h-320q-27 -1 -45 -19t-19 -45v-320q1 -27 19 -45t45 -19h320q27 1 45 19t19 45v320q-1 27 -19 45t-45 19v0zM400 32q-1 -15 -16 -16h-320q-15 1 -16 16v320q1 15 16 16h320q15 -1 16 -16v-320v0zM303 273l-111 -111l-48 47q-17 14 -34 0q-14 -17 0 -34l64 -64
q9 -7 18 -7q10 0 17 7l128 128q14 17 0 34q-17 14 -34 0v0z" />
    <glyph glyph-name="hand-point-up" unicode="&#xf0a6;" horiz-adv-x="448" 
d="M376 256q-10 0 -19 -2q-20 32 -61 34q-10 0 -19 -2q-20 32 -61 34h-8v56q-1 31 -21 51t-51 21q-31 -1 -51 -21t-21 -51v-196q-31 -26 -32 -68v-50q0 -24 12 -45q12 -20 33 -32l55 -31q32 -18 68 -18h108q59 2 99 42q39 41 41 102v104q-1 31 -21 51t-51 21v0zM272 216
q2 22 24 24q22 -2 24 -24v-48q-2 -22 -24 -24q-22 2 -24 24v48v0zM192 248q2 22 24 24q22 -2 24 -24v-48q0 -5 -2 -9q-15 9 -34 9h-12v48v0zM112 376q2 22 24 24q22 -2 24 -24v-176h-40h-5q-1 -1 -3 -1v1v0v176v0zM308 -16h-108q-23 0 -44 12l-56 31q-19 12 -20 35v50
q0 17 12 28q11 12 28 12h84q12 0 20 -8t8 -20t-8 -20t-20 -8h-52q-22 -2 -24 -24q2 -22 24 -24h52q25 0 44 15q19 14 28 36q9 -3 20 -3q7 0 13 2h2q18 -39 65 -42q12 0 22 4q-8 -33 -32 -54t-58 -22v0zM400 128q-2 -22 -24 -24q-22 2 -24 24v56q2 22 24 24q22 -2 24 -24v-56
v0z" />
    <glyph glyph-name="hand-point-up" unicode="&#x261d;" horiz-adv-x="448" 
d="M376 256q-10 0 -19 -2q-20 32 -61 34q-10 0 -19 -2q-20 32 -61 34h-8v56q-1 31 -21 51t-51 21q-31 -1 -51 -21t-21 -51v-196q-31 -26 -32 -68v-50q0 -24 12 -45q12 -20 33 -32l55 -31q32 -18 68 -18h108q59 2 99 42q39 41 41 102v104q-1 31 -21 51t-51 21v0zM272 216
q2 22 24 24q22 -2 24 -24v-48q-2 -22 -24 -24q-22 2 -24 24v48v0zM192 248q2 22 24 24q22 -2 24 -24v-48q0 -5 -2 -9q-15 9 -34 9h-12v48v0zM112 376q2 22 24 24q22 -2 24 -24v-176h-40h-5q-1 -1 -3 -1v1v0v176v0zM308 -16h-108q-23 0 -44 12l-56 31q-19 12 -20 35v50
q0 17 12 28q11 12 28 12h84q12 0 20 -8t8 -20t-8 -20t-20 -8h-52q-22 -2 -24 -24q2 -22 24 -24h52q25 0 44 15q19 14 28 36q9 -3 20 -3q7 0 13 2h2q18 -39 65 -42q12 0 22 4q-8 -33 -32 -54t-58 -22v0zM400 128q-2 -22 -24 -24q-22 2 -24 24v56q2 22 24 24q22 -2 24 -24v-56
v0z" />
    <glyph glyph-name="face-frown" unicode="&#xf119;" 
d="M256 448q-72 -1 -129 -35v0q-58 -34 -92 -92v0q-34 -57 -35 -129q1 -72 35 -129q34 -58 92 -92q57 -34 129 -35q72 1 129 35q58 34 92 92q34 57 35 129q-1 72 -35 129q-34 58 -92 92q-57 34 -129 35v0zM256 -16q-88 2 -147 61v0q-59 59 -61 147q2 88 61 147t147 61
q88 -2 147 -61t61 -147q-2 -88 -61 -147t-147 -61v0zM175 208q14 0 23 9v0q9 9 9 23t-9 23t-23 9t-23 -9t-9 -23q1 -14 10 -23t22 -9v0zM336 208q14 0 23 9v0q9 9 9 23t-9 23t-23 9t-23 -9t-9 -23t9 -23t23 -9v0zM256 176q-64 -3 -94 -37v0q-30 -34 -34 -63q-2 -21 20 -28
q21 -2 28 19q0 4 6 19q7 14 24 28q17 13 50 14q33 -1 50 -14q17 -14 24 -28q6 -14 6 -18q5 -19 23 -20h5q21 6 19 28q-4 29 -33 63q-30 34 -94 37v0z" />
    <glyph glyph-name="face-frown" unicode="&#x2639;" 
d="M256 448q-72 -1 -129 -35v0q-58 -34 -92 -92v0q-34 -57 -35 -129q1 -72 35 -129q34 -58 92 -92q57 -34 129 -35q72 1 129 35q58 34 92 92q34 57 35 129q-1 72 -35 129q-34 58 -92 92q-57 34 -129 35v0zM256 -16q-88 2 -147 61v0q-59 59 -61 147q2 88 61 147t147 61
q88 -2 147 -61t61 -147q-2 -88 -61 -147t-147 -61v0zM175 208q14 0 23 9v0q9 9 9 23t-9 23t-23 9t-23 -9t-9 -23q1 -14 10 -23t22 -9v0zM336 208q14 0 23 9v0q9 9 9 23t-9 23t-23 9t-23 -9t-9 -23t9 -23t23 -9v0zM256 176q-64 -3 -94 -37v0q-30 -34 -34 -63q-2 -21 20 -28
q21 -2 28 19q0 4 6 19q7 14 24 28q17 13 50 14q33 -1 50 -14q17 -14 24 -28q6 -14 6 -18q5 -19 23 -20h5q21 6 19 28q-4 29 -33 63q-30 34 -94 37v0z" />
    <glyph glyph-name="chess-king" unicode="&#xf43f;" horiz-adv-x="448" 
d="M392 -16h-336q-22 -2 -23 -23q0 -10 6 -17q7 -8 17 -8h335q22 2 23 23q0 10 -6 17q-6 8 -16 8v0zM448 232q0 18 -11 33q-17 22 -45 23h-144v56h31q22 2 24 24q-2 22 -23 24h-31v33q-3 21 -26 23q-22 -2 -23 -23v-33h-32q-22 -2 -24 -24q2 -22 24 -24h31v-56h-143
q-24 -1 -40 -16q-15 -16 -16 -40q0 -9 3 -17l65 -199h51l-71 214v2q0 7 8 8h336q8 -2 8 -8v-2l-71 -214h50l66 199q3 8 3 17v0z" />
    <glyph glyph-name="chess-king" unicode="&#x265a;" horiz-adv-x="448" 
d="M392 -16h-336q-22 -2 -23 -23q0 -10 6 -17q7 -8 17 -8h335q22 2 23 23q0 10 -6 17q-6 8 -16 8v0zM448 232q0 18 -11 33q-17 22 -45 23h-144v56h31q22 2 24 24q-2 22 -23 24h-31v33q-3 21 -26 23q-22 -2 -23 -23v-33h-32q-22 -2 -24 -24q2 -22 24 -24h31v-56h-143
q-24 -1 -40 -16q-15 -16 -16 -40q0 -9 3 -17l65 -199h51l-71 214v2q0 7 8 8h336q8 -2 8 -8v-2l-71 -214h50l66 199q3 8 3 17v0z" />
    <glyph glyph-name="chess-queen" unicode="&#xf445;" 
d="M256 336q24 1 40 16v0q15 16 16 40q-1 24 -16 40q-16 15 -40 16q-24 -1 -40 -16q-16 -16 -17 -40q1 -24 17 -40q16 -15 40 -16v0zM511 251q0 8 -7 13l-28 16q-3 2 -8 2q-9 0 -14 -7q-14 -18 -38 -19q-5 0 -9 1q-18 4 -28 18q-11 14 -11 32q-3 12 -13 13h-39
q-10 -1 -13 -10q-4 -17 -17 -27q-13 -11 -31 -11q-17 0 -30 11q-13 10 -17 27q-2 9 -12 10h-39q-13 -1 -14 -13q0 -16 -11 -33t-37 -18q-24 1 -38 19q-4 7 -13 7q-4 0 -8 -2l-29 -16q-7 -5 -7 -13q0 -4 2 -8l108 -227h53l-93 196q13 -4 26 -4v0q6 -2 34 6t51 46
q28 -35 75 -36q46 1 75 36q4 -9 24 -30q20 -20 61 -22q13 0 26 3l-93 -195h53l108 227q1 3 1 6v2v0zM424 -16h-336q-22 -2 -24 -23q0 -10 7 -17q7 -8 17 -8h336q22 2 24 23q0 10 -7 17q-7 8 -17 8v0z" />
    <glyph glyph-name="chess-queen" unicode="&#x265b;" 
d="M256 336q24 1 40 16v0q15 16 16 40q-1 24 -16 40q-16 15 -40 16q-24 -1 -40 -16q-16 -16 -17 -40q1 -24 17 -40q16 -15 40 -16v0zM511 251q0 8 -7 13l-28 16q-3 2 -8 2q-9 0 -14 -7q-14 -18 -38 -19q-5 0 -9 1q-18 4 -28 18q-11 14 -11 32q-3 12 -13 13h-39
q-10 -1 -13 -10q-4 -17 -17 -27q-13 -11 -31 -11q-17 0 -30 11q-13 10 -17 27q-2 9 -12 10h-39q-13 -1 -14 -13q0 -16 -11 -33t-37 -18q-24 1 -38 19q-4 7 -13 7q-4 0 -8 -2l-29 -16q-7 -5 -7 -13q0 -4 2 -8l108 -227h53l-93 196q13 -4 26 -4v0q6 -2 34 6t51 46
q28 -35 75 -36q46 1 75 36q4 -9 24 -30q20 -20 61 -22q13 0 26 3l-93 -195h53l108 227q1 3 1 6v2v0zM424 -16h-336q-22 -2 -24 -23q0 -10 7 -17q7 -8 17 -8h336q22 2 24 23q0 10 -7 17q-7 8 -17 8v0z" />
    <glyph glyph-name="chess-rook" unicode="&#xf447;" horiz-adv-x="384" 
d="M360 -16h-337q-21 -2 -23 -23q0 -10 7 -17q7 -8 16 -8h337q22 2 24 24q-2 22 -24 24v0zM345 416h-308q-15 0 -26 -11t-11 -27v-139q0 -15 11 -25l37 -32v-13v-13q0 -29 -2 -62q-2 -34 -10 -78h49q7 43 9 77t2 69v23v25l-48 41v117h64v-48h48v48h64v-48h48v48h64v-117
l-48 -41v-25v-22q0 -35 2 -70t9 -77h49q-8 44 -10 78q-2 33 -2 62v16v10l37 32q11 10 11 25v139q0 16 -11 27t-28 11v0zM192 224q-14 0 -23 -9v0q-9 -9 -9 -23v-64h64v64q0 14 -9 23t-23 9v0z" />
    <glyph glyph-name="chess-rook" unicode="&#x265c;" horiz-adv-x="384" 
d="M360 -16h-337q-21 -2 -23 -23q0 -10 7 -17q7 -8 16 -8h337q22 2 24 24q-2 22 -24 24v0zM345 416h-308q-15 0 -26 -11t-11 -27v-139q0 -15 11 -25l37 -32v-13v-13q0 -29 -2 -62q-2 -34 -10 -78h49q7 43 9 77t2 69v23v25l-48 41v117h64v-48h48v48h64v-48h48v48h64v-117
l-48 -41v-25v-22q0 -35 2 -70t9 -77h49q-8 44 -10 78q-2 33 -2 62v16v10l37 32q11 10 11 25v139q0 16 -11 27t-28 11v0zM192 224q-14 0 -23 -9v0q-9 -9 -9 -23v-64h64v64q0 14 -9 23t-23 9v0z" />
    <glyph glyph-name="chess-bishop" unicode="&#xf43a;" horiz-adv-x="320" 
d="M296 -16h-273q-21 -2 -23 -23q0 -10 7 -17q7 -8 16 -8h272q23 2 25 24q-2 22 -24 24v0zM0 144q1 -39 19 -63v0q19 -25 45 -33v-32h48v67l-33 11q-12 3 -21 15q-9 13 -10 35q2 44 25 91t50 81q26 33 38 34q10 -1 24 -18q15 -17 27 -37q13 -20 19 -30l-66 -66q-5 -5 -5 -12
q0 -6 5 -11l11 -11q5 -5 11 -5q7 0 12 5l54 54q18 -43 19 -75q-1 -22 -10 -35q-9 -12 -20 -15l-34 -11v-67h48v32q26 8 45 33q18 24 19 63q-1 38 -20 85q-18 48 -46 91q-27 42 -55 65q23 7 25 31q0 14 -9 23t-23 9h-64q-14 0 -23 -9t-9 -23q2 -24 25 -31q-28 -23 -55 -65
q-28 -43 -46 -91q-19 -47 -20 -85v0z" />
    <glyph glyph-name="chess-bishop" unicode="&#x265d;" horiz-adv-x="320" 
d="M296 -16h-273q-21 -2 -23 -23q0 -10 7 -17q7 -8 16 -8h272q23 2 25 24q-2 22 -24 24v0zM0 144q1 -39 19 -63v0q19 -25 45 -33v-32h48v67l-33 11q-12 3 -21 15q-9 13 -10 35q2 44 25 91t50 81q26 33 38 34q10 -1 24 -18q15 -17 27 -37q13 -20 19 -30l-66 -66q-5 -5 -5 -12
q0 -6 5 -11l11 -11q5 -5 11 -5q7 0 12 5l54 54q18 -43 19 -75q-1 -22 -10 -35q-9 -12 -20 -15l-34 -11v-67h48v32q26 8 45 33q18 24 19 63q-1 38 -20 85q-18 48 -46 91q-27 42 -55 65q23 7 25 31q0 14 -9 23t-23 9h-64q-14 0 -23 -9t-9 -23q2 -24 25 -31q-28 -23 -55 -65
q-28 -43 -46 -91q-19 -47 -20 -85v0z" />
    <glyph glyph-name="chess-knight" unicode="&#xf441;" horiz-adv-x="384" 
d="M44 127l15 -6q-26 -32 -27 -72v-16v-17v0h48v32q2 40 36 59l38 23q21 11 22 35v59l-15 -9q-8 -4 -10 -13l-8 -25q-4 -12 -15 -17l-11 -4q-5 -2 -10 -2t-10 2l-33 15q-15 8 -16 24v112q0 8 6 14l7 8l-11 23q-2 3 -2 6q1 9 10 10h105q67 -2 110 -46q44 -44 46 -111v-195h48
v195q-2 87 -59 145q-58 58 -145 60h-105q-25 -1 -41 -17t-17 -41q0 -13 5 -25q-5 -12 -5 -26v-112q0 -22 12 -40t32 -28v0zM80 284q2 -18 20 -20q18 2 20 20q-2 18 -20 20q-18 -2 -20 -20v0zM360 -16h-337q-21 -2 -23 -23q0 -10 7 -17q7 -8 16 -8h337q22 2 24 24
q-2 22 -24 24v0z" />
    <glyph glyph-name="chess-knight" unicode="&#x265e;" horiz-adv-x="384" 
d="M44 127l15 -6q-26 -32 -27 -72v-16v-17v0h48v32q2 40 36 59l38 23q21 11 22 35v59l-15 -9q-8 -4 -10 -13l-8 -25q-4 -12 -15 -17l-11 -4q-5 -2 -10 -2t-10 2l-33 15q-15 8 -16 24v112q0 8 6 14l7 8l-11 23q-2 3 -2 6q1 9 10 10h105q67 -2 110 -46q44 -44 46 -111v-195h48
v195q-2 87 -59 145q-58 58 -145 60h-105q-25 -1 -41 -17t-17 -41q0 -13 5 -25q-5 -12 -5 -26v-112q0 -22 12 -40t32 -28v0zM80 284q2 -18 20 -20q18 2 20 20q-2 18 -20 20q-18 -2 -20 -20v0zM360 -16h-337q-21 -2 -23 -23q0 -10 7 -17q7 -8 16 -8h337q22 2 24 24
q-2 22 -24 24v0z" />
    <glyph glyph-name="chess-pawn" unicode="&#xf443;" horiz-adv-x="320" 
d="M296 -15h-273q-21 -2 -23 -24q2 -22 23 -24h272q22 2 23 23q0 10 -6 17q-6 8 -16 8v0zM55 161h25v-30q0 -30 -4 -59q-5 -30 -19 -55h53q20 57 18 113v30h64v-30q-2 -57 18 -114h53q-14 25 -19 55q-4 29 -4 59v31h24q22 1 24 24q-2 22 -23 24h-24q37 34 38 87q0 14 -3 29
q-2 10 -13 31q-11 22 -36 40q-25 19 -68 20q-50 -1 -84 -35t-35 -84q2 -54 39 -88h-24q-9 0 -16 -7t-7 -17q2 -23 23 -24v0zM160 369q31 -1 51 -21v0q20 -21 21 -51q-1 -31 -21 -51t-51 -21q-31 1 -51 21t-21 51q1 31 21 51t51 21v0z" />
    <glyph glyph-name="chess-pawn" unicode="&#x265f;" horiz-adv-x="320" 
d="M296 -15h-273q-21 -2 -23 -24q2 -22 23 -24h272q22 2 23 23q0 10 -6 17q-6 8 -16 8v0zM55 161h25v-30q0 -30 -4 -59q-5 -30 -19 -55h53q20 57 18 113v30h64v-30q-2 -57 18 -114h53q-14 25 -19 55q-4 29 -4 59v31h24q22 1 24 24q-2 22 -23 24h-24q37 34 38 87q0 14 -3 29
q-2 10 -13 31q-11 22 -36 40q-25 19 -68 20q-50 -1 -84 -35t-35 -84q2 -54 39 -88h-24q-9 0 -16 -7t-7 -17q2 -23 23 -24v0zM160 369q31 -1 51 -21v0q20 -21 21 -51q-1 -31 -21 -51t-51 -21q-31 1 -51 21t-21 51q1 31 21 51t51 21v0z" />
    <glyph glyph-name="heart" unicode="&#x1f9e1;" 
d="M462 385q-36 32 -83 31q-59 -1 -103 -44l-20 -20l-20 20q-44 43 -103 44q-46 0 -84 -31q-47 -43 -49 -102q-2 -60 40 -105l193 -200q10 -10 23 -10t23 10l193 200q42 46 40 105q-3 59 -50 102v0zM438 211l-182 -188l-182 188q-25 27 -26 67t32 71q32 24 66 18t56 -28
l54 -56l54 56q21 21 56 28q34 7 66 -18q33 -31 32 -71t-26 -67v0z" />
    <glyph glyph-name="heart" unicode="&#x1f90e;" 
d="M462 385q-36 32 -83 31q-59 -1 -103 -44l-20 -20l-20 20q-44 43 -103 44q-46 0 -84 -31q-47 -43 -49 -102q-2 -60 40 -105l193 -200q10 -10 23 -10t23 10l193 200q42 46 40 105q-3 59 -50 102v0zM438 211l-182 -188l-182 188q-25 27 -26 67t32 71q32 24 66 18t56 -28
l54 -56l54 56q21 21 56 28q34 7 66 -18q33 -31 32 -71t-26 -67v0z" />
    <glyph glyph-name="heart" unicode="&#x1f90d;" 
d="M462 385q-36 32 -83 31q-59 -1 -103 -44l-20 -20l-20 20q-44 43 -103 44q-46 0 -84 -31q-47 -43 -49 -102q-2 -60 40 -105l193 -200q10 -10 23 -10t23 10l193 200q42 46 40 105q-3 59 -50 102v0zM438 211l-182 -188l-182 188q-25 27 -26 67t32 71q32 24 66 18t56 -28
l54 -56l54 56q21 21 56 28q34 7 66 -18q33 -31 32 -71t-26 -67v0z" />
    <glyph glyph-name="heart" unicode="&#x1f5a4;" 
d="M462 385q-36 32 -83 31q-59 -1 -103 -44l-20 -20l-20 20q-44 43 -103 44q-46 0 -84 -31q-47 -43 -49 -102q-2 -60 40 -105l193 -200q10 -10 23 -10t23 10l193 200q42 46 40 105q-3 59 -50 102v0zM438 211l-182 -188l-182 188q-25 27 -26 67t32 71q32 24 66 18t56 -28
l54 -56l54 56q21 21 56 28q34 7 66 -18q33 -31 32 -71t-26 -67v0z" />
    <glyph glyph-name="heart" unicode="&#x1f49c;" 
d="M462 385q-36 32 -83 31q-59 -1 -103 -44l-20 -20l-20 20q-44 43 -103 44q-46 0 -84 -31q-47 -43 -49 -102q-2 -60 40 -105l193 -200q10 -10 23 -10t23 10l193 200q42 46 40 105q-3 59 -50 102v0zM438 211l-182 -188l-182 188q-25 27 -26 67t32 71q32 24 66 18t56 -28
l54 -56l54 56q21 21 56 28q34 7 66 -18q33 -31 32 -71t-26 -67v0z" />
    <glyph glyph-name="heart" unicode="&#x1f49b;" 
d="M462 385q-36 32 -83 31q-59 -1 -103 -44l-20 -20l-20 20q-44 43 -103 44q-46 0 -84 -31q-47 -43 -49 -102q-2 -60 40 -105l193 -200q10 -10 23 -10t23 10l193 200q42 46 40 105q-3 59 -50 102v0zM438 211l-182 -188l-182 188q-25 27 -26 67t32 71q32 24 66 18t56 -28
l54 -56l54 56q21 21 56 28q34 7 66 -18q33 -31 32 -71t-26 -67v0z" />
    <glyph glyph-name="heart" unicode="&#x1f49a;" 
d="M462 385q-36 32 -83 31q-59 -1 -103 -44l-20 -20l-20 20q-44 43 -103 44q-46 0 -84 -31q-47 -43 -49 -102q-2 -60 40 -105l193 -200q10 -10 23 -10t23 10l193 200q42 46 40 105q-3 59 -50 102v0zM438 211l-182 -188l-182 188q-25 27 -26 67t32 71q32 24 66 18t56 -28
l54 -56l54 56q21 21 56 28q34 7 66 -18q33 -31 32 -71t-26 -67v0z" />
    <glyph glyph-name="heart" unicode="&#x1f499;" 
d="M462 385q-36 32 -83 31q-59 -1 -103 -44l-20 -20l-20 20q-44 43 -103 44q-46 0 -84 -31q-47 -43 -49 -102q-2 -60 40 -105l193 -200q10 -10 23 -10t23 10l193 200q42 46 40 105q-3 59 -50 102v0zM438 211l-182 -188l-182 188q-25 27 -26 67t32 71q32 24 66 18t56 -28
l54 -56l54 56q21 21 56 28q34 7 66 -18q33 -31 32 -71t-26 -67v0z" />
    <glyph glyph-name="heart" unicode="&#xf08a;" 
d="M462 385q-36 32 -83 31q-59 -1 -103 -44l-20 -20l-20 20q-44 43 -103 44q-46 0 -84 -31q-47 -43 -49 -102q-2 -60 40 -105l193 -200q10 -10 23 -10t23 10l193 200q42 46 40 105q-3 59 -50 102v0zM438 211l-182 -188l-182 188q-25 27 -26 67t32 71q32 24 66 18t56 -28
l54 -56l54 56q21 21 56 28q34 7 66 -18q33 -31 32 -71t-26 -67v0z" />
    <glyph glyph-name="heart" unicode="&#xf004;" 
d="M462 385q-36 32 -83 31q-59 -1 -103 -44l-20 -20l-20 20q-44 43 -103 44q-46 0 -84 -31q-47 -43 -49 -102q-2 -60 40 -105l193 -200q10 -10 23 -10t23 10l193 200q42 46 40 105q-3 59 -50 102v0zM438 211l-182 -188l-182 188q-25 27 -26 67t32 71q32 24 66 18t56 -28
l54 -56l54 56q21 21 56 28q34 7 66 -18q33 -31 32 -71t-26 -67v0z" />
    <glyph glyph-name="heart" unicode="&#x2764;" 
d="M462 385q-36 32 -83 31q-59 -1 -103 -44l-20 -20l-20 20q-44 43 -103 44q-46 0 -84 -31q-47 -43 -49 -102q-2 -60 40 -105l193 -200q10 -10 23 -10t23 10l193 200q42 46 40 105q-3 59 -50 102v0zM438 211l-182 -188l-182 188q-25 27 -26 67t32 71q32 24 66 18t56 -28
l54 -56l54 56q21 21 56 28q34 7 66 -18q33 -31 32 -71t-26 -67v0z" />
    <glyph glyph-name="heart" unicode="&#x2665;" 
d="M462 385q-36 32 -83 31q-59 -1 -103 -44l-20 -20l-20 20q-44 43 -103 44q-46 0 -84 -31q-47 -43 -49 -102q-2 -60 40 -105l193 -200q10 -10 23 -10t23 10l193 200q42 46 40 105q-3 59 -50 102v0zM438 211l-182 -188l-182 188q-25 27 -26 67t32 71q32 24 66 18t56 -28
l54 -56l54 56q21 21 56 28q34 7 66 -18q33 -31 32 -71t-26 -67v0z" />
    <glyph glyph-name="futbol" unicode="&#xf1e3;" 
d="M177 219l31 -91h96l30 91l-78 57l-79 -57v0zM255 448q-71 -1 -128 -35v0q-58 -34 -92 -92v0q-34 -57 -35 -129q1 -72 35 -129q34 -58 92 -92q57 -34 129 -35q71 1 129 35q57 34 91 92q34 57 35 128q-1 71 -35 129t-91 93q-58 34 -130 35v0zM435 87l-104 1l-30 -99
q-22 -5 -45 -5t-45 5l-30 99l-104 -1q-23 38 -28 85l85 60l-33 98q30 34 72 53l83 -63l83 62q42 -18 72 -52l-33 -98l85 -60q-6 -47 -28 -85v0z" />
    <glyph glyph-name="futbol" unicode="&#x26bd;" 
d="M177 219l31 -91h96l30 91l-78 57l-79 -57v0zM255 448q-71 -1 -128 -35v0q-58 -34 -92 -92v0q-34 -57 -35 -129q1 -72 35 -129q34 -58 92 -92q57 -34 129 -35q71 1 129 35q57 34 91 92q34 57 35 128q-1 71 -35 129t-91 93q-58 34 -130 35v0zM435 87l-104 1l-30 -99
q-22 -5 -45 -5t-45 5l-30 99l-104 -1q-23 38 -28 85l85 60l-33 98q30 34 72 53l83 -63l83 62q42 -18 72 -52l-33 -98l85 -60q-6 -47 -28 -85v0z" />
    <glyph glyph-name="envelope" unicode="&#x1f582;" 
d="M448 384h-384q-27 -1 -45 -19t-19 -45v-256q1 -27 19 -45t45 -19h384q27 1 45 19t19 45v256q-1 27 -19 45t-45 19v0zM64 336h384q15 -1 16 -16v-22l-167 -138q-18 -15 -41 -15t-41 15l-167 138v22q1 15 16 16v0zM448 48h-384q-15 1 -16 16v171l136 -113q32 -26 72 -26
t72 26l136 113v-171q-1 -15 -16 -16v0z" />
    <glyph glyph-name="envelope" unicode="&#xf0e0;" 
d="M448 384h-384q-27 -1 -45 -19t-19 -45v-256q1 -27 19 -45t45 -19h384q27 1 45 19t19 45v256q-1 27 -19 45t-45 19v0zM64 336h384q15 -1 16 -16v-22l-167 -138q-18 -15 -41 -15t-41 15l-167 138v22q1 15 16 16v0zM448 48h-384q-15 1 -16 16v171l136 -113q32 -26 72 -26
t72 26l136 113v-171q-1 -15 -16 -16v0z" />
    <glyph glyph-name="envelope" unicode="&#xf003;" 
d="M448 384h-384q-27 -1 -45 -19t-19 -45v-256q1 -27 19 -45t45 -19h384q27 1 45 19t19 45v256q-1 27 -19 45t-45 19v0zM64 336h384q15 -1 16 -16v-22l-167 -138q-18 -15 -41 -15t-41 15l-167 138v22q1 15 16 16v0zM448 48h-384q-15 1 -16 16v171l136 -113q32 -26 72 -26
t72 26l136 113v-171q-1 -15 -16 -16v0z" />
    <glyph glyph-name="envelope" unicode="&#x2709;" 
d="M448 384h-384q-27 -1 -45 -19t-19 -45v-256q1 -27 19 -45t45 -19h384q27 1 45 19t19 45v256q-1 27 -19 45t-45 19v0zM64 336h384q15 -1 16 -16v-22l-167 -138q-18 -15 -41 -15t-41 15l-167 138v22q1 15 16 16v0zM448 48h-384q-15 1 -16 16v171l136 -113q32 -26 72 -26
t72 26l136 113v-171q-1 -15 -16 -16v0z" />
    <glyph glyph-name="hand" unicode="&#x1f91a;" 
d="M408 368q-6 0 -12 -1q-7 22 -26 35q-18 14 -42 14q-10 0 -19 -2q-20 32 -61 34q-41 -2 -61 -34q-9 2 -19 2q-30 -1 -51 -21q-20 -20 -21 -51v-122q-8 2 -16 2v0v0q-34 -1 -56 -23q-23 -23 -24 -57q0 -31 21 -55l82 -87q30 -32 69 -49t83 -17h33q81 2 136 56q54 55 56 136
v168q-1 31 -21 51t-51 21v0zM432 128q-2 -61 -42 -102v0q-41 -40 -101 -42h-34q-69 1 -117 51l-80 86q-9 10 -9 23q0 16 11 24q10 7 20 7q13 0 23 -10l27 -29q3 -1 6 -1q7 0 8 8v201q2 22 23 24q22 -2 23 -24v-152q4 -15 18 -16q14 2 15 15l1 185q2 22 23 24q22 -2 23 -24
v-184q4 -15 18 -16q15 2 16 15v152q2 22 23 24q22 -2 23 -24v-152q4 -13 18 -15q14 2 15 15v105q2 22 23 24q22 -2 23 -24v-168h3z" />
    <glyph glyph-name="hand" unicode="&#xf256;" 
d="M408 368q-6 0 -12 -1q-7 22 -26 35q-18 14 -42 14q-10 0 -19 -2q-20 32 -61 34q-41 -2 -61 -34q-9 2 -19 2q-30 -1 -51 -21q-20 -20 -21 -51v-122q-8 2 -16 2v0v0q-34 -1 -56 -23q-23 -23 -24 -57q0 -31 21 -55l82 -87q30 -32 69 -49t83 -17h33q81 2 136 56q54 55 56 136
v168q-1 31 -21 51t-51 21v0zM432 128q-2 -61 -42 -102v0q-41 -40 -101 -42h-34q-69 1 -117 51l-80 86q-9 10 -9 23q0 16 11 24q10 7 20 7q13 0 23 -10l27 -29q3 -1 6 -1q7 0 8 8v201q2 22 23 24q22 -2 23 -24v-152q4 -15 18 -16q14 2 15 15l1 185q2 22 23 24q22 -2 23 -24
v-184q4 -15 18 -16q15 2 16 15v152q2 22 23 24q22 -2 23 -24v-152q4 -13 18 -15q14 2 15 15v105q2 22 23 24q22 -2 23 -24v-168h3z" />
    <glyph glyph-name="hand" unicode="&#x270b;" 
d="M408 368q-6 0 -12 -1q-7 22 -26 35q-18 14 -42 14q-10 0 -19 -2q-20 32 -61 34q-41 -2 -61 -34q-9 2 -19 2q-30 -1 -51 -21q-20 -20 -21 -51v-122q-8 2 -16 2v0v0q-34 -1 -56 -23q-23 -23 -24 -57q0 -31 21 -55l82 -87q30 -32 69 -49t83 -17h33q81 2 136 56q54 55 56 136
v168q-1 31 -21 51t-51 21v0zM432 128q-2 -61 -42 -102v0q-41 -40 -101 -42h-34q-69 1 -117 51l-80 86q-9 10 -9 23q0 16 11 24q10 7 20 7q13 0 23 -10l27 -29q3 -1 6 -1q7 0 8 8v201q2 22 23 24q22 -2 23 -24v-152q4 -15 18 -16q14 2 15 15l1 185q2 22 23 24q22 -2 23 -24
v-184q4 -15 18 -16q15 2 16 15v152q2 22 23 24q22 -2 23 -24v-152q4 -13 18 -15q14 2 15 15v105q2 22 23 24q22 -2 23 -24v-168h3z" />
    <glyph glyph-name="hand-peace" unicode="&#xf25b;" 
d="M412 288q-13 0 -24 -4q-20 19 -48 20q-18 0 -32 -8l11 69q1 5 1 11q0 28 -20 50q-19 21 -52 22q-27 0 -46 -17q-20 -17 -25 -44l-4 -21l-4 9q-22 40 -65 41q-31 -1 -51 -21q-20 -21 -21 -51q0 -16 7 -31l50 -104q-19 -9 -30 -26t-11 -38v-80q1 -35 28 -57l46 -36
q45 -35 103 -35h79q75 1 124 51q50 50 52 124v108q-1 29 -21 48q-19 19 -47 20v0zM320 236q1 18 20 20q18 -2 20 -20v-56q-2 -18 -20 -20q-19 2 -20 20v56v0zM248 400q21 -1 24 -24v-4l-24 -145q-11 5 -24 6v0v0q-7 0 -13 -1l-11 -2l24 151q5 18 24 19v0zM79 344q2 22 24 24
q15 0 22 -14l61 -127l-49 -8l-55 115q-2 5 -3 10v0zM304 -16h-79q-41 0 -74 25l-46 36q-9 7 -9 20v80q2 18 18 23l105 16q1 0 3 1h2q9 0 16 -7q8 -6 8 -17q-1 -18 -17 -23l-58 -9q-20 -4 -21 -24q1 -15 10 -19q9 -5 14 -5q2 0 18 2q15 2 30 5q16 2 17 2q37 10 50 44
q19 -21 49 -22q13 0 24 4q19 -19 48 -20q3 0 19 3q-7 -50 -42 -82t-85 -33v0zM432 164q-2 -18 -20 -20q-18 2 -20 20v56q1 18 20 20q18 -2 20 -20v-56v0z" />
    <glyph glyph-name="hand-peace" unicode="&#x270c;" 
d="M412 288q-13 0 -24 -4q-20 19 -48 20q-18 0 -32 -8l11 69q1 5 1 11q0 28 -20 50q-19 21 -52 22q-27 0 -46 -17q-20 -17 -25 -44l-4 -21l-4 9q-22 40 -65 41q-31 -1 -51 -21q-20 -21 -21 -51q0 -16 7 -31l50 -104q-19 -9 -30 -26t-11 -38v-80q1 -35 28 -57l46 -36
q45 -35 103 -35h79q75 1 124 51q50 50 52 124v108q-1 29 -21 48q-19 19 -47 20v0zM320 236q1 18 20 20q18 -2 20 -20v-56q-2 -18 -20 -20q-19 2 -20 20v56v0zM248 400q21 -1 24 -24v-4l-24 -145q-11 5 -24 6v0v0q-7 0 -13 -1l-11 -2l24 151q5 18 24 19v0zM79 344q2 22 24 24
q15 0 22 -14l61 -127l-49 -8l-55 115q-2 5 -3 10v0zM304 -16h-79q-41 0 -74 25l-46 36q-9 7 -9 20v80q2 18 18 23l105 16q1 0 3 1h2q9 0 16 -7q8 -6 8 -17q-1 -18 -17 -23l-58 -9q-20 -4 -21 -24q1 -15 10 -19q9 -5 14 -5q2 0 18 2q15 2 30 5q16 2 17 2q37 10 50 44
q19 -21 49 -22q13 0 24 4q19 -19 48 -20q3 0 19 3q-7 -50 -42 -82t-85 -33v0zM432 164q-2 -18 -20 -20q-18 2 -20 20v56q1 18 20 20q18 -2 20 -20v-56v0z" />
    <glyph glyph-name="snowflake" unicode="&#xf2dc;" 
d="M484 154q3 -10 -2 -19q-5 -8 -15 -11l-31 -8l33 -19q18 -13 9 -33q-13 -18 -33 -9l-33 19l8 -31q4 -22 -17 -30q-21 -3 -29 17l-21 78l-73 42v-84l57 -57q14 -17 0 -34q-7 -7 -17 -7t-17 7l-23 23v-38q-2 -22 -24 -24q-22 2 -24 24v38l-23 -23q-17 -14 -34 0q-14 17 0 34
l57 57v84l-73 -42l-21 -78q-8 -20 -29 -17q-21 8 -17 30l8 31l-33 -19q-20 -9 -33 9q-9 20 9 33l33 19l-31 8q-21 8 -17 30q7 20 29 17l78 -21l73 43l-73 41l-78 -21q-22 -3 -29 17q-4 22 17 30l31 8l-33 19q-18 13 -9 33q13 18 33 9l33 -19l-8 31q-4 22 17 30q21 3 29 -17
l21 -78l73 -42v84l-57 57q-14 17 0 34q17 14 34 0l23 -23v38q2 22 24 24q22 -2 24 -24v-38l23 23q17 14 34 0q14 -17 0 -34l-57 -57v-84l73 42l21 78q8 20 29 17q10 -3 15 -12q5 -8 2 -18l-8 -31l33 19q20 9 33 -9q9 -20 -9 -33l-33 -19l31 -8q21 -8 17 -30q-7 -20 -29 -17
l-78 21l-73 -41l73 -42l78 20q21 4 29 -17v0z" />
    <glyph glyph-name="snowflake" unicode="&#x2746;" 
d="M484 154q3 -10 -2 -19q-5 -8 -15 -11l-31 -8l33 -19q18 -13 9 -33q-13 -18 -33 -9l-33 19l8 -31q4 -22 -17 -30q-21 -3 -29 17l-21 78l-73 42v-84l57 -57q14 -17 0 -34q-7 -7 -17 -7t-17 7l-23 23v-38q-2 -22 -24 -24q-22 2 -24 24v38l-23 -23q-17 -14 -34 0q-14 17 0 34
l57 57v84l-73 -42l-21 -78q-8 -20 -29 -17q-21 8 -17 30l8 31l-33 -19q-20 -9 -33 9q-9 20 9 33l33 19l-31 8q-21 8 -17 30q7 20 29 17l78 -21l73 43l-73 41l-78 -21q-22 -3 -29 17q-4 22 17 30l31 8l-33 19q-18 13 -9 33q13 18 33 9l33 -19l-8 31q-4 22 17 30q21 3 29 -17
l21 -78l73 -42v84l-57 57q-14 17 0 34q17 14 34 0l23 -23v38q2 22 24 24q22 -2 24 -24v-38l23 23q17 14 34 0q14 -17 0 -34l-57 -57v-84l73 42l21 78q8 20 29 17q10 -3 15 -12q5 -8 2 -18l-8 -31l33 19q20 9 33 -9q9 -20 -9 -33l-33 -19l31 -8q21 -8 17 -30q-7 -20 -29 -17
l-78 21l-73 -41l73 -42l78 20q21 4 29 -17v0z" />
    <glyph glyph-name="snowflake" unicode="&#x2744;" 
d="M484 154q3 -10 -2 -19q-5 -8 -15 -11l-31 -8l33 -19q18 -13 9 -33q-13 -18 -33 -9l-33 19l8 -31q4 -22 -17 -30q-21 -3 -29 17l-21 78l-73 42v-84l57 -57q14 -17 0 -34q-7 -7 -17 -7t-17 7l-23 23v-38q-2 -22 -24 -24q-22 2 -24 24v38l-23 -23q-17 -14 -34 0q-14 17 0 34
l57 57v84l-73 -42l-21 -78q-8 -20 -29 -17q-21 8 -17 30l8 31l-33 -19q-20 -9 -33 9q-9 20 9 33l33 19l-31 8q-21 8 -17 30q7 20 29 17l78 -21l73 43l-73 41l-78 -21q-22 -3 -29 17q-4 22 17 30l31 8l-33 19q-18 13 -9 33q13 18 33 9l33 -19l-8 31q-4 22 17 30q21 3 29 -17
l21 -78l73 -42v84l-57 57q-14 17 0 34q17 14 34 0l23 -23v38q2 22 24 24q22 -2 24 -24v-38l23 23q17 14 34 0q14 -17 0 -34l-57 -57v-84l73 42l21 78q8 20 29 17q10 -3 15 -12q5 -8 2 -18l-8 -31l33 19q20 9 33 -9q9 -20 -9 -33l-33 -19l31 -8q21 -8 17 -30q-7 -20 -29 -17
l-78 21l-73 -41l73 -42l78 20q21 4 29 -17v0z" />
    <glyph glyph-name="square-full" unicode="&#x1f7eb;" 
d="M464 400v-416h-416v416h416v0zM512 448h-512v-512h512v512v0z" />
    <glyph glyph-name="square-full" unicode="&#x1f7ea;" 
d="M464 400v-416h-416v416h416v0zM512 448h-512v-512h512v512v0z" />
    <glyph glyph-name="square-full" unicode="&#x1f7e9;" 
d="M464 400v-416h-416v416h416v0zM512 448h-512v-512h512v512v0z" />
    <glyph glyph-name="square-full" unicode="&#x1f7e8;" 
d="M464 400v-416h-416v416h416v0zM512 448h-512v-512h512v512v0z" />
    <glyph glyph-name="square-full" unicode="&#x1f7e7;" 
d="M464 400v-416h-416v416h416v0zM512 448h-512v-512h512v512v0z" />
    <glyph glyph-name="square-full" unicode="&#x1f7e6;" 
d="M464 400v-416h-416v416h416v0zM512 448h-512v-512h512v512v0z" />
    <glyph glyph-name="square-full" unicode="&#x1f7e5;" 
d="M464 400v-416h-416v416h416v0zM512 448h-512v-512h512v512v0z" />
    <glyph glyph-name="square-full" unicode="&#xf45c;" 
d="M464 400v-416h-416v416h416v0zM512 448h-512v-512h512v512v0z" />
    <glyph glyph-name="square-full" unicode="&#x2b1c;" 
d="M464 400v-416h-416v416h416v0zM512 448h-512v-512h512v512v0z" />
    <glyph glyph-name="square-full" unicode="&#x2b1b;" 
d="M464 400v-416h-416v416h416v0zM512 448h-512v-512h512v512v0z" />
    <glyph glyph-name="star" unicode="&#xf006;" horiz-adv-x="576" 
d="M529 276l-147 22l-65 132q-10 18 -30 18q-17 0 -28 -18l-65 -132l-147 -22q-20 -4 -25 -21q-6 -18 8 -33l106 -102l-25 -147q-3 -16 7 -26q10 -11 24 -11q8 0 15 4l131 68l131 -68q7 -4 15 -4q14 0 24 11q10 10 7 26l-25 146l106 102q14 16 8 34q-5 17 -25 21v0zM390 127
l23 -130l-118 62q-7 3 -14 0l-118 -62l23 130q0 9 -5 15l-94 92l130 19q9 1 12 8l59 119l59 -118q3 -8 12 -9l131 -19l-95 -92q-6 -6 -5 -15v0z" />
    <glyph glyph-name="star" unicode="&#xf005;" horiz-adv-x="576" 
d="M529 276l-147 22l-65 132q-10 18 -30 18q-17 0 -28 -18l-65 -132l-147 -22q-20 -4 -25 -21q-6 -18 8 -33l106 -102l-25 -147q-3 -16 7 -26q10 -11 24 -11q8 0 15 4l131 68l131 -68q7 -4 15 -4q14 0 24 11q10 10 7 26l-25 146l106 102q14 16 8 34q-5 17 -25 21v0zM390 127
l23 -130l-118 62q-7 3 -14 0l-118 -62l23 130q0 9 -5 15l-94 92l130 19q9 1 12 8l59 119l59 -118q3 -8 12 -9l131 -19l-95 -92q-6 -6 -5 -15v0z" />
    <glyph glyph-name="star" unicode="&#x2b50;" horiz-adv-x="576" 
d="M529 276l-147 22l-65 132q-10 18 -30 18q-17 0 -28 -18l-65 -132l-147 -22q-20 -4 -25 -21q-6 -18 8 -33l106 -102l-25 -147q-3 -16 7 -26q10 -11 24 -11q8 0 15 4l131 68l131 -68q7 -4 15 -4q14 0 24 11q10 10 7 26l-25 146l106 102q14 16 8 34q-5 17 -25 21v0zM390 127
l23 -130l-118 62q-7 3 -14 0l-118 -62l23 130q0 9 -5 15l-94 92l130 19q9 1 12 8l59 119l59 -118q3 -8 12 -9l131 -19l-95 -92q-6 -6 -5 -15v0z" />
    <glyph glyph-name="user" unicode="&#x1f464;" horiz-adv-x="448" 
d="M272 144h-96q-75 -2 -124 -52q-50 -49 -52 -124q0 -14 9 -23t23 -9h384q14 0 23 9t9 23q-2 75 -52 124q-49 50 -124 52v0zM49 -16q7 48 42 80v0q35 31 85 32h96q50 -1 85 -32q35 -32 42 -80h-350v0zM224 192q54 1 91 37v0q36 37 37 91q-1 54 -37 91q-37 36 -91 37
q-54 -1 -91 -37q-36 -37 -37 -91q1 -54 37 -91q37 -36 91 -37v0zM224 400q34 -1 57 -23v0q22 -23 23 -57q-1 -34 -23 -57q-23 -22 -57 -23q-34 1 -57 23q-22 23 -23 57q1 34 23 57q23 22 57 23v0z" />
    <glyph glyph-name="user" unicode="&#xf2c0;" horiz-adv-x="448" 
d="M272 144h-96q-75 -2 -124 -52q-50 -49 -52 -124q0 -14 9 -23t23 -9h384q14 0 23 9t9 23q-2 75 -52 124q-49 50 -124 52v0zM49 -16q7 48 42 80v0q35 31 85 32h96q50 -1 85 -32q35 -32 42 -80h-350v0zM224 192q54 1 91 37v0q36 37 37 91q-1 54 -37 91q-37 36 -91 37
q-54 -1 -91 -37q-36 -37 -37 -91q1 -54 37 -91q37 -36 91 -37v0zM224 400q34 -1 57 -23v0q22 -23 23 -57q-1 -34 -23 -57q-23 -22 -57 -23q-34 1 -57 23q-22 23 -23 57q1 34 23 57q23 22 57 23v0z" />
    <glyph glyph-name="user" unicode="&#xf007;" horiz-adv-x="448" 
d="M272 144h-96q-75 -2 -124 -52q-50 -49 -52 -124q0 -14 9 -23t23 -9h384q14 0 23 9t9 23q-2 75 -52 124q-49 50 -124 52v0zM49 -16q7 48 42 80v0q35 31 85 32h96q50 -1 85 -32q35 -32 42 -80h-350v0zM224 192q54 1 91 37v0q36 37 37 91q-1 54 -37 91q-37 36 -91 37
q-54 -1 -91 -37q-36 -37 -37 -91q1 -54 37 -91q37 -36 91 -37v0zM224 400q34 -1 57 -23v0q22 -23 23 -57q-1 -34 -23 -57q-23 -22 -57 -23q-34 1 -57 23q-22 23 -23 57q1 34 23 57q23 22 57 23v0z" />
    <glyph glyph-name="trash-can" unicode="&#xf2ed;" horiz-adv-x="448" 
d="M432 368h-82l-34 57q-15 22 -41 23h-102q-26 -1 -41 -23l-34 -57h-82q-15 -1 -16 -16v-16q1 -15 16 -16h16v-320q1 -27 19 -45t45 -19h256q27 1 45 19t19 45v320h16q15 1 16 16v16q-1 15 -16 16v0zM172 397q2 3 5 3h94q3 0 5 -3l18 -29h-140l18 29v0zM352 -16h-256
q-15 1 -16 16v320h288v-320q-1 -15 -16 -16v0zM224 32q15 1 16 16v208q-1 15 -16 16q-15 -1 -16 -16v-208q1 -15 16 -16v0zM144 32q15 1 16 16v208q-1 15 -16 16q-15 -1 -16 -16v-208q1 -15 16 -16v0zM304 32q15 1 16 16v208q-1 15 -16 16q-15 -1 -16 -16v-208q1 -15 16 -16
v0z" />
    <glyph glyph-name="trash-can" unicode="&#xf014;" horiz-adv-x="448" 
d="M432 368h-82l-34 57q-15 22 -41 23h-102q-26 -1 -41 -23l-34 -57h-82q-15 -1 -16 -16v-16q1 -15 16 -16h16v-320q1 -27 19 -45t45 -19h256q27 1 45 19t19 45v320h16q15 1 16 16v16q-1 15 -16 16v0zM172 397q2 3 5 3h94q3 0 5 -3l18 -29h-140l18 29v0zM352 -16h-256
q-15 1 -16 16v320h288v-320q-1 -15 -16 -16v0zM224 32q15 1 16 16v208q-1 15 -16 16q-15 -1 -16 -16v-208q1 -15 16 -16v0zM144 32q15 1 16 16v208q-1 15 -16 16q-15 -1 -16 -16v-208q1 -15 16 -16v0zM304 32q15 1 16 16v208q-1 15 -16 16q-15 -1 -16 -16v-208q1 -15 16 -16
v0z" />
    <glyph glyph-name="file" unicode="&#x1f5cb;" horiz-adv-x="384" 
d="M365 355l-74 74q-19 19 -46 19h-181q-27 -1 -45 -19t-19 -45v-384q1 -27 19 -45t45 -19h256q27 1 45 19t19 45v309q0 27 -19 46v0zM320 -16h-256q-14 2 -16 15v385q1 14 16 16h160v-80q0 -14 9 -23t23 -9h79v-288q0 -15 -15 -16v0z" />
    <glyph glyph-name="file" unicode="&#x1f4c4;" horiz-adv-x="384" 
d="M365 355l-74 74q-19 19 -46 19h-181q-27 -1 -45 -19t-19 -45v-384q1 -27 19 -45t45 -19h256q27 1 45 19t19 45v309q0 27 -19 46v0zM320 -16h-256q-14 2 -16 15v385q1 14 16 16h160v-80q0 -14 9 -23t23 -9h79v-288q0 -15 -15 -16v0z" />
    <glyph glyph-name="file" unicode="&#xf15b;" horiz-adv-x="384" 
d="M365 355l-74 74q-19 19 -46 19h-181q-27 -1 -45 -19t-19 -45v-384q1 -27 19 -45t45 -19h256q27 1 45 19t19 45v309q0 27 -19 46v0zM320 -16h-256q-14 2 -16 15v385q1 14 16 16h160v-80q0 -14 9 -23t23 -9h79v-288q0 -15 -15 -16v0z" />
    <glyph glyph-name="file" unicode="&#xf016;" horiz-adv-x="384" 
d="M365 355l-74 74q-19 19 -46 19h-181q-27 -1 -45 -19t-19 -45v-384q1 -27 19 -45t45 -19h256q27 1 45 19t19 45v309q0 27 -19 46v0zM320 -16h-256q-14 2 -16 15v385q1 14 16 16h160v-80q0 -14 9 -23t23 -9h79v-288q0 -15 -15 -16v0z" />
    <glyph glyph-name="clock" unicode="&#x1f553;" 
d="M232 328q2 22 24 24q22 -2 24 -24v-123l85 -57q18 -14 6 -33q-13 -18 -32 -6l-96 64q-11 6 -11 20v135v0zM256 448q72 -1 129 -35v0q58 -34 92 -92v0q34 -57 35 -129q-1 -72 -35 -129q-34 -58 -92 -92q-57 -34 -129 -35q-72 1 -129 35q-58 34 -92 92q-34 57 -35 129
q1 72 35 129q34 58 92 92q57 34 129 35v0zM48 192q2 -88 61 -147v0q59 -59 147 -61q88 2 147 61t61 147q-2 88 -61 147t-147 61q-88 -2 -147 -61t-61 -147v0z" />
    <glyph glyph-name="clock" unicode="&#xf017;" 
d="M232 328q2 22 24 24q22 -2 24 -24v-123l85 -57q18 -14 6 -33q-13 -18 -32 -6l-96 64q-11 6 -11 20v135v0zM256 448q72 -1 129 -35v0q58 -34 92 -92v0q34 -57 35 -129q-1 -72 -35 -129q-34 -58 -92 -92q-57 -34 -129 -35q-72 1 -129 35q-58 34 -92 92q-34 57 -35 129
q1 72 35 129q34 58 92 92q57 34 129 35v0zM48 192q2 -88 61 -147v0q59 -59 147 -61q88 2 147 61t61 147q-2 88 -61 147t-147 61q-88 -2 -147 -61t-61 -147v0z" />
    <glyph glyph-name="circle-down" unicode="&#xf358;" 
d="M344 208h-56l-1 88q-2 22 -24 24h-16q-10 0 -17 -7t-7 -17l1 -88h-56q-15 -1 -22 -14q-6 -15 4 -26l89 -96q7 -8 18 -8t18 8l87 96q10 12 4 26q-7 13 -22 14v0zM256 448q-72 -1 -129 -35v0q-58 -34 -92 -92v0q-34 -57 -35 -129q1 -72 35 -129q34 -58 92 -92
q57 -34 129 -35q72 1 129 35q58 34 92 92q34 57 35 129q-1 72 -35 129q-34 58 -92 92q-57 34 -129 35v0zM256 -16q-88 2 -147 61v0q-59 59 -61 147q2 88 61 147t147 61q88 -2 147 -61t61 -147q-2 -88 -61 -147t-147 -61v0z" />
    <glyph glyph-name="circle-down" unicode="&#xf01a;" 
d="M344 208h-56l-1 88q-2 22 -24 24h-16q-10 0 -17 -7t-7 -17l1 -88h-56q-15 -1 -22 -14q-6 -15 4 -26l89 -96q7 -8 18 -8t18 8l87 96q10 12 4 26q-7 13 -22 14v0zM256 448q-72 -1 -129 -35v0q-58 -34 -92 -92v0q-34 -57 -35 -129q1 -72 35 -129q34 -58 92 -92
q57 -34 129 -35q72 1 129 35q58 34 92 92q34 57 35 129q-1 72 -35 129q-34 58 -92 92q-57 34 -129 35v0zM256 -16q-88 2 -147 61v0q-59 59 -61 147q2 88 61 147t147 61q88 -2 147 -61t61 -147q-2 -88 -61 -147t-147 -61v0z" />
    <glyph glyph-name="circle-up" unicode="&#xf35b;" 
d="M273 312q-7 8 -18 8q-12 0 -17 -8l-88 -96q-10 -12 -4 -26q7 -13 21 -14h56l1 -88q2 -22 24 -24h16q21 2 23 24v88h56q15 1 22 14q6 15 -4 26l-88 96v0zM256 448q-72 -1 -129 -35v0q-58 -34 -92 -92v0q-34 -57 -35 -129q1 -72 35 -129q34 -58 92 -92q57 -34 129 -35
q72 1 129 35q58 34 92 92q34 57 35 129q-1 72 -35 129q-34 58 -92 92q-57 34 -129 35v0zM256 -16q-88 2 -147 61v0q-59 59 -61 147q2 88 61 147t147 61q88 -2 147 -61t61 -147q-2 -88 -61 -147t-147 -61v0z" />
    <glyph glyph-name="circle-up" unicode="&#xf01b;" 
d="M273 312q-7 8 -18 8q-12 0 -17 -8l-88 -96q-10 -12 -4 -26q7 -13 21 -14h56l1 -88q2 -22 24 -24h16q21 2 23 24v88h56q15 1 22 14q6 15 -4 26l-88 96v0zM256 448q-72 -1 -129 -35v0q-58 -34 -92 -92v0q-34 -57 -35 -129q1 -72 35 -129q34 -58 92 -92q57 -34 129 -35
q72 1 129 35q58 34 92 92q34 57 35 129q-1 72 -35 129q-34 58 -92 92q-57 34 -129 35v0zM256 -16q-88 2 -147 61v0q-59 59 -61 147q2 88 61 147t147 61q88 -2 147 -61t61 -147q-2 -88 -61 -147t-147 -61v0z" />
    <glyph glyph-name="circle-play" unicode="&#xf144;" 
d="M229 300q-6 4 -13 4q-22 -2 -24 -24v-176q2 -22 24 -24q7 0 13 4l144 88q11 7 11 20t-11 20l-144 88v0zM256 448q-72 -1 -129 -35v0q-58 -34 -92 -92v0q-34 -57 -35 -129q1 -72 35 -129q34 -58 92 -92q57 -34 129 -35q72 1 129 35q58 34 92 92q34 57 35 129
q-1 72 -35 129q-34 58 -92 92q-57 34 -129 35v0zM256 -16q-88 2 -147 61v0q-59 59 -61 147q2 88 61 147t147 61q88 -2 147 -61t61 -147q-2 -88 -61 -147t-147 -61v0z" />
    <glyph glyph-name="circle-play" unicode="&#xf01d;" 
d="M229 300q-6 4 -13 4q-22 -2 -24 -24v-176q2 -22 24 -24q7 0 13 4l144 88q11 7 11 20t-11 20l-144 88v0zM256 448q-72 -1 -129 -35v0q-58 -34 -92 -92v0q-34 -57 -35 -129q1 -72 35 -129q34 -58 92 -92q57 -34 129 -35q72 1 129 35q58 34 92 92q34 57 35 129
q-1 72 -35 129q-34 58 -92 92q-57 34 -129 35v0zM256 -16q-88 2 -147 61v0q-59 59 -61 147q2 88 61 147t147 61q88 -2 147 -61t61 -147q-2 -88 -61 -147t-147 -61v0z" />
    <glyph glyph-name="rectangle-list" unicode="&#xf022;" horiz-adv-x="576" 
d="M512 416h-448q-27 -1 -45 -19t-19 -45v-320q1 -27 19 -45t45 -19h448q27 1 45 19t19 45v320q-1 27 -19 45t-45 19v0zM528 32q-1 -15 -16 -16h-448q-15 1 -16 16v320q1 15 16 16h448q15 -1 16 -16v-320v0zM128 320q-14 0 -23 -9v0q-9 -9 -9 -23t9 -23t23 -9t23 9t9 23
t-9 23t-23 9v0zM128 224q-14 0 -23 -9v0q-9 -9 -9 -23t9 -23t23 -9t23 9t9 23t-9 23t-23 9v0zM128 128q-14 0 -23 -9v0q-9 -9 -9 -23t9 -23t23 -9t23 9t9 23t-9 23t-23 9v0zM456 312h-241q-21 -2 -23 -24q2 -22 23 -24h241q22 2 24 24q-2 22 -24 24v0zM456 216h-241
q-21 -2 -23 -24q2 -22 23 -24h241q22 2 24 24q-2 22 -24 24v0zM456 120h-241q-21 -2 -23 -24q2 -22 23 -24h241q22 2 24 24q-2 22 -24 24v0z" />
    <glyph glyph-name="flag" unicode="&#x1f3f4;" 
d="M476 448q-9 0 -19 -4q-67 -30 -108 -28q-42 2 -76 15q-36 14 -88 17q-50 2 -137 -32v8q-2 22 -24 24q-22 -2 -24 -24v-464q2 -22 24 -24q22 2 24 24v104q79 34 133 32t99 -16q46 -14 99 -16q48 -1 112 23q20 9 21 29v301q0 15 -11 23q-10 8 -25 8v0zM464 128
q-45 -16 -85 -16q-45 2 -87 15v0v0q-48 14 -111 17q-63 0 -133 -28v248l18 7q71 29 119 29q40 -2 74 -15v0v0q37 -15 90 -17q52 0 115 26v-266v0z" />
    <glyph glyph-name="flag" unicode="&#xf11d;" 
d="M476 448q-9 0 -19 -4q-67 -30 -108 -28q-42 2 -76 15q-36 14 -88 17q-50 2 -137 -32v8q-2 22 -24 24q-22 -2 -24 -24v-464q2 -22 24 -24q22 2 24 24v104q79 34 133 32t99 -16q46 -14 99 -16q48 -1 112 23q20 9 21 29v301q0 15 -11 23q-10 8 -25 8v0zM464 128
q-45 -16 -85 -16q-45 2 -87 15v0v0q-48 14 -111 17q-63 0 -133 -28v248l18 7q71 29 119 29q40 -2 74 -15v0v0q37 -15 90 -17q52 0 115 26v-266v0z" />
    <glyph glyph-name="flag" unicode="&#xf024;" 
d="M476 448q-9 0 -19 -4q-67 -30 -108 -28q-42 2 -76 15q-36 14 -88 17q-50 2 -137 -32v8q-2 22 -24 24q-22 -2 -24 -24v-464q2 -22 24 -24q22 2 24 24v104q79 34 133 32t99 -16q46 -14 99 -16q48 -1 112 23q20 9 21 29v301q0 15 -11 23q-10 8 -25 8v0zM464 128
q-45 -16 -85 -16q-45 2 -87 15v0v0q-48 14 -111 17q-63 0 -133 -28v248l18 7q71 29 119 29q40 -2 74 -15v0v0q37 -15 90 -17q52 0 115 26v-266v0z" />
    <glyph glyph-name="bookmark" unicode="&#x1f516;" horiz-adv-x="384" 
d="M336 448h-288q-20 -1 -34 -14q-13 -14 -14 -34v-432q1 -19 16 -28q15 -8 32 0l144 84l144 -84q17 -8 32 1q15 8 16 27v432q-1 20 -14 34q-14 13 -34 14v0zM336 -4l-144 84l-144 -84v398q1 6 5 6h276q7 0 7 -6v-398v0z" />
    <glyph glyph-name="bookmark" unicode="&#xf097;" horiz-adv-x="384" 
d="M336 448h-288q-20 -1 -34 -14q-13 -14 -14 -34v-432q1 -19 16 -28q15 -8 32 0l144 84l144 -84q17 -8 32 1q15 8 16 27v432q-1 20 -14 34q-14 13 -34 14v0zM336 -4l-144 84l-144 -84v398q1 6 5 6h276q7 0 7 -6v-398v0z" />
    <glyph glyph-name="bookmark" unicode="&#xf02e;" horiz-adv-x="384" 
d="M336 448h-288q-20 -1 -34 -14q-13 -14 -14 -34v-432q1 -19 16 -28q15 -8 32 0l144 84l144 -84q17 -8 32 1q15 8 16 27v432q-1 20 -14 34q-14 13 -34 14v0zM336 -4l-144 84l-144 -84v398q1 6 5 6h276q7 0 7 -6v-398v0z" />
    <glyph glyph-name="image" unicode="&#xf03e;" 
d="M152 328q-20 -1 -34 -14v0q-13 -14 -14 -34q1 -20 14 -34q14 -13 34 -14q20 1 34 14q13 14 14 34q-1 20 -14 34q-14 13 -34 14v0zM447 416h-384q-26 -1 -44 -19t-19 -45v-320q1 -27 19 -45t44 -19h384q27 1 45 19t19 45v320q-1 27 -18 45q-18 18 -46 19v0zM463 39
l-137 186q-4 7 -14 7t-15 -7l-107 -144l-37 46q-5 6 -15 6q-9 0 -14 -6l-76 -94v0v0v319q1 15 16 16h384q15 -1 16 -16v-313h-1z" />
    <glyph glyph-name="pen-to-square" unicode="&#xf044;" 
d="M496 399l-33 33q-17 16 -40 16q-22 0 -39 -16l-216 -217q-13 -11 -16 -27l-24 -107q0 -15 13 -17h3q1 0 20 5l45 9q25 6 42 10q16 4 27 15l217 217q17 17 17 39q0 23 -16 40v0zM462 354l-217 -217q-2 -2 -4 -2q-22 -6 -54 -13l12 56q1 2 2 3l217 217q3 2 5 2q3 0 6 -2
l33 -33q4 -6 0 -11v0zM424 160q-22 -2 -24 -24v-128q-2 -22 -24 -24h-304q-22 2 -24 24v304q2 22 24 24h144q22 2 24 24q-2 22 -24 24h-145q-30 -1 -50 -21t-21 -50v-304q1 -31 21 -52q20 -20 50 -21h303q31 1 51 21t20 51l3 128q-2 22 -24 24v0z" />
    <glyph glyph-name="share-from-square" unicode="&#xf14d;" horiz-adv-x="576" 
d="M569 305l-144 135q-18 14 -34 0q-14 -18 1 -34l100 -95h-164q-62 2 -107 -42q-44 -45 -45 -109v-87q2 -22 24 -23q22 1 24 22v88q1 44 31 74q29 30 73 30h164l-100 -95q-15 -16 -1 -33q7 -7 17 -8q9 0 16 7l144 135q8 8 8 18t-7 17v0zM360 64q-22 -2 -24 -23v-47
q-1 -7 -8 -7h-272q-7 1 -8 7v270q1 7 8 7h56q22 2 24 23q-2 21 -24 23h-56q-24 0 -40 -16q-15 -16 -16 -39v-271q1 -23 16 -39q16 -15 40 -16h272q24 1 40 16q15 16 16 39v47q-2 24 -24 26v0z" />
    <glyph glyph-name="share-from-square" unicode="&#xf045;" horiz-adv-x="576" 
d="M569 305l-144 135q-18 14 -34 0q-14 -18 1 -34l100 -95h-164q-62 2 -107 -42q-44 -45 -45 -109v-87q2 -22 24 -23q22 1 24 22v88q1 44 31 74q29 30 73 30h164l-100 -95q-15 -16 -1 -33q7 -7 17 -8q9 0 16 7l144 135q8 8 8 18t-7 17v0zM360 64q-22 -2 -24 -23v-47
q-1 -7 -8 -7h-272q-7 1 -8 7v270q1 7 8 7h56q22 2 24 23q-2 21 -24 23h-56q-24 0 -40 -16q-15 -16 -16 -39v-271q1 -23 16 -39q16 -15 40 -16h272q24 1 40 16q15 16 16 39v47q-2 24 -24 26v0z" />
    <glyph glyph-name="circle-xmark" unicode="&#xf05c;" 
d="M336 273q-17 14 -34 0l-46 -47l-48 47q-17 14 -34 0q-14 -17 0 -34l47 -47l-46 -47q-14 -17 0 -34q17 -14 34 0l47 47l47 -47q17 -14 34 0q14 17 0 34l-47 47l47 47q14 17 -1 34v0zM256 448q-72 -1 -129 -35v0q-58 -34 -92 -92v0q-34 -57 -35 -129q1 -72 35 -129
q34 -58 92 -92q57 -34 129 -35q72 1 129 35q58 34 92 92q34 57 35 129q-1 72 -35 129q-34 58 -92 92q-57 34 -129 35v0zM256 -16q-88 2 -147 61v0q-59 59 -61 147q2 88 61 147t147 61q88 -2 147 -61t61 -147q-2 -88 -61 -147t-147 -61v0z" />
    <glyph glyph-name="circle-xmark" unicode="&#xf057;" 
d="M336 273q-17 14 -34 0l-46 -47l-48 47q-17 14 -34 0q-14 -17 0 -34l47 -47l-46 -47q-14 -17 0 -34q17 -14 34 0l47 47l47 -47q17 -14 34 0q14 17 0 34l-47 47l47 47q14 17 -1 34v0zM256 448q-72 -1 -129 -35v0q-58 -34 -92 -92v0q-34 -57 -35 -129q1 -72 35 -129
q34 -58 92 -92q57 -34 129 -35q72 1 129 35q58 34 92 92q34 57 35 129q-1 72 -35 129q-34 58 -92 92q-57 34 -129 35v0zM256 -16q-88 2 -147 61v0q-59 59 -61 147q2 88 61 147t147 61q88 -2 147 -61t61 -147q-2 -88 -61 -147t-147 -61v0z" />
    <glyph glyph-name="circle-check" unicode="&#xf05d;" 
d="M335 273l-111 -111l-48 47q-17 14 -34 0q-14 -17 0 -34l64 -64q9 -7 18 -7q10 0 17 7l128 128q14 17 0 34q-17 14 -34 0v0zM256 448q-72 -1 -129 -35v0q-58 -34 -92 -92v0q-34 -57 -35 -129q1 -72 35 -129q34 -58 92 -92q57 -34 129 -35q72 1 129 35q58 34 92 92
q34 57 35 129q-1 72 -35 129q-34 58 -92 92q-57 34 -129 35v0zM256 -16q-88 2 -147 61v0q-59 59 -61 147q2 88 61 147t147 61q88 -2 147 -61t61 -147q-2 -88 -61 -147t-147 -61v0z" />
    <glyph glyph-name="circle-check" unicode="&#xf058;" 
d="M335 273l-111 -111l-48 47q-17 14 -34 0q-14 -17 0 -34l64 -64q9 -7 18 -7q10 0 17 7l128 128q14 17 0 34q-17 14 -34 0v0zM256 448q-72 -1 -129 -35v0q-58 -34 -92 -92v0q-34 -57 -35 -129q1 -72 35 -129q34 -58 92 -92q57 -34 129 -35q72 1 129 35q58 34 92 92
q34 57 35 129q-1 72 -35 129q-34 58 -92 92q-57 34 -129 35v0zM256 -16q-88 2 -147 61v0q-59 59 -61 147q2 88 61 147t147 61q88 -2 147 -61t61 -147q-2 -88 -61 -147t-147 -61v0z" />
    <glyph glyph-name="circle-question" unicode="&#xf29c;" 
d="M256 448q-72 -1 -129 -35v0q-58 -34 -92 -92v0q-34 -57 -35 -129q1 -72 35 -129q34 -58 92 -92q57 -34 129 -35q72 1 129 35q58 34 92 92q34 57 35 129q-1 72 -35 129q-34 58 -92 92q-57 34 -129 35v0zM256 -16q-88 2 -147 61v0q-59 59 -61 147q2 88 61 147t147 61
q88 -2 147 -61t61 -147q-2 -88 -61 -147t-147 -61v0zM256 112q-14 0 -23 -9v0q-9 -9 -9 -23q2 -30 32 -32q13 0 22 9q10 9 10 23t-10 23q-9 9 -22 9v0zM289 320h-51q-30 -1 -50 -20q-19 -20 -20 -50q2 -22 24 -24q22 2 24 24q2 20 21 22h51q22 -2 24 -22q0 -12 -11 -18
l-57 -35q-12 -8 -12 -21v-16q2 -22 24 -24q22 2 24 24v2l45 28q33 22 34 60q0 30 -20 50q-19 19 -50 20v0z" />
    <glyph glyph-name="circle-question" unicode="&#xf059;" 
d="M256 448q-72 -1 -129 -35v0q-58 -34 -92 -92v0q-34 -57 -35 -129q1 -72 35 -129q34 -58 92 -92q57 -34 129 -35q72 1 129 35q58 34 92 92q34 57 35 129q-1 72 -35 129q-34 58 -92 92q-57 34 -129 35v0zM256 -16q-88 2 -147 61v0q-59 59 -61 147q2 88 61 147t147 61
q88 -2 147 -61t61 -147q-2 -88 -61 -147t-147 -61v0zM256 112q-14 0 -23 -9v0q-9 -9 -9 -23q2 -30 32 -32q13 0 22 9q10 9 10 23t-10 23q-9 9 -22 9v0zM289 320h-51q-30 -1 -50 -20q-19 -20 -20 -50q2 -22 24 -24q22 2 24 24q2 20 21 22h51q22 -2 24 -22q0 -12 -11 -18
l-57 -35q-12 -8 -12 -21v-16q2 -22 24 -24q22 2 24 24v2l45 28q33 22 34 60q0 30 -20 50q-19 19 -50 20v0z" />
    <glyph glyph-name="eye" unicode="&#x1f441;" horiz-adv-x="576" 
d="M573 210q-42 93 -117 149v0q-75 56 -168 57q-93 -1 -168 -57t-117 -149q-3 -9 -3 -18t3 -17q42 -94 117 -150t168 -57q93 1 168 57t117 149q3 10 3 18q0 9 -3 18v0zM288 16q-76 1 -139 47v0q-63 47 -101 128q38 83 101 130q63 46 139 47q76 -1 139 -47q63 -47 101 -128
q-39 -83 -101 -130q-63 -46 -139 -47v0zM288 320q-54 -1 -91 -37v0q-36 -37 -37 -91q1 -54 37 -91q37 -36 91 -37q54 1 90 37q37 37 38 91q-1 54 -37 90q-37 37 -91 38v0zM288 112q-34 1 -57 23v0q-22 23 -23 57v1v1q8 -2 16 -2q27 1 45 19t19 45q0 8 -2 16h1h1
q34 -1 57 -23q22 -23 23 -57q-1 -34 -23 -57q-23 -22 -57 -23v0z" />
    <glyph glyph-name="eye" unicode="&#xf06e;" horiz-adv-x="576" 
d="M573 210q-42 93 -117 149v0q-75 56 -168 57q-93 -1 -168 -57t-117 -149q-3 -9 -3 -18t3 -17q42 -94 117 -150t168 -57q93 1 168 57t117 149q3 10 3 18q0 9 -3 18v0zM288 16q-76 1 -139 47v0q-63 47 -101 128q38 83 101 130q63 46 139 47q76 -1 139 -47q63 -47 101 -128
q-39 -83 -101 -130q-63 -46 -139 -47v0zM288 320q-54 -1 -91 -37v0q-36 -37 -37 -91q1 -54 37 -91q37 -36 91 -37q54 1 90 37q37 37 38 91q-1 54 -37 90q-37 37 -91 38v0zM288 112q-34 1 -57 23v0q-22 23 -23 57v1v1q8 -2 16 -2q27 1 45 19t19 45q0 8 -2 16h1h1
q34 -1 57 -23q22 -23 23 -57q-1 -34 -23 -57q-23 -22 -57 -23v0z" />
    <glyph glyph-name="eye-slash" unicode="&#xf070;" horiz-adv-x="640" 
d="M631 -21l-104 81q48 49 78 114q3 8 3 17t-3 17q-42 94 -117 149q-75 56 -168 57q-95 -1 -171 -59l-110 88q-7 5 -15 5q-11 0 -19 -9q-12 -19 4 -34l591 -463q19 -12 34 4q13 17 -3 33v0zM394 164l-81 63q5 14 6 29q0 8 -2 16h2h1q34 -1 57 -23q22 -23 23 -57
q0 -15 -6 -28v0zM433 134q14 26 15 58q-1 54 -37 90q-37 37 -91 38q-49 -1 -84 -32l-48 38q61 41 132 42q76 -1 139 -47q63 -47 101 -128q-28 -61 -71 -102l-56 43v0zM320 64q20 0 38 6l-55 44q-37 9 -54 42l-56 44q0 -1 -1 -3v-5q1 -54 37 -91q37 -36 91 -37v0zM320 16
q-76 1 -139 47v0q-63 47 -101 128q17 36 39 66l-38 31q-27 -36 -46 -79q-3 -8 -4 -17q0 -9 4 -17q41 -94 116 -149q75 -56 168 -57q69 0 128 32l-43 34q-39 -19 -84 -19v0z" />
    <glyph glyph-name="calendar-days" unicode="&#xf073;" horiz-adv-x="448" 
d="M152 384h144v40q2 22 24 24q22 -2 24 -24v-40h40q27 -1 45 -19t19 -45v-320q-1 -27 -19 -45t-45 -19h-320q-27 1 -45 19t-19 45v320q1 27 19 45t45 19h40v40q2 22 24 24q22 -2 24 -24v-40v0zM48 200h80v56h-80v-56v0zM48 152v-64h80v64h-80v0zM176 152v-64h96v64h-96v0z
M320 152v-64h80v64h-80v0zM400 256h-80v-56h80v56v0zM400 40h-80v-56h64q15 1 16 16v40v0zM272 40h-96v-56h96v56v0zM128 40h-80v-40q1 -15 16 -16h64v56v0zM272 256h-96v-56h96v56v0z" />
    <glyph glyph-name="comment" unicode="&#x1f5e9;" 
d="M256 416q-72 -1 -129 -28v0q-58 -28 -92 -75v0q-34 -47 -35 -105q2 -73 53 -126q-13 -31 -29 -51q-16 -21 -17 -22q-11 -12 -5 -26q7 -14 22 -15q46 1 81 15q35 15 58 31q43 -14 93 -14q71 1 129 28q57 28 91 75t35 105q-1 58 -35 105t-91 75q-58 27 -129 28v0zM256 48
q-40 0 -78 12l-23 7l-20 -14q-21 -16 -57 -29q11 19 20 41l10 28l-20 22q-14 14 -27 38q-12 23 -13 55q2 68 61 113t147 47q88 -2 147 -47t61 -113q-2 -68 -61 -113t-147 -47v0z" />
    <glyph glyph-name="comment" unicode="&#xf0e5;" 
d="M256 416q-72 -1 -129 -28v0q-58 -28 -92 -75v0q-34 -47 -35 -105q2 -73 53 -126q-13 -31 -29 -51q-16 -21 -17 -22q-11 -12 -5 -26q7 -14 22 -15q46 1 81 15q35 15 58 31q43 -14 93 -14q71 1 129 28q57 28 91 75t35 105q-1 58 -35 105t-91 75q-58 27 -129 28v0zM256 48
q-40 0 -78 12l-23 7l-20 -14q-21 -16 -57 -29q11 19 20 41l10 28l-20 22q-14 14 -27 38q-12 23 -13 55q2 68 61 113t147 47q88 -2 147 -47t61 -113q-2 -68 -61 -113t-147 -47v0z" />
    <glyph glyph-name="comment" unicode="&#xf075;" 
d="M256 416q-72 -1 -129 -28v0q-58 -28 -92 -75v0q-34 -47 -35 -105q2 -73 53 -126q-13 -31 -29 -51q-16 -21 -17 -22q-11 -12 -5 -26q7 -14 22 -15q46 1 81 15q35 15 58 31q43 -14 93 -14q71 1 129 28q57 28 91 75t35 105q-1 58 -35 105t-91 75q-58 27 -129 28v0zM256 48
q-40 0 -78 12l-23 7l-20 -14q-21 -16 -57 -29q11 19 20 41l10 28l-20 22q-14 14 -27 38q-12 23 -13 55q2 68 61 113t147 47q88 -2 147 -47t61 -113q-2 -68 -61 -113t-147 -47v0z" />
    <glyph glyph-name="folder" unicode="&#x1f5bf;" 
d="M448 352h-172l-49 45q-19 19 -45 19h-118q-27 -1 -45 -19t-19 -45v-320q1 -27 19 -45t45 -19h384q27 1 45 19t19 45v256q-1 27 -19 45t-45 19v0zM64 368h118q6 0 11 -5l63 -59h192q15 -1 16 -16v-32h-416v96q1 15 16 16v0zM448 16h-384q-15 1 -16 16v176h416v-176
q-1 -15 -16 -16v0z" />
    <glyph glyph-name="folder" unicode="&#x1f4c1;" 
d="M448 352h-172l-49 45q-19 19 -45 19h-118q-27 -1 -45 -19t-19 -45v-320q1 -27 19 -45t45 -19h384q27 1 45 19t19 45v256q-1 27 -19 45t-45 19v0zM64 368h118q6 0 11 -5l63 -59h192q15 -1 16 -16v-32h-416v96q1 15 16 16v0zM448 16h-384q-15 1 -16 16v176h416v-176
q-1 -15 -16 -16v0z" />
    <glyph glyph-name="folder" unicode="&#xf114;" 
d="M448 352h-172l-49 45q-19 19 -45 19h-118q-27 -1 -45 -19t-19 -45v-320q1 -27 19 -45t45 -19h384q27 1 45 19t19 45v256q-1 27 -19 45t-45 19v0zM64 368h118q6 0 11 -5l63 -59h192q15 -1 16 -16v-32h-416v96q1 15 16 16v0zM448 16h-384q-15 1 -16 16v176h416v-176
q-1 -15 -16 -16v0z" />
    <glyph glyph-name="folder" unicode="&#xf07b;" 
d="M448 352h-172l-49 45q-19 19 -45 19h-118q-27 -1 -45 -19t-19 -45v-320q1 -27 19 -45t45 -19h384q27 1 45 19t19 45v256q-1 27 -19 45t-45 19v0zM64 368h118q6 0 11 -5l63 -59h192q15 -1 16 -16v-32h-416v96q1 15 16 16v0zM448 16h-384q-15 1 -16 16v176h416v-176
q-1 -15 -16 -16v0z" />
    <glyph glyph-name="folder-open" unicode="&#x1f5c1;" horiz-adv-x="576" 
d="M573 178l-96 -192q-9 -17 -30 -18h-383q-27 1 -45 19t-19 45v320q1 27 19 45t45 19h118q26 0 45 -19l49 -45h140q27 -1 45 -19t19 -45v-32h-48v32q-1 15 -16 16h-160l-63 59q-5 5 -11 5h-118q-15 -1 -16 -16v-288l71 142q9 17 29 18h396q18 -1 27 -15t2 -31v0z" />
    <glyph glyph-name="folder-open" unicode="&#x1f4c2;" horiz-adv-x="576" 
d="M573 178l-96 -192q-9 -17 -30 -18h-383q-27 1 -45 19t-19 45v320q1 27 19 45t45 19h118q26 0 45 -19l49 -45h140q27 -1 45 -19t19 -45v-32h-48v32q-1 15 -16 16h-160l-63 59q-5 5 -11 5h-118q-15 -1 -16 -16v-288l71 142q9 17 29 18h396q18 -1 27 -15t2 -31v0z" />
    <glyph glyph-name="folder-open" unicode="&#xf115;" horiz-adv-x="576" 
d="M573 178l-96 -192q-9 -17 -30 -18h-383q-27 1 -45 19t-19 45v320q1 27 19 45t45 19h118q26 0 45 -19l49 -45h140q27 -1 45 -19t19 -45v-32h-48v32q-1 15 -16 16h-160l-63 59q-5 5 -11 5h-118q-15 -1 -16 -16v-288l71 142q9 17 29 18h396q18 -1 27 -15t2 -31v0z" />
    <glyph glyph-name="folder-open" unicode="&#xf07c;" horiz-adv-x="576" 
d="M573 178l-96 -192q-9 -17 -30 -18h-383q-27 1 -45 19t-19 45v320q1 27 19 45t45 19h118q26 0 45 -19l49 -45h140q27 -1 45 -19t19 -45v-32h-48v32q-1 15 -16 16h-160l-63 59q-5 5 -11 5h-118q-15 -1 -16 -16v-288l71 142q9 17 29 18h396q18 -1 27 -15t2 -31v0z" />
    <glyph glyph-name="chart-bar" unicode="&#xf080;" 
d="M152 192h144q22 2 24 24q-2 22 -24 24h-144q-22 -2 -24 -24q2 -22 24 -24v0zM152 288h208q22 2 24 24q-2 22 -24 24h-208q-22 -2 -24 -24q2 -22 24 -24v0zM152 96h272q22 2 24 24q-2 22 -24 24h-272q-22 -2 -24 -24q2 -22 24 -24v0zM488 16h-440v376q-2 22 -24 24
q-22 -2 -24 -24v-392q0 -14 9 -23t23 -9h456q22 2 24 24q-2 22 -24 24v0z" />
    <glyph glyph-name="comments" unicode="&#x1f5ea;" horiz-adv-x="640" 
d="M208 448q88 -2 147 -52v0q59 -49 61 -124q-2 -75 -61 -124q-59 -50 -147 -52q-28 0 -54 6q-23 -15 -56 -26q-32 -11 -73 -12q-16 1 -23 15q-6 15 5 27q1 1 13 16q13 16 26 40q-45 46 -46 110q2 75 61 124q59 50 147 52v0zM165 150q22 -6 43 -6q68 1 113 38q45 36 47 90
q-2 54 -47 90q-45 37 -113 38q-68 -1 -113 -38q-45 -36 -47 -90q1 -26 11 -46q10 -19 22 -31l23 -25l-16 -30l-4 -8q-4 -6 -7 -13q26 8 52 25l16 9l20 -3v0zM442 320q84 -5 140 -54v0q56 -49 58 -122q-1 -64 -46 -110q13 -24 26 -40q12 -15 13 -16q11 -12 4 -27
q-6 -14 -22 -15q-41 1 -73 12q-33 11 -56 26q-26 -6 -54 -6q-62 1 -111 27q-50 27 -76 71q26 4 50 12q21 -28 57 -45t80 -17q21 0 43 6l20 3l16 -9q26 -17 53 -25q-4 6 -8 13l-4 8l-16 30l23 25q12 12 22 31q10 20 11 46q-1 51 -42 86q-40 35 -103 41l1 1q0 25 -6 48v0v0z
" />
    <glyph glyph-name="comments" unicode="&#xf0e6;" horiz-adv-x="640" 
d="M208 448q88 -2 147 -52v0q59 -49 61 -124q-2 -75 -61 -124q-59 -50 -147 -52q-28 0 -54 6q-23 -15 -56 -26q-32 -11 -73 -12q-16 1 -23 15q-6 15 5 27q1 1 13 16q13 16 26 40q-45 46 -46 110q2 75 61 124q59 50 147 52v0zM165 150q22 -6 43 -6q68 1 113 38q45 36 47 90
q-2 54 -47 90q-45 37 -113 38q-68 -1 -113 -38q-45 -36 -47 -90q1 -26 11 -46q10 -19 22 -31l23 -25l-16 -30l-4 -8q-4 -6 -7 -13q26 8 52 25l16 9l20 -3v0zM442 320q84 -5 140 -54v0q56 -49 58 -122q-1 -64 -46 -110q13 -24 26 -40q12 -15 13 -16q11 -12 4 -27
q-6 -14 -22 -15q-41 1 -73 12q-33 11 -56 26q-26 -6 -54 -6q-62 1 -111 27q-50 27 -76 71q26 4 50 12q21 -28 57 -45t80 -17q21 0 43 6l20 3l16 -9q26 -17 53 -25q-4 6 -8 13l-4 8l-16 30l23 25q12 12 22 31q10 20 11 46q-1 51 -42 86q-40 35 -103 41l1 1q0 25 -6 48v0v0z
" />
    <glyph glyph-name="comments" unicode="&#xf086;" horiz-adv-x="640" 
d="M208 448q88 -2 147 -52v0q59 -49 61 -124q-2 -75 -61 -124q-59 -50 -147 -52q-28 0 -54 6q-23 -15 -56 -26q-32 -11 -73 -12q-16 1 -23 15q-6 15 5 27q1 1 13 16q13 16 26 40q-45 46 -46 110q2 75 61 124q59 50 147 52v0zM165 150q22 -6 43 -6q68 1 113 38q45 36 47 90
q-2 54 -47 90q-45 37 -113 38q-68 -1 -113 -38q-45 -36 -47 -90q1 -26 11 -46q10 -19 22 -31l23 -25l-16 -30l-4 -8q-4 -6 -7 -13q26 8 52 25l16 9l20 -3v0zM442 320q84 -5 140 -54v0q56 -49 58 -122q-1 -64 -46 -110q13 -24 26 -40q12 -15 13 -16q11 -12 4 -27
q-6 -14 -22 -15q-41 1 -73 12q-33 11 -56 26q-26 -6 -54 -6q-62 1 -111 27q-50 27 -76 71q26 4 50 12q21 -28 57 -45t80 -17q21 0 43 6l20 3l16 -9q26 -17 53 -25q-4 6 -8 13l-4 8l-16 30l23 25q12 12 22 31q10 20 11 46q-1 51 -42 86q-40 35 -103 41l1 1q0 25 -6 48v0v0z
" />
    <glyph glyph-name="thumbs-up" unicode="&#x1f44d;" 
d="M96 257h-64q-14 0 -23 -9t-9 -22v-223q0 -14 9 -22q9 -9 23 -9h64q14 0 23 9t9 22v222q0 13 -9 22t-23 10v0zM512 221q-1 28 -20 47v0q-19 19 -47 20h-100q15 39 15 59q0 27 -19 47q-18 21 -51 22q-34 -1 -48 -19q-15 -19 -22 -40v0q-14 -34 -26 -49q-12 -16 -21 -22
q-13 -8 -13 -22q2 -22 24 -24q8 0 15 5q31 26 45 50q14 25 20 43q5 14 10 22t16 8q12 -1 17 -7q5 -7 5 -14q0 -6 -6 -26q-6 -21 -20 -45q-3 -6 -3 -12q3 -22 24 -23h138q17 -3 19 -20q-1 -16 -18 -19q-20 -3 -22 -24q1 -11 6 -16q5 -4 5 -13q-2 -16 -16 -19q-7 -2 -13 -7
q-5 -4 -6 -16q1 -8 4 -12q2 -4 3 -10q-2 -14 -14 -18q-14 -4 -16 -23q0 -3 1 -5v-4q-2 -17 -19 -19h-52q-40 0 -72 24l-37 27q-6 5 -14 5q-22 -2 -24 -24q0 -11 10 -19l36 -28q45 -32 101 -33h52q27 1 46 18q18 18 21 44q28 20 29 55q0 5 -1 9q28 20 29 55q0 8 -1 16
q29 20 30 56v0z" />
    <glyph glyph-name="thumbs-up" unicode="&#xf164;" 
d="M96 257h-64q-14 0 -23 -9t-9 -22v-223q0 -14 9 -22q9 -9 23 -9h64q14 0 23 9t9 22v222q0 13 -9 22t-23 10v0zM512 221q-1 28 -20 47v0q-19 19 -47 20h-100q15 39 15 59q0 27 -19 47q-18 21 -51 22q-34 -1 -48 -19q-15 -19 -22 -40v0q-14 -34 -26 -49q-12 -16 -21 -22
q-13 -8 -13 -22q2 -22 24 -24q8 0 15 5q31 26 45 50q14 25 20 43q5 14 10 22t16 8q12 -1 17 -7q5 -7 5 -14q0 -6 -6 -26q-6 -21 -20 -45q-3 -6 -3 -12q3 -22 24 -23h138q17 -3 19 -20q-1 -16 -18 -19q-20 -3 -22 -24q1 -11 6 -16q5 -4 5 -13q-2 -16 -16 -19q-7 -2 -13 -7
q-5 -4 -6 -16q1 -8 4 -12q2 -4 3 -10q-2 -14 -14 -18q-14 -4 -16 -23q0 -3 1 -5v-4q-2 -17 -19 -19h-52q-40 0 -72 24l-37 27q-6 5 -14 5q-22 -2 -24 -24q0 -11 10 -19l36 -28q45 -32 101 -33h52q27 1 46 18q18 18 21 44q28 20 29 55q0 5 -1 9q28 20 29 55q0 8 -1 16
q29 20 30 56v0z" />
    <glyph glyph-name="thumbs-up" unicode="&#xf087;" 
d="M96 257h-64q-14 0 -23 -9t-9 -22v-223q0 -14 9 -22q9 -9 23 -9h64q14 0 23 9t9 22v222q0 13 -9 22t-23 10v0zM512 221q-1 28 -20 47v0q-19 19 -47 20h-100q15 39 15 59q0 27 -19 47q-18 21 -51 22q-34 -1 -48 -19q-15 -19 -22 -40v0q-14 -34 -26 -49q-12 -16 -21 -22
q-13 -8 -13 -22q2 -22 24 -24q8 0 15 5q31 26 45 50q14 25 20 43q5 14 10 22t16 8q12 -1 17 -7q5 -7 5 -14q0 -6 -6 -26q-6 -21 -20 -45q-3 -6 -3 -12q3 -22 24 -23h138q17 -3 19 -20q-1 -16 -18 -19q-20 -3 -22 -24q1 -11 6 -16q5 -4 5 -13q-2 -16 -16 -19q-7 -2 -13 -7
q-5 -4 -6 -16q1 -8 4 -12q2 -4 3 -10q-2 -14 -14 -18q-14 -4 -16 -23q0 -3 1 -5v-4q-2 -17 -19 -19h-52q-40 0 -72 24l-37 27q-6 5 -14 5q-22 -2 -24 -24q0 -11 10 -19l36 -28q45 -32 101 -33h52q27 1 46 18q18 18 21 44q28 20 29 55q0 5 -1 9q28 20 29 55q0 8 -1 16
q29 20 30 56v0z" />
    <glyph glyph-name="thumbs-down" unicode="&#x1f44e;" 
d="M128 160v224q0 14 -9 22q-9 9 -23 9h-64q-14 0 -23 -9t-9 -22v-223q0 -14 9 -22q9 -9 23 -9h64q14 -1 23 8q9 8 9 22v0zM482 219q1 8 1 16q-1 35 -29 55q1 4 1 9q-1 35 -29 55q-3 26 -21 44q-19 17 -46 18h-52q-56 -1 -101 -33l-36 -28q-10 -8 -10 -19q2 -22 24 -24
q8 0 14 5l37 27q32 24 72 24h52q17 -2 19 -19v-4q-1 -2 -1 -5q2 -19 16 -23q12 -4 14 -18q-1 -6 -3 -10q-3 -4 -4 -12q1 -11 7 -17t13 -7q14 -4 15 -18q0 -9 -5 -13q-5 -5 -6 -16q2 -21 22 -24q17 -2 18 -18q-2 -17 -19 -19h-138q-21 -2 -24 -23q0 -6 3 -12q14 -26 20 -46
q6 -21 6 -27q0 -7 -5 -14q-5 -6 -17 -7q-9 -1 -13 4q-5 4 -12 24q-19 48 -43 74q-23 26 -38 26q-22 -2 -24 -24q0 -11 9 -19q22 -18 33 -38q12 -20 19 -38q9 -25 23 -40q14 -16 46 -17q33 1 51 22q19 20 19 47q0 21 -15 59h100q28 1 47 20t20 48q-1 35 -30 55v0z" />
    <glyph glyph-name="thumbs-down" unicode="&#xf165;" 
d="M128 160v224q0 14 -9 22q-9 9 -23 9h-64q-14 0 -23 -9t-9 -22v-223q0 -14 9 -22q9 -9 23 -9h64q14 -1 23 8q9 8 9 22v0zM482 219q1 8 1 16q-1 35 -29 55q1 4 1 9q-1 35 -29 55q-3 26 -21 44q-19 17 -46 18h-52q-56 -1 -101 -33l-36 -28q-10 -8 -10 -19q2 -22 24 -24
q8 0 14 5l37 27q32 24 72 24h52q17 -2 19 -19v-4q-1 -2 -1 -5q2 -19 16 -23q12 -4 14 -18q-1 -6 -3 -10q-3 -4 -4 -12q1 -11 7 -17t13 -7q14 -4 15 -18q0 -9 -5 -13q-5 -5 -6 -16q2 -21 22 -24q17 -2 18 -18q-2 -17 -19 -19h-138q-21 -2 -24 -23q0 -6 3 -12q14 -26 20 -46
q6 -21 6 -27q0 -7 -5 -14q-5 -6 -17 -7q-9 -1 -13 4q-5 4 -12 24q-19 48 -43 74q-23 26 -38 26q-22 -2 -24 -24q0 -11 9 -19q22 -18 33 -38q12 -20 19 -38q9 -25 23 -40q14 -16 46 -17q33 1 51 22q19 20 19 47q0 21 -15 59h100q28 1 47 20t20 48q-1 35 -30 55v0z" />
    <glyph glyph-name="thumbs-down" unicode="&#xf088;" 
d="M128 160v224q0 14 -9 22q-9 9 -23 9h-64q-14 0 -23 -9t-9 -22v-223q0 -14 9 -22q9 -9 23 -9h64q14 -1 23 8q9 8 9 22v0zM482 219q1 8 1 16q-1 35 -29 55q1 4 1 9q-1 35 -29 55q-3 26 -21 44q-19 17 -46 18h-52q-56 -1 -101 -33l-36 -28q-10 -8 -10 -19q2 -22 24 -24
q8 0 14 5l37 27q32 24 72 24h52q17 -2 19 -19v-4q-1 -2 -1 -5q2 -19 16 -23q12 -4 14 -18q-1 -6 -3 -10q-3 -4 -4 -12q1 -11 7 -17t13 -7q14 -4 15 -18q0 -9 -5 -13q-5 -5 -6 -16q2 -21 22 -24q17 -2 18 -18q-2 -17 -19 -19h-138q-21 -2 -24 -23q0 -6 3 -12q14 -26 20 -46
q6 -21 6 -27q0 -7 -5 -14q-5 -6 -17 -7q-9 -1 -13 4q-5 4 -12 24q-19 48 -43 74q-23 26 -38 26q-22 -2 -24 -24q0 -11 9 -19q22 -18 33 -38q12 -20 19 -38q9 -25 23 -40q14 -16 46 -17q33 1 51 22q19 20 19 47q0 21 -15 59h100q28 1 47 20t20 48q-1 35 -30 55v0z" />
    <glyph glyph-name="star-half" unicode="&#xf123;" horiz-adv-x="576" 
d="M288 423q-1 12 -12 15v0q-10 3 -17 -7q0 -2 -12 -26l-27 -54q-14 -29 -22 -45l-4 -8l-147 -22q-20 -4 -25 -21q-6 -18 8 -33l106 -102l-25 -147q-3 -16 7 -26q10 -11 24 -11q8 0 15 4l114 59q16 10 17 29v395v0zM240 37l-77 -40l23 130q1 9 -5 15l-95 92l131 19q9 1 12 8
l11 22v-246v0z" />
    <glyph glyph-name="star-half" unicode="&#xf089;" horiz-adv-x="576" 
d="M288 423q-1 12 -12 15v0q-10 3 -17 -7q0 -2 -12 -26l-27 -54q-14 -29 -22 -45l-4 -8l-147 -22q-20 -4 -25 -21q-6 -18 8 -33l106 -102l-25 -147q-3 -16 7 -26q10 -11 24 -11q8 0 15 4l114 59q16 10 17 29v395v0zM240 37l-77 -40l23 130q1 9 -5 15l-95 92l131 19q9 1 12 8
l11 22v-246v0z" />
    <glyph glyph-name="lemon" unicode="&#x1f34b;" horiz-adv-x="448" 
d="M440 303q11 21 7 45v0q-5 23 -24 43q-20 19 -43 24q-24 4 -45 -7q-15 -6 -48 -2v0q-39 6 -93 -3t-114 -67q-58 -60 -67 -114t-3 -93v0v-1q4 -32 -2 -47q-11 -21 -7 -45q5 -23 24 -43q26 -25 57 -25q16 0 31 8q15 6 48 2v0v0q39 -6 93 3t114 67q58 60 67 114t3 93v0v1
q-4 32 2 47v0zM398 327q-9 -16 -9 -35v0q-1 -20 1 -41q5 -37 -2 -79t-54 -90q-48 -47 -90 -54t-79 -2v0v0q-21 2 -41 1q-19 0 -36 -9q-11 -6 -29 9q-15 18 -10 29q10 17 10 36q1 20 -1 41v0q-5 38 2 79q7 42 54 90q36 36 68 48q33 11 63 10q20 0 38 -2q21 -2 41 -1
q19 0 35 9q12 6 30 -9q15 -18 9 -30v0zM240 324q2 -15 -12 -20q-35 -10 -71 -45q-35 -36 -45 -71q-4 -11 -16 -11h-4q-14 4 -11 19q12 44 54 85q41 42 85 54q15 3 20 -11v0z" />
    <glyph glyph-name="lemon" unicode="&#xf094;" horiz-adv-x="448" 
d="M440 303q11 21 7 45v0q-5 23 -24 43q-20 19 -43 24q-24 4 -45 -7q-15 -6 -48 -2v0q-39 6 -93 -3t-114 -67q-58 -60 -67 -114t-3 -93v0v-1q4 -32 -2 -47q-11 -21 -7 -45q5 -23 24 -43q26 -25 57 -25q16 0 31 8q15 6 48 2v0v0q39 -6 93 3t114 67q58 60 67 114t3 93v0v1
q-4 32 2 47v0zM398 327q-9 -16 -9 -35v0q-1 -20 1 -41q5 -37 -2 -79t-54 -90q-48 -47 -90 -54t-79 -2v0v0q-21 2 -41 1q-19 0 -36 -9q-11 -6 -29 9q-15 18 -10 29q10 17 10 36q1 20 -1 41v0q-5 38 2 79q7 42 54 90q36 36 68 48q33 11 63 10q20 0 38 -2q21 -2 41 -1
q19 0 35 9q12 6 30 -9q15 -18 9 -30v0zM240 324q2 -15 -12 -20q-35 -10 -71 -45q-35 -36 -45 -71q-4 -11 -16 -11h-4q-14 4 -11 19q12 44 54 85q41 42 85 54q15 3 20 -11v0z" />
    <glyph glyph-name="credit-card" unicode="&#x1f4b3;" horiz-adv-x="576" 
d="M512 416h-448q-27 -1 -45 -19t-19 -45v-320q1 -27 19 -45t45 -19h448q27 1 45 19t19 45v320q-1 27 -19 45t-45 19v0zM48 352q2 15 16 16h448q15 -1 16 -16v-32h-480v32v0zM528 32q-1 -15 -16 -16h-448q-14 1 -16 16v192h480v-192v0zM120 64h48q21 2 23 24q-1 22 -23 24
h-48q-22 -2 -24 -24q2 -22 24 -24v0zM248 64h112q22 2 24 24q-2 22 -24 24h-112q-22 -2 -24 -24q2 -22 24 -24v0z" />
    <glyph glyph-name="credit-card" unicode="&#xf283;" horiz-adv-x="576" 
d="M512 416h-448q-27 -1 -45 -19t-19 -45v-320q1 -27 19 -45t45 -19h448q27 1 45 19t19 45v320q-1 27 -19 45t-45 19v0zM48 352q2 15 16 16h448q15 -1 16 -16v-32h-480v32v0zM528 32q-1 -15 -16 -16h-448q-14 1 -16 16v192h480v-192v0zM120 64h48q21 2 23 24q-1 22 -23 24
h-48q-22 -2 -24 -24q2 -22 24 -24v0zM248 64h112q22 2 24 24q-2 22 -24 24h-112q-22 -2 -24 -24q2 -22 24 -24v0z" />
    <glyph glyph-name="credit-card" unicode="&#xf09d;" horiz-adv-x="576" 
d="M512 416h-448q-27 -1 -45 -19t-19 -45v-320q1 -27 19 -45t45 -19h448q27 1 45 19t19 45v320q-1 27 -19 45t-45 19v0zM48 352q2 15 16 16h448q15 -1 16 -16v-32h-480v32v0zM528 32q-1 -15 -16 -16h-448q-14 1 -16 16v192h480v-192v0zM120 64h48q21 2 23 24q-1 22 -23 24
h-48q-22 -2 -24 -24q2 -22 24 -24v0zM248 64h112q22 2 24 24q-2 22 -24 24h-112q-22 -2 -24 -24q2 -22 24 -24v0z" />
    <glyph glyph-name="hard-drive" unicode="&#x1f5b4;" 
d="M304 104q-22 -2 -24 -24q2 -22 24 -24q22 2 24 24q-2 22 -24 24v0zM448 416h-384q-27 -1 -45 -19t-19 -45v-320q1 -27 19 -45t45 -19h384q27 1 45 19t19 45v320q-1 27 -19 45t-45 19v0zM464 32q-1 -15 -16 -16h-384q-15 1 -16 16v96q1 15 16 16h384q15 -1 16 -16v-96v0z
M464 190q-8 2 -16 2h-384q-8 0 -16 -2v162q1 15 16 16h384q15 -1 16 -16v-162v0zM400 104q-22 -2 -24 -24q2 -22 24 -24q22 2 24 24q-2 22 -24 24v0z" />
    <glyph glyph-name="hard-drive" unicode="&#xf0a0;" 
d="M304 104q-22 -2 -24 -24q2 -22 24 -24q22 2 24 24q-2 22 -24 24v0zM448 416h-384q-27 -1 -45 -19t-19 -45v-320q1 -27 19 -45t45 -19h384q27 1 45 19t19 45v320q-1 27 -19 45t-45 19v0zM464 32q-1 -15 -16 -16h-384q-15 1 -16 16v96q1 15 16 16h384q15 -1 16 -16v-96v0z
M464 190q-8 2 -16 2h-384q-8 0 -16 -2v162q1 15 16 16h384q15 -1 16 -16v-162v0zM400 104q-22 -2 -24 -24q2 -22 24 -24q22 2 24 24q-2 22 -24 24v0z" />
    <glyph glyph-name="bell" unicode="&#x1f514;" horiz-adv-x="448" 
d="M256 416v-18q56 -10 91 -51q36 -41 37 -99v-33q1 -70 44 -125l15 -19q9 -12 3 -25q-7 -13 -22 -14h-400q-15 1 -22 14q-6 13 3 25l15 19q43 55 44 125v33q1 58 37 99q35 41 91 51v18q0 14 9 23t23 9t23 -9t9 -23v0v0zM216 352q-44 -1 -74 -30v0q-29 -30 -30 -74v-33
q0 -74 -40 -135h304q-40 61 -40 135v33q-1 44 -30 74q-30 29 -74 30h-16v0zM288 0q0 -26 -19 -45t-45 -19t-45 19t-19 45h128v0z" />
    <glyph glyph-name="bell" unicode="&#xf0f3;" horiz-adv-x="448" 
d="M256 416v-18q56 -10 91 -51q36 -41 37 -99v-33q1 -70 44 -125l15 -19q9 -12 3 -25q-7 -13 -22 -14h-400q-15 1 -22 14q-6 13 3 25l15 19q43 55 44 125v33q1 58 37 99q35 41 91 51v18q0 14 9 23t23 9t23 -9t9 -23v0v0zM216 352q-44 -1 -74 -30v0q-29 -30 -30 -74v-33
q0 -74 -40 -135h304q-40 61 -40 135v33q-1 44 -30 74q-30 29 -74 30h-16v0zM288 0q0 -26 -19 -45t-45 -19t-45 19t-19 45h128v0z" />
    <glyph glyph-name="bell" unicode="&#xf0a2;" horiz-adv-x="448" 
d="M256 416v-18q56 -10 91 -51q36 -41 37 -99v-33q1 -70 44 -125l15 -19q9 -12 3 -25q-7 -13 -22 -14h-400q-15 1 -22 14q-6 13 3 25l15 19q43 55 44 125v33q1 58 37 99q35 41 91 51v18q0 14 9 23t23 9t23 -9t9 -23v0v0zM216 352q-44 -1 -74 -30v0q-29 -30 -30 -74v-33
q0 -74 -40 -135h304q-40 61 -40 135v33q-1 44 -30 74q-30 29 -74 30h-16v0zM288 0q0 -26 -19 -45t-45 -19t-45 19t-19 45h128v0z" />
    <glyph glyph-name="hand-point-right" unicode="&#xf0a4;" 
d="M320 40q0 10 -2 19q32 20 34 61q0 10 -2 19q32 20 34 61v8h56q31 1 51 21t21 51q-1 31 -21 51t-51 21h-196q-26 31 -68 32h-50q-24 0 -45 -12q-20 -12 -32 -33l-31 -56q-18 -31 -18 -67v-108q2 -59 42 -99q41 -39 102 -41h104q31 1 51 21t21 51v0zM280 144q22 -2 24 -24
q-2 -22 -24 -24h-48q-22 2 -24 24q2 22 24 24h48v0zM312 224q22 -2 24 -24q-2 -22 -24 -24h-48q-5 0 -9 2q9 15 9 34v12h48v0zM440 304q22 -2 24 -24q-2 -22 -24 -24h-176v40v5q-1 1 -1 3h1v0h176v0zM48 108v108q0 23 12 44l31 56q12 19 35 20h50q17 0 28 -12q12 -11 12 -28
v-84q0 -12 -8 -20t-20 -8t-20 8t-8 20v52q-2 22 -24 24q-22 -2 -24 -24v-52q0 -25 15 -44q14 -19 36 -28q-3 -9 -3 -20q0 -7 2 -13v-2q-39 -18 -42 -65q0 -12 4 -22q-33 8 -54 32t-22 58v0zM192 16q-22 2 -24 24q2 22 24 24h56q22 -2 24 -24q-2 -22 -24 -24h-56v0z" />
    <glyph glyph-name="hand-point-left" unicode="&#xf0a5;" 
d="M264 -32h104q61 2 102 41q40 40 42 99v108q0 36 -18 68l-32 55q-11 21 -32 33q-20 12 -44 12h-50q-42 -1 -68 -32h-196q-31 -1 -51 -21t-21 -51q1 -31 21 -51t51 -21h56v-8q2 -41 34 -61q-2 -9 -2 -19q2 -41 34 -61q-2 -9 -2 -19q1 -31 21 -51t51 -21v0zM280 144
q22 -2 24 -24q-2 -22 -24 -24h-48q-22 2 -24 24q2 22 24 24h48v0zM248 224v-12q0 -19 9 -34q-4 -2 -9 -2h-48q-22 2 -24 24q2 22 24 24h48v0zM248 304v0v0h1q0 -2 -1 -3v-5v-40h-176q-22 2 -24 24q2 22 24 24h176v0zM388 18q4 11 4 22q0 22 -12 39q-11 18 -30 26v3q2 6 2 12
q0 11 -3 20q22 9 36 28q15 19 15 44v52q-2 22 -24 24q-22 -2 -24 -24v-52q0 -12 -8 -20t-20 -8t-20 8t-8 20v84q0 17 12 28q11 12 28 12h50q23 -1 35 -20l31 -56q12 -21 12 -44v-108q-1 -33 -22 -58q-21 -24 -54 -32v0zM264 16q-22 2 -24 24q2 22 24 24h56q22 -2 24 -24
q-2 -22 -24 -24h-56v0z" />
    <glyph glyph-name="hand-point-down" unicode="&#xf0a7;" horiz-adv-x="448" 
d="M448 200v104q-2 61 -41 102q-40 40 -99 42h-108q-36 0 -67 -18l-56 -31q-21 -12 -33 -32q-12 -21 -12 -45v-50q1 -42 32 -68v-196q1 -31 21 -51t51 -21q31 1 51 21t21 51v56h8q41 2 61 34q9 -2 19 -2q41 2 61 34q9 -2 19 -2q31 1 51 21t21 51v0zM272 216q2 22 24 24
q22 -2 24 -24v-48q-2 -22 -24 -24q-22 2 -24 24v48v0zM192 184h12q19 0 34 9q2 -4 2 -9v-48q-2 -22 -24 -24q-22 2 -24 24v48v0zM112 184v0v0v1q2 0 3 -1h5h40v-176q-2 -22 -24 -24q-22 2 -24 24v176v0zM398 324q-11 4 -22 4q-22 0 -39 -12q-18 -11 -26 -30h-3q-6 2 -12 2
q-11 0 -20 -3q-9 22 -28 36q-19 15 -44 15h-52q-22 -2 -24 -24q2 -22 24 -24h52q12 0 20 -8t8 -20t-8 -20t-20 -8h-84q-17 0 -28 12q-12 11 -12 28v50q1 23 20 35l56 32q21 11 44 11h108q33 -1 58 -22q24 -21 32 -54v0zM400 200q-2 -22 -24 -24q-22 2 -24 24v56q2 22 24 24
q22 -2 24 -24v-56v0z" />
    <glyph glyph-name="copy" unicode="&#xf0c5;" 
d="M503 377l-62 62q-9 9 -22 9h-164q-27 -1 -45 -19t-19 -45v-256q1 -27 20 -45q18 -18 45 -19h192q27 1 45 19t19 45v227q0 13 -9 22v0zM464 128q-1 -15 -16 -16h-193q-15 1 -16 16v256q1 14 16 16h128l1 -48q0 -14 9 -23t23 -9h47v-192h1zM272 0q-1 -15 -16 -16h-193
q-15 1 -16 16l1 256q1 15 16 16h96v48h-96q-27 -1 -45 -19t-19 -45v-256q1 -27 19 -45t45 -19h192q27 1 45 19t19 45v32h-47l-1 -32v0z" />
    <glyph glyph-name="floppy-disk" unicode="&#x1f5aa;" horiz-adv-x="448" 
d="M224 192q-27 -1 -45 -19v0q-18 -18 -19 -45q1 -27 19 -45t45 -19q27 1 45 19t19 45q-1 27 -19 45t-45 19v0zM433 319l-84 84q-13 13 -33 13h-252q-27 -1 -45 -19t-19 -45v-320q1 -27 19 -45t45 -19h320q27 1 45 19t19 45v252q0 20 -15 35v0zM128 368h144v-80h-144v80v0z
M400 32q-1 -15 -16 -16h-320q-15 1 -16 16v320q1 15 16 16h16v-104q2 -22 24 -24h192q22 2 24 24v100l78 -78q2 -2 2 -4v-250v0z" />
    <glyph glyph-name="floppy-disk" unicode="&#x1f4be;" horiz-adv-x="448" 
d="M224 192q-27 -1 -45 -19v0q-18 -18 -19 -45q1 -27 19 -45t45 -19q27 1 45 19t19 45q-1 27 -19 45t-45 19v0zM433 319l-84 84q-13 13 -33 13h-252q-27 -1 -45 -19t-19 -45v-320q1 -27 19 -45t45 -19h320q27 1 45 19t19 45v252q0 20 -15 35v0zM128 368h144v-80h-144v80v0z
M400 32q-1 -15 -16 -16h-320q-15 1 -16 16v320q1 15 16 16h16v-104q2 -22 24 -24h192q22 2 24 24v100l78 -78q2 -2 2 -4v-250v0z" />
    <glyph glyph-name="floppy-disk" unicode="&#xf0c7;" horiz-adv-x="448" 
d="M224 192q-27 -1 -45 -19v0q-18 -18 -19 -45q1 -27 19 -45t45 -19q27 1 45 19t19 45q-1 27 -19 45t-45 19v0zM433 319l-84 84q-13 13 -33 13h-252q-27 -1 -45 -19t-19 -45v-320q1 -27 19 -45t45 -19h320q27 1 45 19t19 45v252q0 20 -15 35v0zM128 368h144v-80h-144v80v0z
M400 32q-1 -15 -16 -16h-320q-15 1 -16 16v320q1 15 16 16h16v-104q2 -22 24 -24h192q22 2 24 24v100l78 -78q2 -2 2 -4v-250v0z" />
    <glyph glyph-name="lightbulb" unicode="&#x1f4a1;" horiz-adv-x="384" 
d="M112 -6q0 -10 5 -18l18 -26q10 -13 26 -14h62q16 1 26 14l18 26q4 8 5 18v39h-160v-39v0zM192 448q-78 -3 -126 -53v0q-49 -51 -50 -122q1 -68 44 -116q13 -15 28 -40q16 -26 24 -51v-1v0h160v0v1q8 25 24 51q15 25 28 40q43 47 44 116q-2 74 -52 124q-49 49 -124 51v0z
M288 188q-12 -14 -25 -34v0q-13 -20 -24 -42h-94q-11 22 -24 42t-25 34q-31 37 -32 85q1 48 34 87q33 38 93 40q55 -1 91 -37q37 -36 38 -90q-1 -48 -32 -85v0zM176 368q-34 -1 -57 -23v0q-22 -23 -23 -57q1 -15 16 -16q15 1 16 16q1 20 14 34q14 13 34 14q15 1 16 16
q-1 15 -16 16v0z" />
    <glyph glyph-name="lightbulb" unicode="&#xf0eb;" horiz-adv-x="384" 
d="M112 -6q0 -10 5 -18l18 -26q10 -13 26 -14h62q16 1 26 14l18 26q4 8 5 18v39h-160v-39v0zM192 448q-78 -3 -126 -53v0q-49 -51 -50 -122q1 -68 44 -116q13 -15 28 -40q16 -26 24 -51v-1v0h160v0v1q8 25 24 51q15 25 28 40q43 47 44 116q-2 74 -52 124q-49 49 -124 51v0z
M288 188q-12 -14 -25 -34v0q-13 -20 -24 -42h-94q-11 22 -24 42t-25 34q-31 37 -32 85q1 48 34 87q33 38 93 40q55 -1 91 -37q37 -36 38 -90q-1 -48 -32 -85v0zM176 368q-34 -1 -57 -23v0q-22 -23 -23 -57q1 -15 16 -16q15 1 16 16q1 20 14 34q14 13 34 14q15 1 16 16
q-1 15 -16 16v0z" />
    <glyph glyph-name="file-lines" unicode="&#x1f5ce;" horiz-adv-x="384" 
d="M365 355l-74 74q-19 19 -46 19h-181q-27 -1 -45 -19t-19 -45v-384q1 -27 19 -45t45 -19h256q27 1 45 19t19 45v309q0 27 -19 46v0zM336 0q-1 -15 -16 -16h-256q-15 1 -16 16v384q1 14 16 16h160v-80q0 -14 9 -23t23 -9h79v-288h1zM96 168q2 -22 24 -24h144q22 2 24 24
q-2 22 -24 24h-144q-22 -2 -24 -24v0zM264 96h-144q-22 -2 -24 -24q2 -22 24 -24h144q22 2 24 24q-2 22 -24 24v0z" />
    <glyph glyph-name="file-lines" unicode="&#x1f5b9;" horiz-adv-x="384" 
d="M365 355l-74 74q-19 19 -46 19h-181q-27 -1 -45 -19t-19 -45v-384q1 -27 19 -45t45 -19h256q27 1 45 19t19 45v309q0 27 -19 46v0zM336 0q-1 -15 -16 -16h-256q-15 1 -16 16v384q1 14 16 16h160v-80q0 -14 9 -23t23 -9h79v-288h1zM96 168q2 -22 24 -24h144q22 2 24 24
q-2 22 -24 24h-144q-22 -2 -24 -24v0zM264 96h-144q-22 -2 -24 -24q2 -22 24 -24h144q22 2 24 24q-2 22 -24 24v0z" />
    <glyph glyph-name="file-lines" unicode="&#xf15c;" horiz-adv-x="384" 
d="M365 355l-74 74q-19 19 -46 19h-181q-27 -1 -45 -19t-19 -45v-384q1 -27 19 -45t45 -19h256q27 1 45 19t19 45v309q0 27 -19 46v0zM336 0q-1 -15 -16 -16h-256q-15 1 -16 16v384q1 14 16 16h160v-80q0 -14 9 -23t23 -9h79v-288h1zM96 168q2 -22 24 -24h144q22 2 24 24
q-2 22 -24 24h-144q-22 -2 -24 -24v0zM264 96h-144q-22 -2 -24 -24q2 -22 24 -24h144q22 2 24 24q-2 22 -24 24v0z" />
    <glyph glyph-name="file-lines" unicode="&#xf0f6;" horiz-adv-x="384" 
d="M365 355l-74 74q-19 19 -46 19h-181q-27 -1 -45 -19t-19 -45v-384q1 -27 19 -45t45 -19h256q27 1 45 19t19 45v309q0 27 -19 46v0zM336 0q-1 -15 -16 -16h-256q-15 1 -16 16v384q1 14 16 16h160v-80q0 -14 9 -23t23 -9h79v-288h1zM96 168q2 -22 24 -24h144q22 2 24 24
q-2 22 -24 24h-144q-22 -2 -24 -24v0zM264 96h-144q-22 -2 -24 -24q2 -22 24 -24h144q22 2 24 24q-2 22 -24 24v0z" />
    <glyph glyph-name="building" unicode="&#x1f3e2;" horiz-adv-x="384" 
d="M88 344q1 15 16 16h48q15 -1 16 -16v-48q-1 -15 -16 -16h-48q-15 1 -16 16v48v0zM280 360q15 -1 16 -16v-48q-1 -15 -16 -16h-48q-15 1 -16 16v48q1 15 16 16h48v0zM88 216q1 15 16 16h48q15 -1 16 -16v-48q-1 -15 -16 -16h-48q-15 1 -16 16v48v0zM280 232q15 -1 16 -16
v-48q-1 -15 -16 -16h-48q-15 1 -16 16v48q1 15 16 16h48v0zM0 384q1 27 19 45v0q18 18 45 19h256q27 -1 45 -19t19 -45v-384q-1 -27 -19 -45t-45 -19h-256q-27 1 -45 19t-19 45v384v0zM48 384v-384q1 -15 16 -16h80v64q1 20 14 34q14 13 34 14q20 -1 34 -14q13 -14 14 -34
v-64h80q15 1 16 16v384q-1 15 -16 16h-256q-15 -1 -16 -16v0z" />
    <glyph glyph-name="building" unicode="&#xf1ad;" horiz-adv-x="384" 
d="M88 344q1 15 16 16h48q15 -1 16 -16v-48q-1 -15 -16 -16h-48q-15 1 -16 16v48v0zM280 360q15 -1 16 -16v-48q-1 -15 -16 -16h-48q-15 1 -16 16v48q1 15 16 16h48v0zM88 216q1 15 16 16h48q15 -1 16 -16v-48q-1 -15 -16 -16h-48q-15 1 -16 16v48v0zM280 232q15 -1 16 -16
v-48q-1 -15 -16 -16h-48q-15 1 -16 16v48q1 15 16 16h48v0zM0 384q1 27 19 45v0q18 18 45 19h256q27 -1 45 -19t19 -45v-384q-1 -27 -19 -45t-45 -19h-256q-27 1 -45 19t-19 45v384v0zM48 384v-384q1 -15 16 -16h80v64q1 20 14 34q14 13 34 14q20 -1 34 -14q13 -14 14 -34
v-64h80q15 1 16 16v384q-1 15 -16 16h-256q-15 -1 -16 -16v0z" />
    <glyph glyph-name="building" unicode="&#xf0f7;" horiz-adv-x="384" 
d="M88 344q1 15 16 16h48q15 -1 16 -16v-48q-1 -15 -16 -16h-48q-15 1 -16 16v48v0zM280 360q15 -1 16 -16v-48q-1 -15 -16 -16h-48q-15 1 -16 16v48q1 15 16 16h48v0zM88 216q1 15 16 16h48q15 -1 16 -16v-48q-1 -15 -16 -16h-48q-15 1 -16 16v48v0zM280 232q15 -1 16 -16
v-48q-1 -15 -16 -16h-48q-15 1 -16 16v48q1 15 16 16h48v0zM0 384q1 27 19 45v0q18 18 45 19h256q27 -1 45 -19t19 -45v-384q-1 -27 -19 -45t-45 -19h-256q-27 1 -45 19t-19 45v384v0zM48 384v-384q1 -15 16 -16h80v64q1 20 14 34q14 13 34 14q20 -1 34 -14q13 -14 14 -34
v-64h80q15 1 16 16v384q-1 15 -16 16h-256q-15 -1 -16 -16v0z" />
    <glyph glyph-name="hospital" unicode="&#x1f3e5;" horiz-adv-x="384" 
d="M256 271v34q-1 8 -8 9h-30v30q-1 7 -9 8h-34q-8 -1 -9 -8v-30h-30q-7 -1 -8 -9v-34q1 -8 8 -9h30v-30q1 -7 9 -8h34q8 1 9 8v30h30q7 1 8 9v0zM148 160h-40q-11 -1 -12 -12v-40q1 -11 12 -12h40q11 1 12 12v40q-1 11 -12 12v0zM148 64h-40q-11 -1 -12 -12v-40
q1 -11 12 -12h40q11 1 12 12v40q-1 11 -12 12v0zM320 448h-256q-27 -1 -45 -19t-19 -45v-424q2 -22 24 -24q22 2 24 24v424q1 15 16 16h256q15 -1 16 -16v-424q2 -22 24 -24q22 2 24 24v424q-1 27 -19 45t-45 19v0zM276 160h-40q-11 -1 -12 -12v-40q1 -11 12 -12h40
q11 1 12 12v40q-1 11 -12 12v0zM276 64h-40q-11 -1 -12 -12v-40q1 -11 12 -12h40q11 1 12 12v40q-1 11 -12 12v0z" />
    <glyph glyph-name="hospital" unicode="&#xf0f8;" horiz-adv-x="384" 
d="M256 271v34q-1 8 -8 9h-30v30q-1 7 -9 8h-34q-8 -1 -9 -8v-30h-30q-7 -1 -8 -9v-34q1 -8 8 -9h30v-30q1 -7 9 -8h34q8 1 9 8v30h30q7 1 8 9v0zM148 160h-40q-11 -1 -12 -12v-40q1 -11 12 -12h40q11 1 12 12v40q-1 11 -12 12v0zM148 64h-40q-11 -1 -12 -12v-40
q1 -11 12 -12h40q11 1 12 12v40q-1 11 -12 12v0zM320 448h-256q-27 -1 -45 -19t-19 -45v-424q2 -22 24 -24q22 2 24 24v424q1 15 16 16h256q15 -1 16 -16v-424q2 -22 24 -24q22 2 24 24v424q-1 27 -19 45t-45 19v0zM276 160h-40q-11 -1 -12 -12v-40q1 -11 12 -12h40
q11 1 12 12v40q-1 11 -12 12v0zM276 64h-40q-11 -1 -12 -12v-40q1 -11 12 -12h40q11 1 12 12v40q-1 11 -12 12v0z" />
    <glyph glyph-name="square-plus" unicode="&#xf196;" horiz-adv-x="448" 
d="M319 216h-72v72q-2 22 -23 24q-10 0 -17 -7q-8 -7 -8 -17v-72h-72q-10 0 -17 -7t-7 -17t7 -17t17 -7h71v-72q2 -22 24 -24q22 2 23 24v72h72q22 2 23 24q0 22 -21 24v0zM384 416h-320q-27 -1 -45 -19t-19 -45v-320q1 -27 19 -45t45 -19h320q27 1 45 19t19 45v320
q-1 27 -19 45t-45 19v0zM400 32q-1 -15 -16 -16h-320q-15 1 -16 16v320q1 15 16 16h320q15 -1 16 -16v-320v0z" />
    <glyph glyph-name="square-plus" unicode="&#xf0fe;" horiz-adv-x="448" 
d="M319 216h-72v72q-2 22 -23 24q-10 0 -17 -7q-8 -7 -8 -17v-72h-72q-10 0 -17 -7t-7 -17t7 -17t17 -7h71v-72q2 -22 24 -24q22 2 23 24v72h72q22 2 23 24q0 22 -21 24v0zM384 416h-320q-27 -1 -45 -19t-19 -45v-320q1 -27 19 -45t45 -19h320q27 1 45 19t19 45v320
q-1 27 -19 45t-45 19v0zM400 32q-1 -15 -16 -16h-320q-15 1 -16 16v320q1 15 16 16h320q15 -1 16 -16v-320v0z" />
    <glyph glyph-name="face-smile" unicode="&#x1f642;" 
d="M336 208q14 0 23 9v0q9 9 9 23t-9 23t-23 9t-23 -9t-9 -23t9 -23t23 -9v0zM175 208q14 0 23 9v0q9 9 9 23t-9 23t-23 9t-23 -9t-9 -23q1 -14 10 -23t22 -9v0zM340 135q-33 -38 -84 -39q-51 1 -84 39q-16 16 -34 4q-15 -16 -3 -34q48 -56 121 -57q73 1 121 57q12 18 -3 33
q-18 13 -34 -3v0zM256 448q-72 -1 -129 -35v0q-58 -34 -92 -92v0q-34 -57 -35 -129q1 -72 35 -129q34 -58 92 -92q57 -34 129 -35q72 1 129 35q58 34 92 92q34 57 35 129q-1 72 -35 129q-34 58 -92 92q-57 34 -129 35v0zM256 -16q-88 2 -147 61v0q-59 59 -61 147
q2 88 61 147t147 61q88 -2 147 -61t61 -147q-2 -88 -61 -147t-147 -61v0z" />
    <glyph glyph-name="face-smile" unicode="&#xf118;" 
d="M336 208q14 0 23 9v0q9 9 9 23t-9 23t-23 9t-23 -9t-9 -23t9 -23t23 -9v0zM175 208q14 0 23 9v0q9 9 9 23t-9 23t-23 9t-23 -9t-9 -23q1 -14 10 -23t22 -9v0zM340 135q-33 -38 -84 -39q-51 1 -84 39q-16 16 -34 4q-15 -16 -3 -34q48 -56 121 -57q73 1 121 57q12 18 -3 33
q-18 13 -34 -3v0zM256 448q-72 -1 -129 -35v0q-58 -34 -92 -92v0q-34 -57 -35 -129q1 -72 35 -129q34 -58 92 -92q57 -34 129 -35q72 1 129 35q58 34 92 92q34 57 35 129q-1 72 -35 129q-34 58 -92 92q-57 34 -129 35v0zM256 -16q-88 2 -147 61v0q-59 59 -61 147
q2 88 61 147t147 61q88 -2 147 -61t61 -147q-2 -88 -61 -147t-147 -61v0z" />
    <glyph glyph-name="face-meh" unicode="&#x1f610;" 
d="M344 128h-177q-22 -2 -24 -24q2 -22 24 -24h176q22 2 24 24q-2 22 -23 24v0zM175 208q14 0 23 9v0q9 9 9 23t-9 23t-23 9t-23 -9t-9 -23q1 -14 10 -23t22 -9v0zM336 272q-14 0 -23 -9v0q-9 -9 -9 -23t9 -23t23 -9t23 9t9 23t-9 23t-23 9v0zM256 448q-72 -1 -129 -35v0
q-58 -34 -92 -92v0q-34 -57 -35 -129q1 -72 35 -129q34 -58 92 -92q57 -34 129 -35q72 1 129 35q58 34 92 92q34 57 35 129q-1 72 -35 129q-34 58 -92 92q-57 34 -129 35v0zM256 -16q-88 2 -147 61v0q-59 59 -61 147q2 88 61 147t147 61q88 -2 147 -61t61 -147
q-2 -88 -61 -147t-147 -61v0z" />
    <glyph glyph-name="face-meh" unicode="&#xf11a;" 
d="M344 128h-177q-22 -2 -24 -24q2 -22 24 -24h176q22 2 24 24q-2 22 -23 24v0zM175 208q14 0 23 9v0q9 9 9 23t-9 23t-23 9t-23 -9t-9 -23q1 -14 10 -23t22 -9v0zM336 272q-14 0 -23 -9v0q-9 -9 -9 -23t9 -23t23 -9t23 9t9 23t-9 23t-23 9v0zM256 448q-72 -1 -129 -35v0
q-58 -34 -92 -92v0q-34 -57 -35 -129q1 -72 35 -129q34 -58 92 -92q57 -34 129 -35q72 1 129 35q58 34 92 92q34 57 35 129q-1 72 -35 129q-34 58 -92 92q-57 34 -129 35v0zM256 -16q-88 2 -147 61v0q-59 59 -61 147q2 88 61 147t147 61q88 -2 147 -61t61 -147
q-2 -88 -61 -147t-147 -61v0z" />
    <glyph glyph-name="calendar" unicode="&#x1f4c6;" horiz-adv-x="448" 
d="M152 384h144v40q2 22 24 24q22 -2 24 -24v-40h40q27 -1 45 -19t19 -45v-320q-1 -27 -19 -45t-45 -19h-320q-27 1 -45 19t-19 45v320q1 27 19 45t45 19h40v40q2 22 24 24q22 -2 24 -24v-40v0zM48 0q1 -15 16 -16h320q15 1 16 16v256h-352v-256v0z" />
    <glyph glyph-name="calendar" unicode="&#x1f4c5;" horiz-adv-x="448" 
d="M152 384h144v40q2 22 24 24q22 -2 24 -24v-40h40q27 -1 45 -19t19 -45v-320q-1 -27 -19 -45t-45 -19h-320q-27 1 -45 19t-19 45v320q1 27 19 45t45 19h40v40q2 22 24 24q22 -2 24 -24v-40v0zM48 0q1 -15 16 -16h320q15 1 16 16v256h-352v-256v0z" />
    <glyph glyph-name="calendar" unicode="&#xf133;" horiz-adv-x="448" 
d="M152 384h144v40q2 22 24 24q22 -2 24 -24v-40h40q27 -1 45 -19t19 -45v-320q-1 -27 -19 -45t-45 -19h-320q-27 1 -45 19t-19 45v320q1 27 19 45t45 19h40v40q2 22 24 24q22 -2 24 -24v-40v0zM48 0q1 -15 16 -16h320q15 1 16 16v256h-352v-256v0z" />
    <glyph glyph-name="square-minus" unicode="&#xf147;" horiz-adv-x="448" 
d="M319 216h-192q-10 0 -17 -7t-7 -17t7 -17t17 -7h192q22 2 23 24q-1 22 -23 24v0zM384 416h-320q-27 -1 -45 -19t-19 -45v-320q1 -27 19 -45t45 -19h320q27 1 45 19t19 45v320q-1 27 -19 45t-45 19v0zM400 32q-1 -15 -16 -16h-320q-15 1 -16 16v320q1 15 16 16h320
q15 -1 16 -16v-320v0z" />
    <glyph glyph-name="square-minus" unicode="&#xf146;" horiz-adv-x="448" 
d="M319 216h-192q-10 0 -17 -7t-7 -17t7 -17t17 -7h192q22 2 23 24q-1 22 -23 24v0zM384 416h-320q-27 -1 -45 -19t-19 -45v-320q1 -27 19 -45t45 -19h320q27 1 45 19t19 45v320q-1 27 -19 45t-45 19v0zM400 32q-1 -15 -16 -16h-320q-15 1 -16 16v320q1 15 16 16h320
q15 -1 16 -16v-320v0z" />
    <glyph glyph-name="compass" unicode="&#x1f9ed;" horiz-adv-x="576" 
d="M358 304l-114 -52q-11 -5 -16 -16l-53 -114q-7 -22 7 -36t36 -6l114 52q11 5 16 16l52 114q8 22 -6 36q-14 15 -36 6v0zM311 169q-10 -9 -23 -9v0q-13 0 -23 9q-9 10 -9 23t9 23q10 9 23 9t23 -9q9 -10 9 -23t-9 -23v0zM288 448q-72 -1 -129 -35v0q-58 -34 -92 -92v0
q-34 -57 -35 -129q1 -72 35 -129q34 -58 92 -92q57 -34 129 -35q72 1 129 35q58 34 92 92q34 57 35 129q-1 72 -35 129q-34 58 -92 92q-57 34 -129 35v0zM288 -16q-88 2 -147 61v0q-59 59 -61 147q2 88 61 147t147 61q88 -2 147 -61t61 -147q-2 -88 -61 -147t-147 -61v0z
" />
    <glyph glyph-name="compass" unicode="&#xf14e;" horiz-adv-x="576" 
d="M358 304l-114 -52q-11 -5 -16 -16l-53 -114q-7 -22 7 -36t36 -6l114 52q11 5 16 16l52 114q8 22 -6 36q-14 15 -36 6v0zM311 169q-10 -9 -23 -9v0q-13 0 -23 9q-9 10 -9 23t9 23q10 9 23 9t23 -9q9 -10 9 -23t-9 -23v0zM288 448q-72 -1 -129 -35v0q-58 -34 -92 -92v0
q-34 -57 -35 -129q1 -72 35 -129q34 -58 92 -92q57 -34 129 -35q72 1 129 35q58 34 92 92q34 57 35 129q-1 72 -35 129q-34 58 -92 92q-57 34 -129 35v0zM288 -16q-88 2 -147 61v0q-59 59 -61 147q2 88 61 147t147 61q88 -2 147 -61t61 -147q-2 -88 -61 -147t-147 -61v0z
" />
    <glyph glyph-name="square-caret-down" unicode="&#xf150;" horiz-adv-x="448" 
d="M320 256h-192q-15 -1 -23 -14q-4 -15 5 -26l96 -104q8 -8 18 -8t18 8l96 104q10 11 4 26q-7 13 -22 14v0zM384 416h-320q-27 -1 -45 -19t-19 -45v-320q1 -27 19 -45t45 -19h320q27 1 45 19t19 45v320q-1 27 -19 45t-45 19v0zM400 32q-1 -15 -16 -16h-320q-15 1 -16 16
v320q1 15 16 16h320q15 -1 16 -16v-320v0z" />
    <glyph glyph-name="square-caret-up" unicode="&#xf151;" horiz-adv-x="448" 
d="M242 272q-8 8 -18 8t-18 -8l-96 -104q-9 -11 -4 -26q7 -13 21 -14h192q15 1 22 14q6 15 -4 26l-95 104v0zM384 416h-320q-27 -1 -45 -19t-19 -45v-320q1 -27 19 -45t45 -19h320q27 1 45 19t19 45v320q-1 27 -19 45t-45 19v0zM400 32q-1 -15 -16 -16h-320q-15 1 -16 16
v320q1 15 16 16h320q15 -1 16 -16v-320v0z" />
    <glyph glyph-name="square-caret-right" unicode="&#xf152;" horiz-adv-x="448" 
d="M200 306q-11 10 -26 4q-13 -7 -14 -21v-192q1 -17 14 -23q15 -6 26 4l104 96q8 8 8 18t-8 18l-104 96v0zM384 416h-320q-27 -1 -45 -19t-19 -45v-320q1 -27 19 -45t45 -19h320q27 1 45 19t19 45v320q-1 27 -19 45t-45 19v0zM400 32q-1 -15 -16 -16h-320q-15 1 -16 16v320
q1 15 16 16h320q15 -1 16 -16v-320v0z" />
    <glyph glyph-name="circle-right" unicode="&#xf35a;" 
d="M280 298q-12 10 -26 4q-13 -7 -15 -21v-56l-87 -1q-22 -2 -24 -24v-16q2 -22 24 -24l88 1v-56q1 -15 14 -22q15 -6 26 4l96 89q8 6 8 17t-8 18l-96 87v0zM256 448q-72 -1 -129 -35v0q-58 -34 -92 -92v0q-34 -57 -35 -129q1 -72 35 -129q34 -58 92 -92q57 -34 129 -35
q72 1 129 35q58 34 92 92q34 57 35 129q-1 72 -35 129q-34 58 -92 92q-57 34 -129 35v0zM256 -16q-88 2 -147 61v0q-59 59 -61 147q2 88 61 147t147 61q88 -2 147 -61t61 -147q-2 -88 -61 -147t-147 -61v0z" />
    <glyph glyph-name="circle-right" unicode="&#xf18e;" 
d="M280 298q-12 10 -26 4q-13 -7 -15 -21v-56l-87 -1q-22 -2 -24 -24v-16q2 -22 24 -24l88 1v-56q1 -15 14 -22q15 -6 26 4l96 89q8 6 8 17t-8 18l-96 87v0zM256 448q-72 -1 -129 -35v0q-58 -34 -92 -92v0q-34 -57 -35 -129q1 -72 35 -129q34 -58 92 -92q57 -34 129 -35
q72 1 129 35q58 34 92 92q34 57 35 129q-1 72 -35 129q-34 58 -92 92q-57 34 -129 35v0zM256 -16q-88 2 -147 61v0q-59 59 -61 147q2 88 61 147t147 61q88 -2 147 -61t61 -147q-2 -88 -61 -147t-147 -61v0z" />
    <glyph glyph-name="circle-left" unicode="&#xf359;" 
d="M360 224h-88v56q-1 15 -14 22q-15 6 -26 -4l-96 -89q-8 -7 -8 -18t8 -18l96 -87q12 -10 26 -4q13 7 14 22v56h88q22 2 24 24v16q-2 22 -24 24v0zM256 448q-72 -1 -129 -35v0q-58 -34 -92 -92v0q-34 -57 -35 -129q1 -72 35 -129q34 -58 92 -92q57 -34 129 -35q72 1 129 35
q58 34 92 92q34 57 35 129q-1 72 -35 129q-34 58 -92 92q-57 34 -129 35v0zM256 -16q-88 2 -147 61v0q-59 59 -61 147q2 88 61 147t147 61q88 -2 147 -61t61 -147q-2 -88 -61 -147t-147 -61v0z" />
    <glyph glyph-name="circle-left" unicode="&#xf190;" 
d="M360 224h-88v56q-1 15 -14 22q-15 6 -26 -4l-96 -89q-8 -7 -8 -18t8 -18l96 -87q12 -10 26 -4q13 7 14 22v56h88q22 2 24 24v16q-2 22 -24 24v0zM256 448q-72 -1 -129 -35v0q-58 -34 -92 -92v0q-34 -57 -35 -129q1 -72 35 -129q34 -58 92 -92q57 -34 129 -35q72 1 129 35
q58 34 92 92q34 57 35 129q-1 72 -35 129q-34 58 -92 92q-57 34 -129 35v0zM256 -16q-88 2 -147 61v0q-59 59 -61 147q2 88 61 147t147 61q88 -2 147 -61t61 -147q-2 -88 -61 -147t-147 -61v0z" />
    <glyph glyph-name="square-caret-left" unicode="&#xf191;" horiz-adv-x="448" 
d="M384 416h-320q-27 -1 -45 -19t-19 -45v-320q1 -27 19 -45t45 -19h320q27 1 45 19t19 45v320q-1 27 -19 45t-45 19v0zM400 32q-1 -15 -16 -16h-320q-15 1 -16 16v320q1 15 16 16h320q15 -1 16 -16v-320v0zM274 310q-15 6 -26 -4l-104 -96q-8 -8 -8 -18t8 -18l104 -96
q11 -10 26 -4q13 7 14 22v192q-1 15 -14 22v0z" />
    <glyph glyph-name="circle-dot" unicode="&#x1f518;" 
d="M256 288q-41 -1 -68 -28v0q-27 -27 -28 -68q1 -41 28 -68t68 -28q41 1 68 28t28 68q-1 41 -28 68q-28 27 -68 28v0zM256 448q-72 -1 -129 -35v0q-58 -34 -92 -92v0q-34 -57 -35 -129q1 -72 35 -129q34 -58 92 -92q57 -34 129 -35q72 1 129 35q58 34 92 92q34 57 35 129
q-1 72 -35 129q-34 58 -92 92q-57 34 -129 35v0zM256 -16q-88 2 -147 61v0q-59 59 -61 147q2 88 61 147t147 61q88 -2 147 -61t61 -147q-2 -88 -61 -147t-147 -61v0z" />
    <glyph glyph-name="circle-dot" unicode="&#xf192;" 
d="M256 288q-41 -1 -68 -28v0q-27 -27 -28 -68q1 -41 28 -68t68 -28q41 1 68 28t28 68q-1 41 -28 68q-28 27 -68 28v0zM256 448q-72 -1 -129 -35v0q-58 -34 -92 -92v0q-34 -57 -35 -129q1 -72 35 -129q34 -58 92 -92q57 -34 129 -35q72 1 129 35q58 34 92 92q34 57 35 129
q-1 72 -35 129q-34 58 -92 92q-57 34 -129 35v0zM256 -16q-88 2 -147 61v0q-59 59 -61 147q2 88 61 147t147 61q88 -2 147 -61t61 -147q-2 -88 -61 -147t-147 -61v0z" />
    <glyph glyph-name="file-pdf" unicode="&#xf1c1;" horiz-adv-x="384" 
d="M365 355l-74 74q-19 19 -46 19h-181q-27 -1 -45 -19t-19 -45v-384q1 -27 19 -45t45 -19h256q27 1 45 19t19 45v309q0 27 -19 46v0zM336 0q-1 -15 -16 -16h-256q-15 1 -16 16v384q1 14 16 16h160v-80q0 -14 9 -23t23 -9h79v-288h1zM202 162q1 4 3 8q1 5 4 21q3 15 3 32
q0 14 -10 23q-9 10 -23 10q-15 0 -24 -10q-10 -9 -10 -24l2 -18t12 -44q-11 -29 -25 -58q-33 -15 -53 -36q-10 -10 -10 -25q1 -14 10 -23q10 -10 24 -10q17 0 27 14q12 16 31 49q23 10 53 16q21 -14 46 -23q7 -2 15 -2q15 0 25 10q10 11 11 27q-1 15 -11 26q-11 10 -26 10
h-4q-6 1 -45 -5q-15 14 -25 32v0zM110 38q-3 -4 -7 -3v0q-4 2 -5 8q0 3 2 4q14 14 32 24q-15 -25 -22 -33v0zM179 229q6 0 6 -7q0 -11 -2 -24l-3 -18q-6 18 -7 29q-1 12 -1 13q0 7 7 7v0zM162 100q10 20 20 44q9 -16 25 -32q-22 -4 -45 -12v0zM272 108h4q9 0 10 -10
q-1 -9 -10 -10q-3 0 -5 1q-19 7 -33 16q32 4 34 3v0z" />
    <glyph glyph-name="file-word" unicode="&#xf1c2;" horiz-adv-x="384" 
d="M365 355l-74 74q-19 19 -46 19h-181q-27 -1 -45 -19t-19 -45v-384q1 -27 19 -45t45 -19h256q27 1 45 19t19 45v309q0 27 -19 46v0zM336 0q-1 -15 -16 -16h-256q-15 1 -16 16v384q1 14 16 16h160v-80q0 -14 9 -23t23 -9h79v-288h1zM215 200q-7 15 -23 16q-16 -1 -23 -16
l-24 -70l-26 78q-9 20 -31 15q-20 -9 -15 -31l48 -144q6 -15 23 -16q16 1 23 16l25 72l25 -72q7 -15 23 -16q17 1 23 16l48 144q5 22 -15 31q-22 5 -31 -15l-26 -78l-24 70v0z" />
    <glyph glyph-name="file-excel" unicode="&#xf1c3;" horiz-adv-x="384" 
d="M365 355l-74 74q-19 19 -46 19h-181q-27 -1 -45 -19t-19 -45v-384q1 -27 19 -45t45 -19h256q27 1 45 19t19 45v309q0 27 -19 46v0zM336 0q-1 -15 -16 -16h-256q-15 1 -16 16v384q1 14 16 16h160v-80q0 -14 9 -23t23 -9h79v-288h1zM229 215l-37 -48l-37 48q-15 16 -34 4
q-16 -15 -4 -34l45 -57l-45 -57q-12 -19 4 -34q7 -5 14 -5q11 0 19 9l38 48l37 -48q8 -9 19 -9q8 0 15 5q16 15 4 34l-45 57l45 57q12 19 -4 34q-19 12 -34 -4v0z" />
    <glyph glyph-name="file-powerpoint" unicode="&#xf1c4;" horiz-adv-x="384" 
d="M365 355l-74 74q-19 19 -46 19h-181q-27 -1 -45 -19t-19 -45v-384q1 -27 19 -45t45 -19h256q27 1 45 19t19 45v309q0 27 -19 46v0zM336 0q-1 -15 -16 -16h-256q-15 1 -16 16v384q1 14 16 16h160v-80q0 -14 9 -23t23 -9h79v-288h1zM200 224h-72q-15 -1 -16 -16v-168
q2 -22 24 -24q22 2 24 24v32h44q34 1 56 25q22 23 20 58q-4 30 -27 49q-22 19 -53 20v0zM204 120h-44v56h44q12 0 20 -8t8 -20t-8 -20t-20 -8v0z" />
    <glyph glyph-name="file-image" unicode="&#x1f5bb;" horiz-adv-x="384" 
d="M365 355l-74 74q-19 19 -46 19h-181q-27 -1 -45 -19t-19 -45v-384q1 -27 19 -45t45 -19h256q27 1 45 19t19 45v309q0 27 -19 46v0zM336 0q-1 -15 -16 -16h-256q-15 1 -16 16v384q1 14 16 16h160v-80q0 -14 9 -23t23 -9h79v-288h1zM215 156q-7 0 -11 -6l-40 -60l-12 18
q-4 6 -11 6q-8 0 -12 -6l-47 -70q-4 -7 0 -15q4 -7 11 -7h196q8 0 12 7q4 8 0 15l-75 112q-3 6 -11 6v0zM128 160q14 0 23 9v0q9 9 9 23t-9 23t-23 9t-23 -9t-9 -23t9 -23t23 -9v0z" />
    <glyph glyph-name="file-image" unicode="&#xf1c5;" horiz-adv-x="384" 
d="M365 355l-74 74q-19 19 -46 19h-181q-27 -1 -45 -19t-19 -45v-384q1 -27 19 -45t45 -19h256q27 1 45 19t19 45v309q0 27 -19 46v0zM336 0q-1 -15 -16 -16h-256q-15 1 -16 16v384q1 14 16 16h160v-80q0 -14 9 -23t23 -9h79v-288h1zM215 156q-7 0 -11 -6l-40 -60l-12 18
q-4 6 -11 6q-8 0 -12 -6l-47 -70q-4 -7 0 -15q4 -7 11 -7h196q8 0 12 7q4 8 0 15l-75 112q-3 6 -11 6v0zM128 160q14 0 23 9v0q9 9 9 23t-9 23t-23 9t-23 -9t-9 -23t9 -23t23 -9v0z" />
    <glyph glyph-name="file-zipper" unicode="&#xf1c6;" horiz-adv-x="384" 
d="M365 355l-74 74q-19 19 -46 19h-181q-27 -1 -45 -19t-19 -45v-384q1 -27 19 -45t45 -19h256q27 1 45 19t19 45v309q0 27 -19 46v0zM336 0q-1 -15 -16 -16h-256q-15 1 -16 16v384q1 14 16 16h48v-16h64v16h48v-80q0 -14 9 -23t23 -9h79v-288h1zM176 352h-64v-32h64v32v0z
M176 288h-64v-32h64v32v0zM176 224h-64l-31 -117q-5 -30 14 -52q18 -22 49 -23q31 1 50 23q18 22 13 52l-31 117v0zM160 80h-32q-15 1 -16 16q1 15 16 16h32q15 -1 16 -16q-1 -15 -16 -16v0z" />
    <glyph glyph-name="file-audio" unicode="&#xf1c7;" horiz-adv-x="384" 
d="M365 355l-74 74q-19 19 -46 19h-181q-27 -1 -45 -19t-19 -45v-384q1 -27 19 -45t45 -19h256q27 1 45 19t19 45v309q0 27 -19 46v0zM336 0q-1 -15 -16 -16h-256q-15 1 -16 16v384q1 14 16 16h160v-80q0 -14 9 -23t23 -9h79v-288h1zM172 188l-36 -36h-44q-11 -1 -12 -12
v-56q1 -11 12 -12h44l36 -37q6 -5 13 -2q6 3 7 11v136q-1 8 -7 11q-7 3 -13 -3v0zM235 187q-9 -11 0 -22q2 -1 11 -15t10 -38q-1 -23 -10 -37q-9 -15 -11 -16v0q-9 -11 0 -22q5 -5 11 -5q7 0 12 5l1 1q5 6 17 25q11 19 12 49q-2 34 -15 54t-15 21q-12 10 -23 0v0z" />
    <glyph glyph-name="file-video" unicode="&#xf1c8;" horiz-adv-x="384" 
d="M365 355l-74 74q-19 19 -46 19h-181q-27 -1 -45 -19t-19 -45v-384q1 -27 19 -45t45 -19h256q27 1 45 19t19 45v309q0 27 -19 46v0zM336 0q-1 -15 -16 -16h-256q-15 1 -16 16v384q1 14 16 16h160v-80q0 -14 9 -23t23 -9h79v-288h1zM240 160q0 14 -9 23v0q-9 9 -23 9h-96
q-14 0 -23 -9t-9 -23v-96q0 -14 9 -23t23 -9h96q14 0 23 9t9 23v17l44 -31q7 -4 13 -1q7 4 7 12v102q0 8 -7 12q-6 3 -13 -1l-44 -31v17v0z" />
    <glyph glyph-name="file-code" unicode="&#xf1c9;" horiz-adv-x="384" 
d="M162 190q-14 12 -28 0l-48 -48q-12 -14 0 -28l48 -48q6 -6 14 -6t14 6q12 14 0 28l-34 34l34 34q11 14 0 28v0zM365 355l-74 74q-19 19 -46 19h-181q-27 -1 -45 -19t-19 -45v-384q1 -27 19 -45t45 -19h256q27 1 45 19t19 45v309q0 27 -19 46v0zM336 0q-1 -15 -16 -16
h-256q-15 1 -16 16v384q1 14 16 16h160v-80q0 -14 9 -23t23 -9h79v-288h1zM222 190q-12 -14 0 -28l34 -34l-34 -34q-12 -14 0 -28q6 -6 14 -6t14 6l48 48q12 14 0 28l-48 48q-14 12 -28 0v0z" />
    <glyph glyph-name="life-ring" unicode="&#xf1cd;" 
d="M453 29q57 68 59 163q-2 95 -59 163l12 12q14 17 0 34q-17 14 -34 0l-12 -12q-68 57 -163 59q-95 -2 -163 -59l-12 12q-17 14 -34 0q-14 -17 0 -34l12 -12q-57 -68 -59 -163q2 -95 59 -163l-12 -12q-14 -17 0 -34q7 -7 17 -7t17 7l12 12q68 -57 163 -59q95 2 163 59
l12 -12q7 -7 17 -7t17 7q14 17 0 34l-12 12v0zM464 192q-1 -75 -45 -128l-81 80q13 21 14 48q0 27 -14 48l81 81q44 -55 45 -129v0zM208 192q1 20 14 34v0q14 13 34 14q20 -1 34 -14q13 -14 14 -34q-1 -20 -14 -34q-14 -13 -34 -14q-20 1 -34 14q-13 14 -14 34v0zM256 400
q75 -1 128 -45l-80 -81q-21 13 -48 14q-27 0 -48 -14l-81 81q55 44 129 45v0zM48 192q1 75 45 128l81 -80q-13 -21 -14 -48q0 -27 14 -48l-81 -81q-44 55 -45 129v0zM256 -16q-75 1 -128 45l80 81q21 -13 48 -14q27 0 48 14l81 -81q-55 -44 -129 -45v0z" />
    <glyph glyph-name="paper-plane" unicode="&#xf1d9;" 
d="M502 444q-13 8 -26 1l-464 -264q-12 -8 -12 -22q1 -15 15 -21l153 -64v-114q0 -14 13 -21q5 -3 10 -3q7 0 13 4l111 71l99 -41q4 -2 9 -2q6 0 12 3q10 6 12 17l64 432q3 15 -9 24v0zM369 329l-187 -209l-104 43l291 166v0zM215 4v49l47 -19l-47 -30v0zM405 26l-177 74
l225 250l-48 -324v0z" />
    <glyph glyph-name="paper-plane" unicode="&#xf1d8;" 
d="M502 444q-13 8 -26 1l-464 -264q-12 -8 -12 -22q1 -15 15 -21l153 -64v-114q0 -14 13 -21q5 -3 10 -3q7 0 13 4l111 71l99 -41q4 -2 9 -2q6 0 12 3q10 6 12 17l64 432q3 15 -9 24v0zM369 329l-187 -209l-104 43l291 166v0zM215 4v49l47 -19l-47 -30v0zM405 26l-177 74
l225 250l-48 -324v0z" />
    <glyph glyph-name="newspaper" unicode="&#x1f4f0;" 
d="M456 416h-304q-24 -1 -40 -16q-15 -16 -16 -40v-320q-2 -22 -24 -24q-22 2 -24 24v296q-2 22 -24 24q-22 -2 -24 -24v-296q1 -31 21 -51t51 -21h352q37 1 62 26t26 62v304q-1 24 -16 40q-16 15 -40 16v0zM464 56q0 -17 -12 -28v0q-11 -12 -28 -12h-284q4 11 4 24v320
q1 7 8 8h304q7 -1 8 -8v-304v0zM264 176h-64q-22 -2 -24 -24q2 -22 24 -24h64q22 2 24 24q-2 22 -24 24v0zM408 176h-64q-22 -2 -24 -24q2 -22 24 -24h64q22 2 24 24q-2 22 -24 24v0zM264 96h-64q-22 -2 -24 -24q2 -22 24 -24h64q22 2 24 24q-2 22 -24 24v0zM408 96h-64
q-22 -2 -24 -24q2 -22 24 -24h64q22 2 24 24q-2 22 -24 24v0zM400 336h-192q-14 0 -23 -9t-9 -23v-64q0 -14 9 -23t23 -9h192q14 0 23 9t9 23v64q0 14 -9 23t-23 9v0z" />
    <glyph glyph-name="newspaper" unicode="&#xf1ea;" 
d="M456 416h-304q-24 -1 -40 -16q-15 -16 -16 -40v-320q-2 -22 -24 -24q-22 2 -24 24v296q-2 22 -24 24q-22 -2 -24 -24v-296q1 -31 21 -51t51 -21h352q37 1 62 26t26 62v304q-1 24 -16 40q-16 15 -40 16v0zM464 56q0 -17 -12 -28v0q-11 -12 -28 -12h-284q4 11 4 24v320
q1 7 8 8h304q7 -1 8 -8v-304v0zM264 176h-64q-22 -2 -24 -24q2 -22 24 -24h64q22 2 24 24q-2 22 -24 24v0zM408 176h-64q-22 -2 -24 -24q2 -22 24 -24h64q22 2 24 24q-2 22 -24 24v0zM264 96h-64q-22 -2 -24 -24q2 -22 24 -24h64q22 2 24 24q-2 22 -24 24v0zM408 96h-64
q-22 -2 -24 -24q2 -22 24 -24h64q22 2 24 24q-2 22 -24 24v0zM400 336h-192q-14 0 -23 -9t-9 -23v-64q0 -14 9 -23t23 -9h192q14 0 23 9t9 23v64q0 14 -9 23t-23 9v0z" />
    <glyph glyph-name="bell-slash" unicode="&#x1f515;" horiz-adv-x="640" 
d="M184 329q36 57 104 69v18q0 14 9 23t23 9t23 -9t9 -23v-18q56 -10 91 -51q36 -41 37 -99v-33q1 -70 44 -125l15 -19q7 -11 4 -23l88 -69q16 -15 4 -34q-15 -16 -34 -4l-592 464q-16 15 -4 34q15 16 34 4l145 -114v0zM222 300l229 -179q-19 44 -19 94v33q-1 44 -30 74
q-30 29 -74 30h-16q-29 0 -53 -14q-24 -15 -37 -38v0v0zM160 215v11l47 -37q-7 -59 -39 -109h177l61 -48h-286q-15 1 -22 14q-6 13 3 25l15 19q43 55 44 125v0v0zM384 0q0 -26 -19 -45t-45 -19t-45 19t-19 45h128v0z" />
    <glyph glyph-name="bell-slash" unicode="&#xf1f7;" horiz-adv-x="640" 
d="M184 329q36 57 104 69v18q0 14 9 23t23 9t23 -9t9 -23v-18q56 -10 91 -51q36 -41 37 -99v-33q1 -70 44 -125l15 -19q7 -11 4 -23l88 -69q16 -15 4 -34q-15 -16 -34 -4l-592 464q-16 15 -4 34q15 16 34 4l145 -114v0zM222 300l229 -179q-19 44 -19 94v33q-1 44 -30 74
q-30 29 -74 30h-16q-29 0 -53 -14q-24 -15 -37 -38v0v0zM160 215v11l47 -37q-7 -59 -39 -109h177l61 -48h-286q-15 1 -22 14q-6 13 3 25l15 19q43 55 44 125v0v0zM384 0q0 -26 -19 -45t-45 -19t-45 19t-19 45h128v0z" />
    <glyph glyph-name="bell-slash" unicode="&#xf1f6;" horiz-adv-x="640" 
d="M184 329q36 57 104 69v18q0 14 9 23t23 9t23 -9t9 -23v-18q56 -10 91 -51q36 -41 37 -99v-33q1 -70 44 -125l15 -19q7 -11 4 -23l88 -69q16 -15 4 -34q-15 -16 -34 -4l-592 464q-16 15 -4 34q15 16 34 4l145 -114v0zM222 300l229 -179q-19 44 -19 94v33q-1 44 -30 74
q-30 29 -74 30h-16q-29 0 -53 -14q-24 -15 -37 -38v0v0zM160 215v11l47 -37q-7 -59 -39 -109h177l61 -48h-286q-15 1 -22 14q-6 13 3 25l15 19q43 55 44 125v0v0zM384 0q0 -26 -19 -45t-45 -19t-45 19t-19 45h128v0z" />
    <glyph glyph-name="closed-captioning" unicode="&#xf20a;" horiz-adv-x="576" 
d="M512 416h-448q-27 -1 -45 -19t-19 -45v-320q1 -27 19 -45t45 -19h448q27 1 45 19t19 45v320q-1 27 -19 45t-45 19v0zM528 32q-1 -15 -16 -16h-448q-15 1 -16 16v320q1 15 16 16h448q15 -1 16 -16v-320v0zM237 226q16 -14 33 0q15 17 0 34q-29 28 -67 28q-39 0 -68 -28
q-28 -28 -28 -68q-1 -40 28 -68t67 -28q39 0 68 28q14 17 0 34q-17 14 -34 0q-14 -14 -34 -14q-19 0 -33 14t-14 34t14 34t34 14q19 0 34 -14v0zM429 226q16 -14 33 0q15 17 0 34q-29 28 -67 28q-39 0 -68 -28q-28 -28 -28 -68q-1 -40 28 -68t67 -28q39 0 68 28q14 17 0 34
q-17 14 -34 0q-14 -14 -34 -14q-19 0 -33 14t-14 34t14 34t34 14q19 0 34 -14v0z" />
    <glyph glyph-name="font-awesome" unicode="&#xf4e6;" horiz-adv-x="448" 
d="M448 400v-336q-14 -5 -26 -9q-31 -12 -51 -18q-20 -5 -42 -5q-45 2 -75 16t-75 16q-31 -1 -54 -9q-11 -3 -20 4q-9 6 -9 17v1q1 15 14 21q27 12 69 14q45 -2 75 -16t75 -16q18 0 34 4q16 3 37 11v240q-29 -13 -71 -15q-1 0 0 0v0q-45 2 -75 16t-75 16q-44 -2 -73 -15
q-25 -11 -58 -15v-330q-2 -22 -24 -24q-22 2 -24 24v400q2 22 24 24q22 -2 24 -24v-23q33 4 57 15q16 6 33 11q18 5 41 5q45 -2 75 -16t75 -16q22 0 42 6q20 5 51 16q11 5 26 10v0z" />
    <glyph glyph-name="font-awesome" unicode="&#xf2b4;" horiz-adv-x="448" 
d="M448 400v-336q-14 -5 -26 -9q-31 -12 -51 -18q-20 -5 -42 -5q-45 2 -75 16t-75 16q-31 -1 -54 -9q-11 -3 -20 4q-9 6 -9 17v1q1 15 14 21q27 12 69 14q45 -2 75 -16t75 -16q18 0 34 4q16 3 37 11v240q-29 -13 -71 -15q-1 0 0 0v0q-45 2 -75 16t-75 16q-44 -2 -73 -15
q-25 -11 -58 -15v-330q-2 -22 -24 -24q-22 2 -24 24v400q2 22 24 24q22 -2 24 -24v-23q33 4 57 15q16 6 33 11q18 5 41 5q45 -2 75 -16t75 -16q22 0 42 6q20 5 51 16q11 5 26 10v0z" />
    <glyph glyph-name="font-awesome" unicode="&#xf20c;" horiz-adv-x="448" 
d="M448 400v-336q-14 -5 -26 -9q-31 -12 -51 -18q-20 -5 -42 -5q-45 2 -75 16t-75 16q-31 -1 -54 -9q-11 -3 -20 4q-9 6 -9 17v1q1 15 14 21q27 12 69 14q45 -2 75 -16t75 -16q18 0 34 4q16 3 37 11v240q-29 -13 -71 -15q-1 0 0 0v0q-45 2 -75 16t-75 16q-44 -2 -73 -15
q-25 -11 -58 -15v-330q-2 -22 -24 -24q-22 2 -24 24v400q2 22 24 24q22 -2 24 -24v-23q33 4 57 15q16 6 33 11q18 5 41 5q45 -2 75 -16t75 -16q22 0 42 6q20 5 51 16q11 5 26 10v0z" />
    <glyph glyph-name="object-group" unicode="&#xf247;" 
d="M512 336v48q0 14 -9 23t-23 9h-48q-14 0 -23 -9t-9 -23h-288q0 14 -9 23t-23 9h-48q-14 0 -23 -9t-9 -23v-48q0 -14 9 -23t23 -9v-224q-14 0 -23 -9t-9 -23v-48q0 -14 9 -23t23 -9h48q14 0 23 9t9 23h288q0 -14 9 -23t23 -9h48q14 0 23 9t9 23v48q0 14 -9 23t-23 9v224
q14 0 23 9t9 23v0zM72 8h-32v32h32v-32v0zM72 344h-32v32h32v-32v0zM432 80q-14 0 -23 -9v0q-9 -9 -9 -23h-288q0 14 -9 23t-23 9v224q14 0 23 9t9 23h288q0 -14 9 -23t23 -9v-224v0zM472 8h-32v32h32v-32v0zM472 344h-32v32h32v-32v0zM288 192v80q0 14 -9 23t-23 9h-112
q-14 0 -23 -9t-9 -23v-80q0 -14 9 -23t23 -9h112q14 0 23 9t9 23v0zM248 200h-96v64h96v-64v0zM368 224h-48v-40h40v-64h-96v8h-40v-16q0 -14 9 -23t23 -9h112q14 0 23 9t9 23v80q0 14 -9 23t-23 9v0z" />
    <glyph glyph-name="object-ungroup" unicode="&#xf248;" horiz-adv-x="640" 
d="M640 208v48q0 14 -9 23t-23 9h-48q-14 0 -23 -9t-9 -23h-64v-48h64q0 -14 9 -23t23 -9v-128q-14 0 -23 -9t-9 -23h-224q0 14 -9 23t-23 9v48h-48v-48q-14 0 -23 -9t-9 -23v-48q0 -14 9 -23t23 -9h48q14 0 23 9t9 23h224q0 -14 9 -23t23 -9h48q14 0 23 9t9 23v48
q0 14 -9 23t-23 9v128q14 0 23 9t9 23v0zM264 -24h-32v32h32v-32v0zM600 -24h-32v32h32v-32v0zM600 216h-32v32h32v-32v0zM368 96h48q14 0 23 9t9 23v48q0 14 -9 23t-23 9v128q14 0 23 9t9 23v48q0 14 -9 23t-23 9h-48q-14 0 -23 -9t-9 -23h-224q0 14 -9 23t-23 9h-48
q-14 0 -23 -9t-9 -23v-48q0 -14 9 -23t23 -9v-128q-14 0 -23 -9t-9 -23v-48q0 -14 9 -23t23 -9h48q14 0 23 9t9 23h224q0 -14 9 -23t23 -9v0zM376 408h32v-32h-32v32v0zM376 168h32v-32h-32v32v0zM72 136h-32v32h32v-32v0zM72 376h-32v32h32v-32v0zM80 208v128q14 0 23 9
t9 23h224q0 -14 9 -23t23 -9v-128q-14 0 -23 -9t-9 -23h-224q0 14 -9 23t-23 9v0z" />
    <glyph glyph-name="note-sticky" unicode="&#xf24a;" horiz-adv-x="448" 
d="M384 416h-320q-27 -1 -45 -19t-19 -45v-319q1 -28 19 -46t45 -19h232q40 1 68 28l56 56q27 29 28 68v232q-1 27 -19 45t-45 19v0zM53 21q-4 2 -5 11v319q1 16 16 17h320q15 -1 16 -16v-192h-88q-24 -1 -40 -16q-15 -16 -16 -40v-88h-192q-9 1 -11 5v0zM330 30
q-11 -11 -26 -13v87q1 7 8 8h87q-2 -15 -13 -26l-56 -56v0z" />
    <glyph glyph-name="note-sticky" unicode="&#xf249;" horiz-adv-x="448" 
d="M384 416h-320q-27 -1 -45 -19t-19 -45v-319q1 -28 19 -46t45 -19h232q40 1 68 28l56 56q27 29 28 68v232q-1 27 -19 45t-45 19v0zM53 21q-4 2 -5 11v319q1 16 16 17h320q15 -1 16 -16v-192h-88q-24 -1 -40 -16q-15 -16 -16 -40v-88h-192q-9 1 -11 5v0zM330 30
q-11 -11 -26 -13v87q1 7 8 8h87q-2 -15 -13 -26l-56 -56v0z" />
    <glyph glyph-name="clone" unicode="&#xf24d;" 
d="M448 448h-224q-27 -1 -45 -19t-19 -45v-224q1 -27 19 -45t45 -19h224q27 1 45 19t19 45v224q-1 27 -19 45t-45 19v0zM464 160q-1 -15 -16 -16h-224q-15 1 -16 16v224q1 15 16 16h224q15 -1 16 -16v-224v0zM304 0q-1 -15 -16 -16h-224q-15 1 -16 16v224q1 15 16 16h64v48
h-64q-27 -1 -45 -19t-19 -45v-224q1 -27 19 -45t45 -19h224q27 1 45 19t19 45v64h-48v-64v0z" />
    <glyph glyph-name="hand-back-fist" unicode="&#xf255;" horiz-adv-x="448" 
d="M377 380q-21 27 -56 28h-13q-6 0 -11 -1q-19 15 -43 15h-14q-6 0 -12 -1q-18 26 -52 27h-16q-27 -1 -45 -19t-19 -45v-50l-33 -29q-30 -27 -31 -68v-79q0 -24 12 -45q12 -20 33 -32l35 -20v-101q2 -22 23 -24q10 0 17 7q8 7 8 17v130q-1 0 -2 1q-1 0 -2 1l-56 31
q-19 12 -20 35v79q0 19 15 31l17 16v-44q1 -15 16 -16q15 1 16 16v144q1 15 16 16h16q15 -1 16 -16v-16q2 -15 16 -16q11 0 15 10q0 2 4 6q4 5 13 6h14q15 -1 19 -11q4 -8 15 -9q5 1 9 3q3 3 11 3h13q18 -2 22 -15q4 -12 17 -13v0h15q10 0 17 -8q8 -7 8 -18v-130
q0 -27 -13 -49t-35 -35v-132q2 -22 23 -24q10 0 17 7q8 7 8 17v108q47 43 48 108v130q-1 31 -21 51q-19 21 -50 23v0z" />
    <glyph glyph-name="hand-scissors" unicode="&#xf257;" 
d="M270 -32h98q61 2 102 41q40 40 42 99v108q0 36 -18 68l-31 55q-12 21 -33 33q-20 12 -44 12h-47q-42 -1 -68 -32l-16 -19l-128 47q-12 4 -25 4q-23 0 -42 -13q-19 -12 -27 -34q-12 -35 4 -60q15 -25 40 -34l2 -1h-10q-30 -3 -49 -24q-19 -20 -20 -49q1 -31 22 -51
q21 -21 52 -21h5l89 6v-8q1 -35 28 -57q2 -30 23 -50q20 -19 51 -20v0zM269 16q-24 2 -26 25v7v7q0 12 -11 17q-16 6 -17 23v13q1 13 8 17q5 4 6 13q-2 15 -16 16h-1q-3 0 -36 -2q-33 -3 -67 -5q-33 -2 -36 -2q-24 2 -26 24q2 22 24 25l163 11q3 0 9 3q6 4 6 13q0 11 -10 15
l-146 52q-14 5 -17 23q0 9 7 17q6 7 19 8q5 0 9 -2l234 -85q3 -1 6 -1q14 2 16 15q-1 11 -11 16l-65 23l16 19q13 15 32 15h47q23 -1 35 -20l32 -56q11 -21 11 -44v-108q-1 -39 -28 -65t-68 -27h-99v0z" />
    <glyph glyph-name="hand-lizard" unicode="&#xf258;" 
d="M512 116v-92q-2 -22 -24 -24q-22 2 -24 24v92q0 16 -9 28l-118 171q-15 21 -42 21h-242q-4 -1 -5 -4q0 -15 10 -25q10 -11 25 -11h161q27 -1 44 -22q15 -22 7 -48l-10 -30q-5 -16 -19 -26t-31 -10h-96q-15 0 -25 -11q-10 -10 -10 -25q1 -3 5 -4h157q8 0 14 -5l78 -58
q10 -8 10 -20l-1 -13q-2 -22 -24 -24q-22 2 -24 24v1l-61 47h-149q-22 1 -37 15t-16 36q-1 35 23 60t60 25h96q4 0 5 4l10 29q0 3 -1 5t-4 2h-162q-35 0 -60 25q-24 25 -23 60q1 22 16 36t37 15h243q50 -1 80 -42l119 -170q17 -25 17 -56v0z" />
    <glyph glyph-name="hand-spock" unicode="&#x1f596;" horiz-adv-x="576" 
d="M235 400q17 0 24 -19l47 -184q5 -13 17 -13t16 13l32 156q6 20 24 20q11 0 18 -7q8 -6 9 -18q0 -4 -1 -7l-29 -140v-3q2 -13 15 -14q10 0 13 11l25 104v0q0 3 5 11t19 9q11 0 19 -7q8 -6 8 -18q0 -3 -1 -7l-48 -204q-11 -44 -45 -71t-79 -28h-49q-63 1 -110 44l-76 71
q-8 8 -8 18q0 11 8 19t18 8q9 0 18 -7l51 -49q2 -2 5 -2q7 1 8 8q0 36 -10 70l-36 123q-1 3 -1 7q0 12 8 18q8 7 19 7q16 1 23 -18l32 -106q4 -11 14 -11q13 1 15 15v4l-43 165q-1 4 -1 7q1 12 9 18q8 7 18 7v0zM235 448q-27 0 -50 -19v0q-23 -18 -25 -54q0 -4 1 -8
q-25 -2 -46 -21q-21 -18 -22 -52q0 -11 3 -21l24 -82q-7 1 -14 1q-31 -1 -52 -22q-21 -22 -22 -53q0 -30 24 -53l75 -71q61 -56 143 -57h49q62 1 109 38t62 98l48 204q2 9 2 18q-2 40 -28 57q-25 17 -47 16h-2q-9 29 -30 42q-22 12 -42 12q-26 0 -45 -16q-20 -16 -26 -43
l-5 -23l-13 54q-7 25 -26 40t-45 15v0z" />
    <glyph glyph-name="hand-spock" unicode="&#xf259;" horiz-adv-x="576" 
d="M235 400q17 0 24 -19l47 -184q5 -13 17 -13t16 13l32 156q6 20 24 20q11 0 18 -7q8 -6 9 -18q0 -4 -1 -7l-29 -140v-3q2 -13 15 -14q10 0 13 11l25 104v0q0 3 5 11t19 9q11 0 19 -7q8 -6 8 -18q0 -3 -1 -7l-48 -204q-11 -44 -45 -71t-79 -28h-49q-63 1 -110 44l-76 71
q-8 8 -8 18q0 11 8 19t18 8q9 0 18 -7l51 -49q2 -2 5 -2q7 1 8 8q0 36 -10 70l-36 123q-1 3 -1 7q0 12 8 18q8 7 19 7q16 1 23 -18l32 -106q4 -11 14 -11q13 1 15 15v4l-43 165q-1 4 -1 7q1 12 9 18q8 7 18 7v0zM235 448q-27 0 -50 -19v0q-23 -18 -25 -54q0 -4 1 -8
q-25 -2 -46 -21q-21 -18 -22 -52q0 -11 3 -21l24 -82q-7 1 -14 1q-31 -1 -52 -22q-21 -22 -22 -53q0 -30 24 -53l75 -71q61 -56 143 -57h49q62 1 109 38t62 98l48 204q2 9 2 18q-2 40 -28 57q-25 17 -47 16h-2q-9 29 -30 42q-22 12 -42 12q-26 0 -45 -16q-20 -16 -26 -43
l-5 -23l-13 54q-7 25 -26 40t-45 15v0z" />
    <glyph glyph-name="hand-pointer" unicode="&#xf25a;" horiz-adv-x="448" 
d="M208 160q-15 -1 -16 -16v-96q1 -15 16 -16q15 1 16 16v96q-1 15 -16 16v0zM272 160q-15 -1 -16 -16v-96q2 -15 15 -16q15 1 17 16v96q-2 15 -16 16v0zM377 247q-22 26 -57 27h-14q-5 0 -11 -1q-19 15 -44 15h-11v88q-1 31 -21 51t-51 21q-31 -1 -51 -21t-21 -51v-169
q-17 7 -25 6h-1q-34 -2 -52 -23t-18 -47q0 -23 14 -42l78 -104q22 -29 54 -45t68 -16h109q10 0 19 3q43 8 73 40q32 35 33 85v110q-1 30 -21 51q-20 20 -50 22v0zM400 64q0 -30 -20 -52q-19 -21 -50 -27q-4 -1 -7 -1h-109q-52 1 -83 42l-79 104q-4 6 -4 13q1 12 8 17
q8 5 14 5q8 1 17 -9l28 -38q5 -6 13 -6q9 0 12 6q4 5 4 10v248q2 22 23 24q22 -2 24 -24v-131q0 -13 16 -16q8 1 12 5q5 5 19 6h13q16 -1 21 -11q4 -7 14 -8q5 0 9 2q4 3 11 3h14q19 -2 22 -14q4 -12 19 -13h14q23 -2 25 -25v-110v0zM336 160q-15 -1 -16 -16v-96
q1 -15 16 -16q15 1 16 16v96q-1 15 -16 16v0z" />
    <glyph glyph-name="calendar-plus" unicode="&#xf271;" horiz-adv-x="448" 
d="M224 216q22 -2 24 -24v-48h48q22 -2 24 -24q-2 -22 -24 -24h-48v-48q-2 -22 -24 -24q-22 2 -24 24v48h-48q-22 2 -24 24q2 22 24 24h48v48q2 22 24 24v0zM152 384h144v40q2 22 24 24q22 -2 24 -24v-40h40q27 -1 45 -19t19 -45v-320q-1 -27 -19 -45t-45 -19h-320
q-27 1 -45 19t-19 45v320q1 27 19 45t45 19h40v40q2 22 24 24q22 -2 24 -24v-40v0zM48 0q1 -15 16 -16h320q15 1 16 16v256h-352v-256v0z" />
    <glyph glyph-name="calendar-minus" unicode="&#xf272;" horiz-adv-x="448" 
d="M152 96q-22 2 -24 24q2 22 24 24h144q22 -2 24 -24q-2 -22 -24 -24h-144v0zM128 448q22 -2 24 -24v-40h144v40q2 22 24 24q22 -2 24 -24v-40h40q27 -1 45 -19t19 -45v-320q-1 -27 -19 -45t-45 -19h-320q-27 1 -45 19t-19 45v320q1 27 19 45t45 19h40v40q2 22 24 24v0z
M400 256h-352v-256q1 -15 16 -16h320q15 1 16 16v256v0z" />
    <glyph glyph-name="calendar-xmark" unicode="&#xf273;" horiz-adv-x="448" 
d="M258 120l46 -47q15 -17 0 -33q-16 -15 -33 0l-47 46l-48 -46q-16 -15 -33 0q-14 16 0 33l47 47l-47 48q-14 16 0 33q17 14 33 0l48 -47l47 47q17 14 33 0q15 -17 0 -33l-46 -48v0zM128 448q22 -2 24 -24v-40h144v40q2 22 24 24q22 -2 24 -24v-40h40q27 -1 45 -19t19 -45
v-320q-1 -27 -19 -45t-45 -19h-320q-27 1 -45 19t-19 45v320q1 27 19 45t45 19h40v40q2 22 24 24v0zM400 256h-352v-256q1 -15 16 -16h320q15 1 16 16v256v0z" />
    <glyph glyph-name="calendar-check" unicode="&#xf274;" horiz-adv-x="448" 
d="M216 40q-16 -15 -33 0l-64 64q-14 16 0 33q17 14 33 0l48 -47l95 95q17 14 33 0q15 -17 0 -33l-112 -112v0zM128 448q22 -2 24 -24v-40h144v40q2 22 24 24q22 -2 24 -24v-40h40q27 -1 45 -19t19 -45v-320q-1 -27 -19 -45t-45 -19h-320q-27 1 -45 19t-19 45v320
q1 27 19 45t45 19h40v40q2 22 24 24v0zM400 256h-352v-256q1 -15 16 -16h320q15 1 16 16v256v0z" />
    <glyph glyph-name="map" unicode="&#x1f5fa;" horiz-adv-x="576" 
d="M554 415l-170 -62l-172 60q-10 3 -20 3t-20 -3l-152 -52q-19 -10 -20 -31v-346q0 -8 7 -13q6 -5 15 -2l170 64l172 -61q20 -6 40 0l152 53q19 7 20 29v346q0 8 -7 13q-6 5 -15 2v0zM224 358l128 -46v-286l-128 46v286v0zM48 31v288l128 45v-287l-128 -46v0zM528 65
l-128 -45v287l128 47v-289v0z" />
    <glyph glyph-name="map" unicode="&#xf279;" horiz-adv-x="576" 
d="M554 415l-170 -62l-172 60q-10 3 -20 3t-20 -3l-152 -52q-19 -10 -20 -31v-346q0 -8 7 -13q6 -5 15 -2l170 64l172 -61q20 -6 40 0l152 53q19 7 20 29v346q0 8 -7 13q-6 5 -15 2v0zM224 358l128 -46v-286l-128 46v286v0zM48 31v288l128 45v-287l-128 -46v0zM528 65
l-128 -45v287l128 47v-289v0z" />
    <glyph glyph-name="map" unicode="&#xf278;" horiz-adv-x="576" 
d="M554 415l-170 -62l-172 60q-10 3 -20 3t-20 -3l-152 -52q-19 -10 -20 -31v-346q0 -8 7 -13q6 -5 15 -2l170 64l172 -61q20 -6 40 0l152 53q19 7 20 29v346q0 8 -7 13q-6 5 -15 2v0zM224 358l128 -46v-286l-128 46v286v0zM48 31v288l128 45v-287l-128 -46v0zM528 65
l-128 -45v287l128 47v-289v0z" />
    <glyph glyph-name="message" unicode="&#xf27a;" 
d="M447 448h-384q-27 -1 -45 -19t-19 -44v-287q1 -27 19 -45t45 -18h96v-84q1 -8 7 -11t12 1l125 94h144q27 0 45 18t19 45v287q-1 26 -18 44q-18 18 -46 19v0zM464 96q-1 -15 -16 -16h-160l-80 -60v60h-144q-15 1 -16 16v288q1 15 16 16h384q15 -1 16 -16v-288v0z" />
    <glyph glyph-name="comment-dots" unicode="&#x1f4ac;" 
d="M144 240q-14 0 -23 -9v0q-9 -9 -9 -22q0 -14 9 -24q9 -9 23 -9t22 9q9 9 9 23t-9 23q-8 9 -22 9v0zM256 241q-14 0 -22 -9v0q-9 -9 -9 -23t9 -22q9 -9 22 -9t22 9t9 22t-9 22q-8 9 -22 10v0zM368 240q-14 0 -22 -9v0q-9 -9 -9 -23t9 -23t22 -9q14 0 23 9t9 23t-9 23
t-23 9v0zM256 417q-71 -1 -129 -28v0q-57 -28 -91 -75v0q-34 -47 -35 -105q2 -73 53 -126q-13 -31 -29 -52t-18 -22q-10 -11 -4 -26q5 -14 21 -15q46 1 81 15q35 15 58 31q44 -14 93 -14q71 1 129 28q57 28 91 75q34 46 35 104q-1 58 -35 105t-91 76q-58 28 -129 29v0z
M256 48q-40 0 -78 12l-23 7l-20 -14q-21 -16 -57 -29q11 19 20 41l10 28l-20 22q-14 14 -27 38q-12 23 -13 55q2 68 61 113q58 45 146 47q88 -2 146 -47q59 -45 61 -113q-2 -68 -60 -113t-146 -47v0z" />
    <glyph glyph-name="comment-dots" unicode="&#xf4ad;" 
d="M144 240q-14 0 -23 -9v0q-9 -9 -9 -22q0 -14 9 -24q9 -9 23 -9t22 9q9 9 9 23t-9 23q-8 9 -22 9v0zM256 241q-14 0 -22 -9v0q-9 -9 -9 -23t9 -22q9 -9 22 -9t22 9t9 22t-9 22q-8 9 -22 10v0zM368 240q-14 0 -22 -9v0q-9 -9 -9 -23t9 -23t22 -9q14 0 23 9t9 23t-9 23
t-23 9v0zM256 417q-71 -1 -129 -28v0q-57 -28 -91 -75v0q-34 -47 -35 -105q2 -73 53 -126q-13 -31 -29 -52t-18 -22q-10 -11 -4 -26q5 -14 21 -15q46 1 81 15q35 15 58 31q44 -14 93 -14q71 1 129 28q57 28 91 75q34 46 35 104q-1 58 -35 105t-91 76q-58 28 -129 29v0z
M256 48q-40 0 -78 12l-23 7l-20 -14q-21 -16 -57 -29q11 19 20 41l10 28l-20 22q-14 14 -27 38q-12 23 -13 55q2 68 61 113q58 45 146 47q88 -2 146 -47q59 -45 61 -113q-2 -68 -60 -113t-146 -47v0z" />
    <glyph glyph-name="comment-dots" unicode="&#xf27b;" 
d="M144 240q-14 0 -23 -9v0q-9 -9 -9 -22q0 -14 9 -24q9 -9 23 -9t22 9q9 9 9 23t-9 23q-8 9 -22 9v0zM256 241q-14 0 -22 -9v0q-9 -9 -9 -23t9 -22q9 -9 22 -9t22 9t9 22t-9 22q-8 9 -22 10v0zM368 240q-14 0 -22 -9v0q-9 -9 -9 -23t9 -23t22 -9q14 0 23 9t9 23t-9 23
t-23 9v0zM256 417q-71 -1 -129 -28v0q-57 -28 -91 -75v0q-34 -47 -35 -105q2 -73 53 -126q-13 -31 -29 -52t-18 -22q-10 -11 -4 -26q5 -14 21 -15q46 1 81 15q35 15 58 31q44 -14 93 -14q71 1 129 28q57 28 91 75q34 46 35 104q-1 58 -35 105t-91 76q-58 28 -129 29v0z
M256 48q-40 0 -78 12l-23 7l-20 -14q-21 -16 -57 -29q11 19 20 41l10 28l-20 22q-14 14 -27 38q-12 23 -13 55q2 68 61 113q58 45 146 47q88 -2 146 -47q59 -45 61 -113q-2 -68 -60 -113t-146 -47v0z" />
    <glyph glyph-name="circle-pause" unicode="&#xf28c;" 
d="M200 288q-22 -2 -24 -24v-144q2 -22 24 -24q22 2 24 24v144q-2 22 -24 24v0zM312 288q-22 -2 -24 -24v-144q2 -22 24 -24q22 2 24 24v144q-2 22 -24 24v0zM256 448q-72 -1 -129 -35v0q-58 -34 -92 -92v0q-34 -57 -35 -129q1 -72 35 -129q34 -58 92 -92q57 -34 129 -35
q72 1 129 35q58 34 92 92q34 57 35 129q-1 72 -35 129q-34 58 -92 92q-57 34 -129 35v0zM256 -16q-88 2 -147 61v0q-59 59 -61 147q2 88 61 147t147 61q88 -2 147 -61t61 -147q-2 -88 -61 -147t-147 -61v0z" />
    <glyph glyph-name="circle-pause" unicode="&#xf28b;" 
d="M200 288q-22 -2 -24 -24v-144q2 -22 24 -24q22 2 24 24v144q-2 22 -24 24v0zM312 288q-22 -2 -24 -24v-144q2 -22 24 -24q22 2 24 24v144q-2 22 -24 24v0zM256 448q-72 -1 -129 -35v0q-58 -34 -92 -92v0q-34 -57 -35 -129q1 -72 35 -129q34 -58 92 -92q57 -34 129 -35
q72 1 129 35q58 34 92 92q34 57 35 129q-1 72 -35 129q-34 58 -92 92q-57 34 -129 35v0zM256 -16q-88 2 -147 61v0q-59 59 -61 147q2 88 61 147t147 61q88 -2 147 -61t61 -147q-2 -88 -61 -147t-147 -61v0z" />
    <glyph glyph-name="circle-stop" unicode="&#xf28e;" 
d="M328 288h-144q-22 -2 -24 -24v-144q2 -22 24 -24h144q22 2 24 24v144q-2 22 -24 24v0zM256 448q-72 -1 -129 -35v0q-58 -34 -92 -92v0q-34 -57 -35 -129q1 -72 35 -129q34 -58 92 -92q57 -34 129 -35q72 1 129 35q58 34 92 92q34 57 35 129q-1 72 -35 129q-34 58 -92 92
q-57 34 -129 35v0zM256 -16q-88 2 -147 61v0q-59 59 -61 147q2 88 61 147t147 61q88 -2 147 -61t61 -147q-2 -88 -61 -147t-147 -61v0z" />
    <glyph glyph-name="circle-stop" unicode="&#xf28d;" 
d="M328 288h-144q-22 -2 -24 -24v-144q2 -22 24 -24h144q22 2 24 24v144q-2 22 -24 24v0zM256 448q-72 -1 -129 -35v0q-58 -34 -92 -92v0q-34 -57 -35 -129q1 -72 35 -129q34 -58 92 -92q57 -34 129 -35q72 1 129 35q58 34 92 92q34 57 35 129q-1 72 -35 129q-34 58 -92 92
q-57 34 -129 35v0zM256 -16q-88 2 -147 61v0q-59 59 -61 147q2 88 61 147t147 61q88 -2 147 -61t61 -147q-2 -88 -61 -147t-147 -61v0z" />
    <glyph glyph-name="handshake" unicode="&#xf2b5;" horiz-adv-x="640" 
d="M506 321q-14 17 -45 39v0q-31 23 -78 32q-35 4 -63 -18q-28 21 -63 17q-41 -7 -70 -26t-45 -36q-16 -18 -17 -20q-12 -19 5 -34q6 -4 14 -4q12 0 19 9q1 4 28 29t73 35q11 1 21 -5l-58 -59q-19 -19 -20 -47q0 -27 19 -46q21 -18 47 -18q27 0 47 19l11 11l124 -100
q4 -4 1 -8l-28 -36q-3 -4 -7 -1l-22 18l-26 -27q-5 -4 -7 -4q-3 -1 -7 2l-33 27l-15 -14l-3 -3q-9 -11 -23 -13q-15 -1 -25 7l-90 81h-74v192h-96v-256h64q18 1 27 16h61l77 -69q23 -19 52 -19h8q21 3 38 14l1 -1q19 -15 43 -13q20 3 33 16q17 -6 33 -2q17 4 29 18l27 36
q14 18 12 39t-19 36l-121 98l9 8q14 17 0 34q-17 14 -34 0l-54 -54q-13 -10 -25 0q-5 5 -5 13q0 7 5 12l86 88q13 12 29 10q46 -10 73 -35t28 -29q5 -6 12 -8h55v-175q0 -14 9 -23t22 -9l65 -1v256l-134 1v0zM48 96q-15 1 -16 16q1 15 16 16q15 -1 16 -16q-1 -15 -16 -16v0z
M592 96q-15 1 -16 16q1 15 16 16q15 -1 16 -16q-1 -15 -16 -16v0z" />
    <glyph glyph-name="envelope-open" unicode="&#xf2b7;" 
d="M494 285l-28 21v0q-15 12 -47 35v0q-31 23 -90 66q-4 3 -9 7q-14 11 -31 22q-18 11 -33 12v0q-15 -1 -33 -12q-17 -11 -31 -22q-5 -4 -9 -7q-59 -43 -90 -66q-32 -23 -47 -35l-28 -21q-18 -15 -18 -38v-247q1 -27 19 -45t45 -19h384q27 1 45 19t19 45v247q0 23 -18 38v0z
M464 0q-1 -15 -16 -16h-384q-15 1 -16 16v171l136 -113q32 -26 72 -26t72 26l136 113v-171v0zM464 234l-167 -138q-18 -15 -41 -15t-41 15l-167 138v13q11 9 26 20q15 12 46 35q32 23 91 66q5 3 11 8t16 12q10 8 18 11q8 -3 18 -11q10 -7 16 -12t11 -8q59 -43 91 -66
q31 -23 46 -35q15 -11 26 -20v-13v0z" />
    <glyph glyph-name="envelope-open" unicode="&#xf2b6;" 
d="M494 285l-28 21v0q-15 12 -47 35v0q-31 23 -90 66q-4 3 -9 7q-14 11 -31 22q-18 11 -33 12v0q-15 -1 -33 -12q-17 -11 -31 -22q-5 -4 -9 -7q-59 -43 -90 -66q-32 -23 -47 -35l-28 -21q-18 -15 -18 -38v-247q1 -27 19 -45t45 -19h384q27 1 45 19t19 45v247q0 23 -18 38v0z
M464 0q-1 -15 -16 -16h-384q-15 1 -16 16v171l136 -113q32 -26 72 -26t72 26l136 113v-171v0zM464 234l-167 -138q-18 -15 -41 -15t-41 15l-167 138v13q11 9 26 20q15 12 46 35q32 23 91 66q5 3 11 8t16 12q10 8 18 11q8 -3 18 -11q10 -7 16 -12t11 -8q59 -43 91 -66
q31 -23 46 -35q15 -11 26 -20v-13v0z" />
    <glyph glyph-name="address-book" unicode="&#xf2ba;" 
d="M272 160h-64q-34 -1 -57 -23q-22 -23 -23 -57q1 -15 16 -16h192q15 1 16 16q-1 34 -23 57q-23 22 -57 23v0zM240 192q27 1 45 19v0q18 18 19 45q-1 27 -19 45t-45 19q-27 -1 -45 -19t-19 -45q1 -27 19 -45t45 -19v0zM496 128h-16v-96h16q15 1 16 16v64q-1 15 -16 16v0z
M496 384h-16v-96h16q15 1 16 16v64q-1 15 -16 16v0zM496 256h-16v-96h16q15 1 16 16v64q-1 15 -16 16v0zM384 448h-288q-27 -1 -45 -19t-19 -45v-384q1 -27 19 -45t45 -19h288q27 1 45 19t19 45v384q-1 27 -19 45t-45 19v0zM400 0q-1 -15 -16 -16h-288q-15 1 -16 16v384
q1 15 16 16h288q15 -1 16 -16v-384v0z" />
    <glyph glyph-name="address-book" unicode="&#xf2b9;" 
d="M272 160h-64q-34 -1 -57 -23q-22 -23 -23 -57q1 -15 16 -16h192q15 1 16 16q-1 34 -23 57q-23 22 -57 23v0zM240 192q27 1 45 19v0q18 18 19 45q-1 27 -19 45t-45 19q-27 -1 -45 -19t-19 -45q1 -27 19 -45t45 -19v0zM496 128h-16v-96h16q15 1 16 16v64q-1 15 -16 16v0z
M496 384h-16v-96h16q15 1 16 16v64q-1 15 -16 16v0zM496 256h-16v-96h16q15 1 16 16v64q-1 15 -16 16v0zM384 448h-288q-27 -1 -45 -19t-19 -45v-384q1 -27 19 -45t45 -19h288q27 1 45 19t19 45v384q-1 27 -19 45t-45 19v0zM400 0q-1 -15 -16 -16h-288q-15 1 -16 16v384
q1 15 16 16h288q15 -1 16 -16v-384v0z" />
    <glyph glyph-name="address-card" unicode="&#xf2bc;" horiz-adv-x="576" 
d="M208 192q27 1 45 19v0q18 18 19 45q-1 27 -19 45t-45 19q-27 -1 -45 -19t-19 -45q1 -27 19 -45t45 -19v0zM464 216h-96q-22 -2 -24 -24q2 -22 24 -24h96q22 2 24 24q-2 22 -24 24v0zM240 160h-64q-34 -1 -57 -23q-22 -23 -23 -57q1 -15 16 -16h192q15 1 16 16
q-1 34 -23 57q-23 22 -57 23v0zM464 296h-96q-22 -2 -24 -24q2 -22 24 -24h96q22 2 24 24q-2 22 -24 24v0zM512 416h-448q-27 -1 -45 -19t-19 -45v-320q1 -27 19 -45t45 -19h448q27 1 45 19t19 45v320q-1 27 -19 45t-45 19v0zM528 32q-1 -15 -16 -16h-448q-15 1 -16 16v320
q1 15 16 16h448q15 -1 16 -16v-320v0z" />
    <glyph glyph-name="address-card" unicode="&#xf2bb;" horiz-adv-x="576" 
d="M208 192q27 1 45 19v0q18 18 19 45q-1 27 -19 45t-45 19q-27 -1 -45 -19t-19 -45q1 -27 19 -45t45 -19v0zM464 216h-96q-22 -2 -24 -24q2 -22 24 -24h96q22 2 24 24q-2 22 -24 24v0zM240 160h-64q-34 -1 -57 -23q-22 -23 -23 -57q1 -15 16 -16h192q15 1 16 16
q-1 34 -23 57q-23 22 -57 23v0zM464 296h-96q-22 -2 -24 -24q2 -22 24 -24h96q22 2 24 24q-2 22 -24 24v0zM512 416h-448q-27 -1 -45 -19t-19 -45v-320q1 -27 19 -45t45 -19h448q27 1 45 19t19 45v320q-1 27 -19 45t-45 19v0zM528 32q-1 -15 -16 -16h-448q-15 1 -16 16v320
q1 15 16 16h448q15 -1 16 -16v-320v0z" />
    <glyph glyph-name="circle-user" unicode="&#xf2be;" 
d="M256 336q-37 -1 -62 -26v0q-25 -25 -26 -62q1 -37 26 -62t62 -26q37 1 62 26t26 62q-1 37 -26 62t-62 26v0zM256 208q-17 0 -28 12v0q-12 11 -12 28t12 28q11 12 28 12t28 -12q12 -11 12 -28t-12 -28q-11 -12 -28 -12v0zM256 448q-72 -1 -129 -35v0q-58 -34 -92 -92v0
q-34 -57 -35 -129q1 -72 35 -129q34 -58 92 -92q57 -34 129 -35q72 1 129 35q58 34 92 92q34 57 35 129q-1 72 -35 129q-34 58 -92 92q-57 34 -129 35v0zM256 -16q-71 1 -124 42q13 25 36 39q23 15 52 15h72q29 0 52 -15q23 -14 37 -39q-54 -41 -125 -42v0zM416 59
q-20 32 -53 51v0q-32 18 -71 18h-72q-39 0 -71 -18t-53 -50q-46 55 -48 132q2 88 61 147t147 61q88 -2 147 -61t61 -147q-2 -77 -48 -133v0z" />
    <glyph glyph-name="circle-user" unicode="&#xf2bd;" 
d="M256 336q-37 -1 -62 -26v0q-25 -25 -26 -62q1 -37 26 -62t62 -26q37 1 62 26t26 62q-1 37 -26 62t-62 26v0zM256 208q-17 0 -28 12v0q-12 11 -12 28t12 28q11 12 28 12t28 -12q12 -11 12 -28t-12 -28q-11 -12 -28 -12v0zM256 448q-72 -1 -129 -35v0q-58 -34 -92 -92v0
q-34 -57 -35 -129q1 -72 35 -129q34 -58 92 -92q57 -34 129 -35q72 1 129 35q58 34 92 92q34 57 35 129q-1 72 -35 129q-34 58 -92 92q-57 34 -129 35v0zM256 -16q-71 1 -124 42q13 25 36 39q23 15 52 15h72q29 0 52 -15q23 -14 37 -39q-54 -41 -125 -42v0zM416 59
q-20 32 -53 51v0q-32 18 -71 18h-72q-39 0 -71 -18t-53 -50q-46 55 -48 132q2 88 61 147t147 61q88 -2 147 -61t61 -147q-2 -77 -48 -133v0z" />
    <glyph glyph-name="id-badge" unicode="&#xf2c1;" horiz-adv-x="384" 
d="M320 448h-256q-27 -1 -45 -19t-19 -45v-384q1 -27 19 -45t45 -19h256q27 1 45 19t19 45v384q-1 27 -19 45t-45 19v0zM336 0q-1 -15 -16 -16h-256q-15 1 -16 16v384q1 15 16 16h64v-16q0 -14 9 -23t23 -9h64q14 0 23 9t9 23v16h64q15 -1 16 -16v-384v0zM192 160
q27 1 45 19v0q18 18 19 45q-1 27 -19 45t-45 19q-27 -1 -45 -19t-19 -45q1 -27 19 -45t45 -19v0zM224 128h-64q-34 -1 -57 -23q-22 -23 -23 -57q1 -15 16 -16h192q15 1 16 16q-1 34 -23 57q-23 22 -57 23v0z" />
    <glyph glyph-name="id-card" unicode="&#xf2c3;" horiz-adv-x="576" 
d="M368 104h96q22 2 24 24q-2 22 -24 24h-96q-22 -2 -24 -24q2 -22 24 -24v0zM208 128q27 1 45 19v0q18 18 19 45q-1 27 -19 45t-45 19q-27 -1 -45 -19t-19 -45q1 -27 19 -45t45 -19v0zM512 416h-448q-27 -1 -45 -19t-19 -45v-320q1 -27 19 -45t45 -19h448q27 1 45 19t19 45
v320q-1 27 -19 45t-45 19v0zM528 32q-1 -15 -16 -16h-192q-1 34 -23 57q-23 22 -57 23h-64q-34 -1 -57 -23q-22 -23 -23 -57h-32q-15 1 -16 16v256h480v-256v0zM368 184h96q22 2 24 24q-2 22 -24 24h-96q-22 -2 -24 -24q2 -22 24 -24v0z" />
    <glyph glyph-name="id-card" unicode="&#xf2c2;" horiz-adv-x="576" 
d="M368 104h96q22 2 24 24q-2 22 -24 24h-96q-22 -2 -24 -24q2 -22 24 -24v0zM208 128q27 1 45 19v0q18 18 19 45q-1 27 -19 45t-45 19q-27 -1 -45 -19t-19 -45q1 -27 19 -45t45 -19v0zM512 416h-448q-27 -1 -45 -19t-19 -45v-320q1 -27 19 -45t45 -19h448q27 1 45 19t19 45
v320q-1 27 -19 45t-45 19v0zM528 32q-1 -15 -16 -16h-192q-1 34 -23 57q-23 22 -57 23h-64q-34 -1 -57 -23q-22 -23 -23 -57h-32q-15 1 -16 16v256h480v-256v0zM368 184h96q22 2 24 24q-2 22 -24 24h-96q-22 -2 -24 -24q2 -22 24 -24v0z" />
    <glyph glyph-name="window-maximize" unicode="&#x1f5d6;" 
d="M0 352v-320q1 -27 19 -45t45 -19h384q27 1 45 19t19 45v320q-1 27 -19 45q-18 17 -45 18h-384q-27 0 -45 -18t-19 -45v0zM48 224h416v-192q-1 -15 -16 -16h-384q-15 1 -16 16v192v0z" />
    <glyph glyph-name="window-maximize" unicode="&#xf2d0;" 
d="M0 352v-320q1 -27 19 -45t45 -19h384q27 1 45 19t19 45v320q-1 27 -19 45q-18 17 -45 18h-384q-27 0 -45 -18t-19 -45v0zM48 224h416v-192q-1 -15 -16 -16h-384q-15 1 -16 16v192v0z" />
    <glyph glyph-name="window-minimize" unicode="&#x1f5d5;" 
d="M480 -32h-448q-14 0 -23 9t-9 23t9 23t23 9h448q14 0 23 -9t9 -23t-9 -23t-23 -9v0z" />
    <glyph glyph-name="window-minimize" unicode="&#xf2d1;" 
d="M480 -32h-448q-14 0 -23 9t-9 23t9 23t23 9h448q14 0 23 -9t9 -23t-9 -23t-23 -9v0z" />
    <glyph glyph-name="window-restore" unicode="&#xf2d2;" 
d="M320 320h-256q-27 -1 -45 -19t-19 -45v-256q1 -27 19 -45t45 -19h256q27 1 45 19t19 45v256q-1 27 -19 45t-45 19v0zM336 0q-1 -15 -16 -16h-256q-15 1 -16 16v192h288v-192v0zM448 448h-256q-27 -1 -45 -19t-19 -44v-17h48v16q1 15 16 16h256q15 -1 16 -16v-256
q-1 -15 -16 -16h-16v-48h16q27 1 45 19t19 45v256q-1 27 -19 45t-45 19v0z" />
    <glyph glyph-name="rectangle-xmark" unicode="&#xf410;" 
d="M448 416h-384q-27 -1 -45 -19t-19 -45v-320q1 -27 19 -45t45 -19h384q27 1 45 19t19 45v320q-1 27 -19 45t-45 19v0zM464 32q-1 -15 -16 -16h-384q-15 1 -16 16v320q1 15 16 16h384q15 -1 16 -16v-320v0zM336 273q-17 14 -34 0l-46 -47l-48 47q-17 14 -34 0
q-14 -17 0 -34l47 -47l-46 -47q-14 -17 0 -34q17 -14 34 0l47 47l47 -47q17 -14 34 0q14 17 0 34l-47 47l47 47q14 17 -1 34v0z" />
    <glyph glyph-name="rectangle-xmark" unicode="&#xf2d4;" 
d="M448 416h-384q-27 -1 -45 -19t-19 -45v-320q1 -27 19 -45t45 -19h384q27 1 45 19t19 45v320q-1 27 -19 45t-45 19v0zM464 32q-1 -15 -16 -16h-384q-15 1 -16 16v320q1 15 16 16h384q15 -1 16 -16v-320v0zM336 273q-17 14 -34 0l-46 -47l-48 47q-17 14 -34 0
q-14 -17 0 -34l47 -47l-46 -47q-14 -17 0 -34q17 -14 34 0l47 47l47 -47q17 -14 34 0q14 17 0 34l-47 47l47 47q14 17 -1 34v0z" />
    <glyph glyph-name="images" unicode="&#xf302;" horiz-adv-x="576" 
d="M512 416h-352q-27 -1 -45 -19t-19 -45v-224q1 -27 19 -45t45 -19h352q27 1 45 19t19 45v224q-1 27 -19 45t-45 19v0zM528 128q-1 -15 -16 -16h-16l-109 161q-5 7 -14 7q-8 0 -13 -7l-63 -94l-22 30q-5 7 -13 7t-13 -7l-73 -97h-16q-15 1 -16 16v224q1 15 16 16h352
q15 -1 16 -16v-224v0zM224 336q-14 0 -23 -9v0q-9 -9 -9 -23t9 -23t23 -9t23 9t9 23t-9 23t-23 9v0zM456 -32h-336q-51 1 -85 35t-35 85v240q2 22 24 24q22 -2 24 -24v-240q1 -31 21 -51t51 -21h336q22 -2 24 -24q-2 -22 -24 -24v0z" />
    <glyph glyph-name="clipboard" unicode="&#x1f4cb;" horiz-adv-x="384" 
d="M320 384h-50q-6 28 -27 46q-21 17 -51 18q-30 -1 -51 -18q-21 -18 -27 -46h-50q-27 -1 -45 -19t-19 -45v-320q1 -27 19 -45t45 -19h256q27 1 45 19t19 45v320q-1 27 -19 45t-45 19v0zM192 400q22 -2 24 -24q-2 -22 -24 -24q-22 2 -24 24q2 22 24 24v0zM336 0
q-1 -15 -16 -16h-256q-15 1 -16 16v320q1 15 16 16h18q-2 -8 -2 -16v-16q1 -15 16 -16h192q15 1 16 16v16q0 8 -2 16h18q15 -1 16 -16v-320v0z" />
    <glyph glyph-name="clipboard" unicode="&#xf328;" horiz-adv-x="384" 
d="M320 384h-50q-6 28 -27 46q-21 17 -51 18q-30 -1 -51 -18q-21 -18 -27 -46h-50q-27 -1 -45 -19t-19 -45v-320q1 -27 19 -45t45 -19h256q27 1 45 19t19 45v320q-1 27 -19 45t-45 19v0zM192 400q22 -2 24 -24q-2 -22 -24 -24q-22 2 -24 24q2 22 24 24v0zM336 0
q-1 -15 -16 -16h-256q-15 1 -16 16v320q1 15 16 16h18q-2 -8 -2 -16v-16q1 -15 16 -16h192q15 1 16 16v16q0 8 -2 16h18q15 -1 16 -16v-320v0z" />
    <glyph glyph-name="gem" unicode="&#x1f48e;" 
d="M508 252l-104 153q-8 11 -20 11h-257q-11 0 -19 -11l-103 -153q-9 -16 2 -30l232 -246q7 -8 17 -8t17 8l232 246q12 14 3 30v0zM383 351l63 -95h-140l77 95v0zM256 269l-78 99h156l-78 -99v0zM130 351l75 -95h-140l65 95v0zM256 27l-171 181h342l-171 -181v0z" />
    <glyph glyph-name="gem" unicode="&#xf3a5;" 
d="M508 252l-104 153q-8 11 -20 11h-257q-11 0 -19 -11l-103 -153q-9 -16 2 -30l232 -246q7 -8 17 -8t17 8l232 246q12 14 3 30v0zM383 351l63 -95h-140l77 95v0zM256 269l-78 99h156l-78 -99v0zM130 351l75 -95h-140l65 95v0zM256 27l-171 181h342l-171 -181v0z" />
    <glyph glyph-name="money-bill-1" unicode="&#xf3d1;" horiz-adv-x="576" 
d="M336 148v-24q-1 -11 -12 -12h-72q-11 1 -12 12v24q1 11 12 12h12v64h-12q-6 0 -10 6t-1 12l13 23q3 7 10 7h36q11 -1 12 -12v-100h12q11 -1 12 -12v0zM576 320v-256q-1 -27 -19 -45t-45 -19h-448q-27 1 -45 19t-19 45v256q1 27 19 45t45 19h448q27 -1 45 -19t19 -45v0z
M528 272q-27 1 -45 19v0q-18 18 -19 45h-352q-1 -27 -19 -45t-45 -19v-160q27 -1 45 -19t19 -45h352q1 27 19 45t45 19v160v0z" />
    <glyph glyph-name="face-smile-wink" unicode="&#x1f609;" 
d="M340 135q-33 -38 -84 -39q-51 1 -84 39q-16 16 -34 3q-15 -15 -3 -33q48 -56 121 -57q73 1 121 57q12 18 -3 33q-18 13 -34 -3v0zM175 208q14 0 23 9v0q9 9 9 23t-9 23t-23 9t-23 -9t-9 -23q1 -14 10 -23t22 -9v0zM336 268q-20 0 -38 -12v0q-18 -11 -22 -30q-1 -9 6 -13
q7 -3 14 2l9 9q13 9 31 9t30 -9l10 -9q7 -5 14 -1q7 3 6 12q-4 20 -22 31t-38 11v0zM256 448q-72 -1 -129 -35v0q-58 -34 -92 -92v0q-34 -57 -35 -129q1 -72 35 -129q34 -58 92 -92q57 -34 129 -35q72 1 129 35q58 34 92 92q34 57 35 129q-1 72 -35 129q-34 58 -92 92
q-57 34 -129 35v0zM256 -16q-88 2 -147 61v0q-59 59 -61 147q2 88 61 147t147 61q88 -2 147 -61t61 -147q-2 -88 -61 -147t-147 -61v0z" />
    <glyph glyph-name="face-smile-wink" unicode="&#xf4da;" 
d="M340 135q-33 -38 -84 -39q-51 1 -84 39q-16 16 -34 3q-15 -15 -3 -33q48 -56 121 -57q73 1 121 57q12 18 -3 33q-18 13 -34 -3v0zM175 208q14 0 23 9v0q9 9 9 23t-9 23t-23 9t-23 -9t-9 -23q1 -14 10 -23t22 -9v0zM336 268q-20 0 -38 -12v0q-18 -11 -22 -30q-1 -9 6 -13
q7 -3 14 2l9 9q13 9 31 9t30 -9l10 -9q7 -5 14 -1q7 3 6 12q-4 20 -22 31t-38 11v0zM256 448q-72 -1 -129 -35v0q-58 -34 -92 -92v0q-34 -57 -35 -129q1 -72 35 -129q34 -58 92 -92q57 -34 129 -35q72 1 129 35q58 34 92 92q34 57 35 129q-1 72 -35 129q-34 58 -92 92
q-57 34 -129 35v0zM256 -16q-88 2 -147 61v0q-59 59 -61 147q2 88 61 147t147 61q88 -2 147 -61t61 -147q-2 -88 -61 -147t-147 -61v0z" />
    <glyph glyph-name="face-angry" unicode="&#x1f620;" 
d="M256 136q-52 -1 -87 -41q-12 -18 3 -33q18 -13 34 3q20 22 50 22t50 -22q15 -16 34 -3q15 15 3 33q-35 40 -87 41v0zM208 208q17 1 23 17q4 22 -16 30l-80 24q-22 4 -30 -16q-4 -22 16 -30l28 -9q-5 -7 -6 -16q0 -14 10 -23q9 -9 22 -9q14 0 24 9q9 9 9 23v0zM407 263
q-8 20 -30 16l-80 -24q-20 -8 -16 -30q6 -16 23 -17q0 -14 9 -23t22 -9q14 0 23 9t9 23q0 9 -5 17l28 8q22 8 17 30v0zM256 448q-72 -1 -129 -35v0q-58 -34 -92 -92v0q-34 -57 -35 -129q1 -72 35 -129q34 -58 92 -92q57 -34 129 -35q72 1 129 35q58 34 92 92q34 57 35 129
q-1 72 -35 129q-34 58 -92 92q-57 34 -129 35v0zM256 -16q-88 2 -147 61v0q-59 59 -61 147q2 88 61 147t147 61q88 -2 147 -61t61 -147q-2 -88 -61 -147t-147 -61v0z" />
    <glyph glyph-name="face-angry" unicode="&#xf556;" 
d="M256 136q-52 -1 -87 -41q-12 -18 3 -33q18 -13 34 3q20 22 50 22t50 -22q15 -16 34 -3q15 15 3 33q-35 40 -87 41v0zM208 208q17 1 23 17q4 22 -16 30l-80 24q-22 4 -30 -16q-4 -22 16 -30l28 -9q-5 -7 -6 -16q0 -14 10 -23q9 -9 22 -9q14 0 24 9q9 9 9 23v0zM407 263
q-8 20 -30 16l-80 -24q-20 -8 -16 -30q6 -16 23 -17q0 -14 9 -23t22 -9q14 0 23 9t9 23q0 9 -5 17l28 8q22 8 17 30v0zM256 448q-72 -1 -129 -35v0q-58 -34 -92 -92v0q-34 -57 -35 -129q1 -72 35 -129q34 -58 92 -92q57 -34 129 -35q72 1 129 35q58 34 92 92q34 57 35 129
q-1 72 -35 129q-34 58 -92 92q-57 34 -129 35v0zM256 -16q-88 2 -147 61v0q-59 59 -61 147q2 88 61 147t147 61q88 -2 147 -61t61 -147q-2 -88 -61 -147t-147 -61v0z" />
    <glyph glyph-name="face-dizzy" unicode="&#xf567;" 
d="M256 176q-27 -1 -45 -19v0q-18 -18 -19 -45q1 -27 19 -45t45 -19q27 1 45 19t19 45q-1 27 -19 45t-45 19v0zM382 302q-14 12 -28 0l-18 -18l-18 18q-14 12 -28 0q-12 -14 0 -28l18 -18l-18 -18q-12 -14 0 -28q14 -12 28 0l18 17l18 -17q14 -12 28 0q12 14 0 28l-18 18
l18 18q12 14 0 28v0zM222 210q12 14 0 28l-18 18l18 18q12 14 0 28q-14 12 -28 0l-18 -18l-18 18q-14 12 -28 0q-12 -14 0 -28l18 -18l-18 -18q-12 -14 0 -28q14 -12 28 0l17 17l18 -17q15 -12 29 0v0zM256 448q-72 -1 -129 -35v0q-58 -34 -92 -92v0q-34 -57 -35 -129
q1 -72 35 -129q34 -58 92 -92q57 -34 129 -35q72 1 129 35q58 34 92 92q34 57 35 129q-1 72 -35 129q-34 58 -92 92q-57 34 -129 35v0zM256 -16q-88 2 -147 61v0q-59 59 -61 147q2 88 61 147t147 61q88 -2 147 -61t61 -147q-2 -88 -61 -147t-147 -61v0z" />
    <glyph glyph-name="face-flushed" unicode="&#x1f633;" 
d="M352 296q-31 -1 -51 -21v0q-20 -20 -21 -51q1 -31 21 -51t51 -21q31 1 51 21t21 51q-1 31 -21 51t-51 21v0zM352 184q-17 0 -29 12v0q-11 11 -11 28t12 28q11 12 28 12t28 -12q12 -11 12 -28t-12 -28q-11 -12 -28 -12v0zM159 248q-22 -2 -24 -24q2 -22 24 -24q22 2 24 24
q-1 22 -24 24v0zM231 224q-1 31 -21 51v0q-20 20 -51 21q-31 -1 -51 -21t-21 -51q1 -31 21 -51t51 -21q31 1 51 21t21 51v0zM160 184q-17 0 -29 12v0q-11 11 -11 28t12 28q11 12 28 12t28 -12q12 -11 12 -28t-12 -28q-11 -12 -28 -12v0zM312 113h-113q-22 -2 -24 -24
q2 -22 24 -24h112q22 2 24 24q-2 22 -23 24v0zM352 248q-22 -2 -24 -24q2 -22 24 -24q22 2 23 24q-1 22 -23 24v0zM256 448q-72 -1 -129 -35v0q-58 -34 -92 -92v0q-34 -57 -35 -129q1 -72 35 -129q34 -58 92 -92q57 -34 129 -35q72 1 129 35q58 34 92 92q34 57 35 129
q-1 72 -35 129q-34 58 -92 92q-57 34 -129 35v0zM256 -16q-88 2 -147 61v0q-59 59 -61 147q2 88 61 147t147 61q88 -2 147 -61t61 -147q-2 -88 -61 -147t-147 -61v0z" />
    <glyph glyph-name="face-flushed" unicode="&#xf579;" 
d="M352 296q-31 -1 -51 -21v0q-20 -20 -21 -51q1 -31 21 -51t51 -21q31 1 51 21t21 51q-1 31 -21 51t-51 21v0zM352 184q-17 0 -29 12v0q-11 11 -11 28t12 28q11 12 28 12t28 -12q12 -11 12 -28t-12 -28q-11 -12 -28 -12v0zM159 248q-22 -2 -24 -24q2 -22 24 -24q22 2 24 24
q-1 22 -24 24v0zM231 224q-1 31 -21 51v0q-20 20 -51 21q-31 -1 -51 -21t-21 -51q1 -31 21 -51t51 -21q31 1 51 21t21 51v0zM160 184q-17 0 -29 12v0q-11 11 -11 28t12 28q11 12 28 12t28 -12q12 -11 12 -28t-12 -28q-11 -12 -28 -12v0zM312 113h-113q-22 -2 -24 -24
q2 -22 24 -24h112q22 2 24 24q-2 22 -23 24v0zM352 248q-22 -2 -24 -24q2 -22 24 -24q22 2 23 24q-1 22 -23 24v0zM256 448q-72 -1 -129 -35v0q-58 -34 -92 -92v0q-34 -57 -35 -129q1 -72 35 -129q34 -58 92 -92q57 -34 129 -35q72 1 129 35q58 34 92 92q34 57 35 129
q-1 72 -35 129q-34 58 -92 92q-57 34 -129 35v0zM256 -16q-88 2 -147 61v0q-59 59 -61 147q2 88 61 147t147 61q88 -2 147 -61t61 -147q-2 -88 -61 -147t-147 -61v0z" />
    <glyph glyph-name="face-frown-open" unicode="&#x1f626;" 
d="M256 160q-29 0 -59 -16v0q-30 -15 -37 -45q-1 -9 5 -15q7 -6 16 -3q49 14 75 15q26 -1 75 -15q9 -3 16 3q6 6 5 15q-7 30 -37 45q-30 16 -59 16v0zM208 240q0 14 -9 23v0q-9 9 -23 9t-23 -9t-9 -23t9 -23t23 -9t23 9t9 23v0zM336 272q-14 0 -23 -9v0q-9 -9 -9 -23t9 -23
t23 -9t23 9t9 23t-9 23t-23 9v0zM256 448q-72 -1 -129 -35v0q-58 -34 -92 -92v0q-34 -57 -35 -129q1 -72 35 -129q34 -58 92 -92q57 -34 129 -35q72 1 129 35q58 34 92 92q34 57 35 129q-1 72 -35 129q-34 58 -92 92q-57 34 -129 35v0zM256 -16q-88 2 -147 61v0
q-59 59 -61 147q2 88 61 147t147 61q88 -2 147 -61t61 -147q-2 -88 -61 -147t-147 -61v0z" />
    <glyph glyph-name="face-frown-open" unicode="&#xf57a;" 
d="M256 160q-29 0 -59 -16v0q-30 -15 -37 -45q-1 -9 5 -15q7 -6 16 -3q49 14 75 15q26 -1 75 -15q9 -3 16 3q6 6 5 15q-7 30 -37 45q-30 16 -59 16v0zM208 240q0 14 -9 23v0q-9 9 -23 9t-23 -9t-9 -23t9 -23t23 -9t23 9t9 23v0zM336 272q-14 0 -23 -9v0q-9 -9 -9 -23t9 -23
t23 -9t23 9t9 23t-9 23t-23 9v0zM256 448q-72 -1 -129 -35v0q-58 -34 -92 -92v0q-34 -57 -35 -129q1 -72 35 -129q34 -58 92 -92q57 -34 129 -35q72 1 129 35q58 34 92 92q34 57 35 129q-1 72 -35 129q-34 58 -92 92q-57 34 -129 35v0zM256 -16q-88 2 -147 61v0
q-59 59 -61 147q2 88 61 147t147 61q88 -2 147 -61t61 -147q-2 -88 -61 -147t-147 -61v0z" />
    <glyph glyph-name="face-grimace" unicode="&#x1f62c;" 
d="M336 208q14 0 23 9v0q9 9 9 23t-9 23t-23 9t-23 -9t-9 -23t9 -23t23 -9v0zM335 176h-159q-20 -1 -34 -14q-13 -14 -14 -34v-16q1 -20 14 -34q14 -13 34 -14h160q20 1 34 14q13 14 14 34l-1 16q0 20 -14 34q-13 13 -34 14v0zM184 96h-8q-15 1 -16 16v17q1 13 16 15h8v-48
v0zM240 96h-24v48h24v-48v0zM296 96h-24v48h24v-48v0zM351 112q-1 -15 -16 -16h-7v48h8q15 -1 16 -16l-1 -16v0zM176 208q14 0 23 9v0q9 9 9 23t-9 23t-23 9t-23 -9t-9 -23t9 -23t23 -9v0zM256 448q-72 -1 -129 -35v0q-58 -34 -92 -92v0q-34 -57 -35 -129q1 -72 35 -129
q34 -58 92 -92q57 -34 129 -35q72 1 129 35q58 34 92 92q34 57 35 129q-1 72 -35 129q-34 58 -92 92q-57 34 -129 35v0zM256 -16q-88 2 -147 61v0q-59 59 -61 147q2 88 61 147t147 61q88 -2 147 -61t61 -147q-2 -88 -61 -147t-147 -61v0z" />
    <glyph glyph-name="face-grimace" unicode="&#xf57f;" 
d="M336 208q14 0 23 9v0q9 9 9 23t-9 23t-23 9t-23 -9t-9 -23t9 -23t23 -9v0zM335 176h-159q-20 -1 -34 -14q-13 -14 -14 -34v-16q1 -20 14 -34q14 -13 34 -14h160q20 1 34 14q13 14 14 34l-1 16q0 20 -14 34q-13 13 -34 14v0zM184 96h-8q-15 1 -16 16v17q1 13 16 15h8v-48
v0zM240 96h-24v48h24v-48v0zM296 96h-24v48h24v-48v0zM351 112q-1 -15 -16 -16h-7v48h8q15 -1 16 -16l-1 -16v0zM176 208q14 0 23 9v0q9 9 9 23t-9 23t-23 9t-23 -9t-9 -23t9 -23t23 -9v0zM256 448q-72 -1 -129 -35v0q-58 -34 -92 -92v0q-34 -57 -35 -129q1 -72 35 -129
q34 -58 92 -92q57 -34 129 -35q72 1 129 35q58 34 92 92q34 57 35 129q-1 72 -35 129q-34 58 -92 92q-57 34 -129 35v0zM256 -16q-88 2 -147 61v0q-59 59 -61 147q2 88 61 147t147 61q88 -2 147 -61t61 -147q-2 -88 -61 -147t-147 -61v0z" />
    <glyph glyph-name="face-grin" unicode="&#x1f600;" 
d="M336 208q14 0 23 9v0q9 9 9 23t-9 23t-23 9t-23 -9t-9 -23t9 -23t23 -9v0zM175 208q14 0 23 9v0q9 9 9 23t-9 23t-23 9t-23 -9t-9 -23q1 -14 10 -23t22 -9v0zM362 143q-42 -12 -106 -13q-64 1 -106 13q-7 2 -13 -2q-5 -5 -4 -13q8 -36 45 -58q37 -21 78 -22q41 1 78 22
q37 22 45 58q1 8 -4 13q-6 4 -13 2v0zM256 448q-72 -1 -129 -35v0q-58 -34 -92 -92v0q-34 -57 -35 -129q1 -72 35 -129q34 -58 92 -92q57 -34 129 -35q72 1 129 35q58 34 92 92q34 57 35 129q-1 72 -35 129q-34 58 -92 92q-57 34 -129 35v0zM256 -16q-88 2 -147 61v0
q-59 59 -61 147q2 88 61 147t147 61q88 -2 147 -61t61 -147q-2 -88 -61 -147t-147 -61v0z" />
    <glyph glyph-name="face-grin" unicode="&#xf580;" 
d="M336 208q14 0 23 9v0q9 9 9 23t-9 23t-23 9t-23 -9t-9 -23t9 -23t23 -9v0zM175 208q14 0 23 9v0q9 9 9 23t-9 23t-23 9t-23 -9t-9 -23q1 -14 10 -23t22 -9v0zM362 143q-42 -12 -106 -13q-64 1 -106 13q-7 2 -13 -2q-5 -5 -4 -13q8 -36 45 -58q37 -21 78 -22q41 1 78 22
q37 22 45 58q1 8 -4 13q-6 4 -13 2v0zM256 448q-72 -1 -129 -35v0q-58 -34 -92 -92v0q-34 -57 -35 -129q1 -72 35 -129q34 -58 92 -92q57 -34 129 -35q72 1 129 35q58 34 92 92q34 57 35 129q-1 72 -35 129q-34 58 -92 92q-57 34 -129 35v0zM256 -16q-88 2 -147 61v0
q-59 59 -61 147q2 88 61 147t147 61q88 -2 147 -61t61 -147q-2 -88 -61 -147t-147 -61v0z" />
    <glyph glyph-name="face-grin-wide" unicode="&#x1f603;" 
d="M208 200q17 28 16 56q1 28 -16 56q-6 9 -16 9t-16 -9q-17 -28 -16 -56q-1 -28 16 -56q6 -9 16 -9t16 9v0zM362 143q-42 -12 -106 -13q-64 1 -106 13q-7 2 -13 -2q-5 -5 -4 -13q8 -36 45 -58q37 -21 78 -22q41 1 78 22q37 22 45 58q1 8 -4 13q-6 4 -13 2v0zM336 200
q17 28 16 56q1 28 -16 56q-6 9 -16 9t-16 -9q-17 -28 -16 -56q-1 -28 16 -56q6 -9 16 -9t16 9v0zM256 448q-72 -1 -129 -35v0q-58 -34 -92 -92v0q-34 -57 -35 -129q1 -72 35 -129q34 -58 92 -92q57 -34 129 -35q72 1 129 35q58 34 92 92q34 57 35 129q-1 72 -35 129
q-34 58 -92 92q-57 34 -129 35v0zM256 -16q-88 2 -147 61v0q-59 59 -61 147q2 88 61 147t147 61q88 -2 147 -61t61 -147q-2 -88 -61 -147t-147 -61v0z" />
    <glyph glyph-name="face-grin-wide" unicode="&#xf581;" 
d="M208 200q17 28 16 56q1 28 -16 56q-6 9 -16 9t-16 -9q-17 -28 -16 -56q-1 -28 16 -56q6 -9 16 -9t16 9v0zM362 143q-42 -12 -106 -13q-64 1 -106 13q-7 2 -13 -2q-5 -5 -4 -13q8 -36 45 -58q37 -21 78 -22q41 1 78 22q37 22 45 58q1 8 -4 13q-6 4 -13 2v0zM336 200
q17 28 16 56q1 28 -16 56q-6 9 -16 9t-16 -9q-17 -28 -16 -56q-1 -28 16 -56q6 -9 16 -9t16 9v0zM256 448q-72 -1 -129 -35v0q-58 -34 -92 -92v0q-34 -57 -35 -129q1 -72 35 -129q34 -58 92 -92q57 -34 129 -35q72 1 129 35q58 34 92 92q34 57 35 129q-1 72 -35 129
q-34 58 -92 92q-57 34 -129 35v0zM256 -16q-88 2 -147 61v0q-59 59 -61 147q2 88 61 147t147 61q88 -2 147 -61t61 -147q-2 -88 -61 -147t-147 -61v0z" />
    <glyph glyph-name="face-grin-beam" unicode="&#x1f604;" 
d="M145 237q12 21 31 22q19 -1 31 -22l10 -17q4 -5 9 -4q6 2 6 9q-3 32 -20 51t-37 20q-19 -1 -35 -20q-17 -19 -21 -51q1 -6 7 -9q6 -1 9 4l10 17v0zM362 143q-42 -12 -106 -13q-64 1 -106 13q-7 2 -13 -2q-5 -5 -4 -13q8 -36 45 -58q37 -21 78 -22q41 1 78 22q37 22 45 58
q1 8 -4 13q-6 4 -13 2v0zM336 296q-19 -1 -36 -20v0q-17 -19 -20 -51q0 -7 6 -9q6 -1 9 4l10 17q12 21 31 22q19 -1 32 -22l9 -17q4 -5 9 -4q6 2 6 9q-3 32 -20 51t-36 20v0zM256 448q-72 -1 -129 -35v0q-58 -34 -92 -92v0q-34 -57 -35 -129q1 -72 35 -129q34 -58 92 -92
q57 -34 129 -35q72 1 129 35q58 34 92 92q34 57 35 129q-1 72 -35 129q-34 58 -92 92q-57 34 -129 35v0zM256 -16q-88 2 -147 61v0q-59 59 -61 147q2 88 61 147t147 61q88 -2 147 -61t61 -147q-2 -88 -61 -147t-147 -61v0z" />
    <glyph glyph-name="face-grin-beam" unicode="&#xf582;" 
d="M145 237q12 21 31 22q19 -1 31 -22l10 -17q4 -5 9 -4q6 2 6 9q-3 32 -20 51t-37 20q-19 -1 -35 -20q-17 -19 -21 -51q1 -6 7 -9q6 -1 9 4l10 17v0zM362 143q-42 -12 -106 -13q-64 1 -106 13q-7 2 -13 -2q-5 -5 -4 -13q8 -36 45 -58q37 -21 78 -22q41 1 78 22q37 22 45 58
q1 8 -4 13q-6 4 -13 2v0zM336 296q-19 -1 -36 -20v0q-17 -19 -20 -51q0 -7 6 -9q6 -1 9 4l10 17q12 21 31 22q19 -1 32 -22l9 -17q4 -5 9 -4q6 2 6 9q-3 32 -20 51t-36 20v0zM256 448q-72 -1 -129 -35v0q-58 -34 -92 -92v0q-34 -57 -35 -129q1 -72 35 -129q34 -58 92 -92
q57 -34 129 -35q72 1 129 35q58 34 92 92q34 57 35 129q-1 72 -35 129q-34 58 -92 92q-57 34 -129 35v0zM256 -16q-88 2 -147 61v0q-59 59 -61 147q2 88 61 147t147 61q88 -2 147 -61t61 -147q-2 -88 -61 -147t-147 -61v0z" />
    <glyph glyph-name="face-grin-beam-sweat" unicode="&#x1f605;" 
d="M256 48q41 1 78 22v0q37 22 45 58q1 8 -4 13q-6 4 -13 2q-42 -12 -106 -13q-64 1 -106 13q-7 2 -13 -2q-5 -5 -4 -13q8 -36 45 -58q37 -21 78 -22v0zM176 259q19 -1 31 -22l10 -17q4 -5 9 -4q6 2 6 9q-3 32 -20 51t-37 20q-19 -1 -35 -20q-17 -19 -21 -51q1 -6 7 -9
q6 -1 9 4l10 17q12 21 31 22v0zM391 225q-3 32 -20 51v0q-17 19 -36 20q-19 -1 -36 -20q-16 -19 -20 -51q0 -7 6 -9q6 -1 9 4l10 17q12 21 31 22q19 -1 32 -22l9 -17q4 -5 9 -4q8 2 6 9v0zM456 272h-5v0q-2 1 -3 1q16 -38 16 -81q-2 -88 -61 -147t-147 -61q-88 2 -147 61
t-61 147q2 88 61 147t147 61q64 -1 114 -34q2 19 18 45q-60 36 -132 37q-72 -1 -129 -35q-58 -34 -92 -92q-34 -57 -35 -129q1 -71 35 -129q34 -57 92 -91q57 -34 129 -35q72 1 129 35q58 34 92 91q34 58 35 129q0 47 -16 89q-18 -9 -40 -9v0zM456 304q24 1 40 15v0
q15 15 16 38q-2 18 -19 45q-17 26 -30 42q-7 8 -14 0q-14 -16 -30 -42q-17 -27 -19 -45q1 -23 16 -38q16 -14 40 -15v0z" />
    <glyph glyph-name="face-grin-beam-sweat" unicode="&#xf583;" 
d="M256 48q41 1 78 22v0q37 22 45 58q1 8 -4 13q-6 4 -13 2q-42 -12 -106 -13q-64 1 -106 13q-7 2 -13 -2q-5 -5 -4 -13q8 -36 45 -58q37 -21 78 -22v0zM176 259q19 -1 31 -22l10 -17q4 -5 9 -4q6 2 6 9q-3 32 -20 51t-37 20q-19 -1 -35 -20q-17 -19 -21 -51q1 -6 7 -9
q6 -1 9 4l10 17q12 21 31 22v0zM391 225q-3 32 -20 51v0q-17 19 -36 20q-19 -1 -36 -20q-16 -19 -20 -51q0 -7 6 -9q6 -1 9 4l10 17q12 21 31 22q19 -1 32 -22l9 -17q4 -5 9 -4q8 2 6 9v0zM456 272h-5v0q-2 1 -3 1q16 -38 16 -81q-2 -88 -61 -147t-147 -61q-88 2 -147 61
t-61 147q2 88 61 147t147 61q64 -1 114 -34q2 19 18 45q-60 36 -132 37q-72 -1 -129 -35q-58 -34 -92 -92q-34 -57 -35 -129q1 -71 35 -129q34 -57 92 -91q57 -34 129 -35q72 1 129 35q58 34 92 91q34 58 35 129q0 47 -16 89q-18 -9 -40 -9v0zM456 304q24 1 40 15v0
q15 15 16 38q-2 18 -19 45q-17 26 -30 42q-7 8 -14 0q-14 -16 -30 -42q-17 -27 -19 -45q1 -23 16 -38q16 -14 40 -15v0z" />
    <glyph glyph-name="face-grin-hearts" unicode="&#x1f60d;" 
d="M362 143q-42 -12 -106 -13q-64 1 -106 13q-7 2 -13 -2q-5 -5 -4 -13q8 -36 45 -58q37 -21 78 -22q41 1 78 22q37 22 45 58q1 8 -4 13q-6 4 -13 2v0zM353 280l-7 -2l-2 7q-5 14 -16 22q-12 8 -26 6q-16 -3 -24 -16q-9 -13 -5 -29l20 -70q2 -7 10 -6l70 18q16 5 23 18
q7 14 2 30q-6 13 -19 19q-12 6 -26 3v0zM209 192q7 -1 10 6l20 70q4 16 -5 29q-8 13 -24 16q-14 2 -26 -6q-11 -8 -16 -22l-2 -7l-7 2q-14 3 -27 -3q-12 -6 -18 -19q-5 -16 2 -30q7 -13 23 -18l70 -18v0zM256 448q-72 -1 -129 -35v0q-58 -34 -92 -92v0q-34 -57 -35 -129
q1 -72 35 -129q34 -58 92 -92q57 -34 129 -35q72 1 129 35q58 34 92 92q34 57 35 129q-1 72 -35 129q-34 58 -92 92q-57 34 -129 35v0zM256 -16q-88 2 -147 61v0q-59 59 -61 147q2 88 61 147t147 61q88 -2 147 -61t61 -147q-2 -88 -61 -147t-147 -61v0z" />
    <glyph glyph-name="face-grin-hearts" unicode="&#xf584;" 
d="M362 143q-42 -12 -106 -13q-64 1 -106 13q-7 2 -13 -2q-5 -5 -4 -13q8 -36 45 -58q37 -21 78 -22q41 1 78 22q37 22 45 58q1 8 -4 13q-6 4 -13 2v0zM353 280l-7 -2l-2 7q-5 14 -16 22q-12 8 -26 6q-16 -3 -24 -16q-9 -13 -5 -29l20 -70q2 -7 10 -6l70 18q16 5 23 18
q7 14 2 30q-6 13 -19 19q-12 6 -26 3v0zM209 192q7 -1 10 6l20 70q4 16 -5 29q-8 13 -24 16q-14 2 -26 -6q-11 -8 -16 -22l-2 -7l-7 2q-14 3 -27 -3q-12 -6 -18 -19q-5 -16 2 -30q7 -13 23 -18l70 -18v0zM256 448q-72 -1 -129 -35v0q-58 -34 -92 -92v0q-34 -57 -35 -129
q1 -72 35 -129q34 -58 92 -92q57 -34 129 -35q72 1 129 35q58 34 92 92q34 57 35 129q-1 72 -35 129q-34 58 -92 92q-57 34 -129 35v0zM256 -16q-88 2 -147 61v0q-59 59 -61 147q2 88 61 147t147 61q88 -2 147 -61t61 -147q-2 -88 -61 -147t-147 -61v0z" />
    <glyph glyph-name="face-grin-squint" unicode="&#x1f606;" 
d="M362 143q-42 -12 -106 -13q-64 1 -106 13q-7 2 -13 -2q-5 -5 -4 -13q8 -36 45 -58q37 -21 78 -22q41 1 78 22q37 22 45 58q1 8 -4 13q-6 4 -13 2v0zM142 182l80 48q6 3 6 10t-6 10l-80 48q-8 5 -15 -2q-6 -8 0 -16l34 -40l-34 -40q-6 -8 0 -16q6 -7 15 -2v0zM385 296
q-7 7 -15 2l-80 -48q-6 -3 -7 -10q0 -7 6 -10l80 -48q10 -5 16 2q6 8 0 16l-33 40l33 40q5 8 0 16v0zM256 448q-72 -1 -129 -35v0q-58 -34 -92 -92v0q-34 -57 -35 -129q1 -72 35 -129q34 -58 92 -92q57 -34 129 -35q72 1 129 35q58 34 92 92q34 57 35 129q-1 72 -35 129
q-34 58 -92 92q-57 34 -129 35v0zM256 -16q-88 2 -147 61v0q-59 59 -61 147q2 88 61 147t147 61q88 -2 147 -61t61 -147q-2 -88 -61 -147t-147 -61v0z" />
    <glyph glyph-name="face-grin-squint" unicode="&#xf585;" 
d="M362 143q-42 -12 -106 -13q-64 1 -106 13q-7 2 -13 -2q-5 -5 -4 -13q8 -36 45 -58q37 -21 78 -22q41 1 78 22q37 22 45 58q1 8 -4 13q-6 4 -13 2v0zM142 182l80 48q6 3 6 10t-6 10l-80 48q-8 5 -15 -2q-6 -8 0 -16l34 -40l-34 -40q-6 -8 0 -16q6 -7 15 -2v0zM385 296
q-7 7 -15 2l-80 -48q-6 -3 -7 -10q0 -7 6 -10l80 -48q10 -5 16 2q6 8 0 16l-33 40l33 40q5 8 0 16v0zM256 448q-72 -1 -129 -35v0q-58 -34 -92 -92v0q-34 -57 -35 -129q1 -72 35 -129q34 -58 92 -92q57 -34 129 -35q72 1 129 35q58 34 92 92q34 57 35 129q-1 72 -35 129
q-34 58 -92 92q-57 34 -129 35v0zM256 -16q-88 2 -147 61v0q-59 59 -61 147q2 88 61 147t147 61q88 -2 147 -61t61 -147q-2 -88 -61 -147t-147 -61v0z" />
    <glyph glyph-name="face-grin-squint-tears" unicode="&#x1f923;" 
d="M365 232q-20 -38 -65 -84q-46 -45 -84 -65q-7 -4 -8 -11q0 -8 6 -12q31 -20 73 -9q41 11 71 39q28 30 39 71q11 42 -9 73q-5 6 -12 6q-7 -1 -11 -8v0zM248 237l90 23q9 2 9 12q-1 10 -11 10l-52 5l-5 52q-1 10 -11 11q-9 1 -12 -8l-24 -91q-1 -6 3 -11q10 -5 13 -3v0v0z
M208 212q-5 4 -11 3l-92 -23q-9 -3 -9 -12q1 -10 11 -10l53 -6l5 -52q1 -10 11 -11h1q9 0 11 9l23 90q1 7 -3 12v0zM395 320q22 3 54 10v0q32 8 47 21q16 17 16 40q0 22 -17 40q-18 17 -40 17q-23 0 -40 -16q-13 -15 -21 -47q-7 -32 -10 -54q0 -11 11 -11v0zM75 89
q-26 46 -27 103q2 88 61 147t147 61q57 -1 102 -28q7 31 13 48q-52 27 -115 28q-72 -1 -129 -35q-58 -34 -92 -92q-34 -57 -35 -129q1 -63 28 -115q17 5 47 12v0zM484 308q-17 -7 -47 -13q26 -46 27 -103q-2 -88 -61 -147t-147 -61q-57 1 -102 27q-7 -30 -13 -47
q52 -27 115 -28q72 1 129 35q58 34 92 92q34 57 35 129q-1 63 -28 116v0zM117 64q-22 -3 -54 -10v0q-32 -8 -47 -21q-16 -17 -16 -40q0 -22 17 -40q18 -17 40 -17q23 0 40 16q13 15 21 47q7 32 10 54q0 11 -11 11v0z" />
    <glyph glyph-name="face-grin-squint-tears" unicode="&#xf586;" 
d="M365 232q-20 -38 -65 -84q-46 -45 -84 -65q-7 -4 -8 -11q0 -8 6 -12q31 -20 73 -9q41 11 71 39q28 30 39 71q11 42 -9 73q-5 6 -12 6q-7 -1 -11 -8v0zM248 237l90 23q9 2 9 12q-1 10 -11 10l-52 5l-5 52q-1 10 -11 11q-9 1 -12 -8l-24 -91q-1 -6 3 -11q10 -5 13 -3v0v0z
M208 212q-5 4 -11 3l-92 -23q-9 -3 -9 -12q1 -10 11 -10l53 -6l5 -52q1 -10 11 -11h1q9 0 11 9l23 90q1 7 -3 12v0zM395 320q22 3 54 10v0q32 8 47 21q16 17 16 40q0 22 -17 40q-18 17 -40 17q-23 0 -40 -16q-13 -15 -21 -47q-7 -32 -10 -54q0 -11 11 -11v0zM75 89
q-26 46 -27 103q2 88 61 147t147 61q57 -1 102 -28q7 31 13 48q-52 27 -115 28q-72 -1 -129 -35q-58 -34 -92 -92q-34 -57 -35 -129q1 -63 28 -115q17 5 47 12v0zM484 308q-17 -7 -47 -13q26 -46 27 -103q-2 -88 -61 -147t-147 -61q-57 1 -102 27q-7 -30 -13 -47
q52 -27 115 -28q72 1 129 35q58 34 92 92q34 57 35 129q-1 63 -28 116v0zM117 64q-22 -3 -54 -10v0q-32 -8 -47 -21q-16 -17 -16 -40q0 -22 17 -40q18 -17 40 -17q23 0 40 16q13 15 21 47q7 32 10 54q0 11 -11 11v0z" />
    <glyph glyph-name="face-grin-stars" unicode="&#x1f929;" 
d="M134 201q0 -11 11 -8l31 16l31 -16q11 -3 11 8l-6 35l26 24q6 10 -5 14l-35 5l-15 31q-3 5 -7 5q-5 0 -7 -5l-15 -31l-35 -5q-11 -4 -5 -14l26 -24l-6 -35v0zM362 143q-42 -12 -106 -13q-64 1 -106 13q-7 2 -13 -2q-5 -5 -4 -13q8 -36 45 -58q37 -21 78 -22q41 1 78 22
q37 22 45 58q1 8 -4 13q-6 4 -13 2v0zM393 274l-34 5l-15 31q-7 9 -14 0l-15 -31l-35 -5q-10 -4 -4 -14l26 -24l-6 -35q0 -11 11 -8l31 16l29 -16q11 -3 11 8l-6 35l26 24q6 10 -5 14v0zM256 448q-72 -1 -129 -35v0q-58 -34 -92 -92v0q-34 -57 -35 -129q1 -72 35 -129
q34 -58 92 -92q57 -34 129 -35q72 1 129 35q58 34 92 92q34 57 35 129q-1 72 -35 129q-34 58 -92 92q-57 34 -129 35v0zM256 -16q-88 2 -147 61v0q-59 59 -61 147q2 88 61 147t147 61q88 -2 147 -61t61 -147q-2 -88 -61 -147t-147 -61v0z" />
    <glyph glyph-name="face-grin-stars" unicode="&#xf587;" 
d="M134 201q0 -11 11 -8l31 16l31 -16q11 -3 11 8l-6 35l26 24q6 10 -5 14l-35 5l-15 31q-3 5 -7 5q-5 0 -7 -5l-15 -31l-35 -5q-11 -4 -5 -14l26 -24l-6 -35v0zM362 143q-42 -12 -106 -13q-64 1 -106 13q-7 2 -13 -2q-5 -5 -4 -13q8 -36 45 -58q37 -21 78 -22q41 1 78 22
q37 22 45 58q1 8 -4 13q-6 4 -13 2v0zM393 274l-34 5l-15 31q-7 9 -14 0l-15 -31l-35 -5q-10 -4 -4 -14l26 -24l-6 -35q0 -11 11 -8l31 16l29 -16q11 -3 11 8l-6 35l26 24q6 10 -5 14v0zM256 448q-72 -1 -129 -35v0q-58 -34 -92 -92v0q-34 -57 -35 -129q1 -72 35 -129
q34 -58 92 -92q57 -34 129 -35q72 1 129 35q58 34 92 92q34 57 35 129q-1 72 -35 129q-34 58 -92 92q-57 34 -129 35v0zM256 -16q-88 2 -147 61v0q-59 59 -61 147q2 88 61 147t147 61q88 -2 147 -61t61 -147q-2 -88 -61 -147t-147 -61v0z" />
    <glyph glyph-name="face-grin-tears" unicode="&#x1f602;" horiz-adv-x="640" 
d="M456 225q-3 32 -20 51v0q-17 19 -36 20q-19 -1 -36 -20t-20 -51q0 -7 6 -9q6 -1 9 4l10 17q12 21 31 22q19 -1 32 -22l9 -17q4 -5 9 -4q6 2 6 9v0zM240 259q19 -1 31 -22l10 -17q4 -5 9 -4q6 2 6 9q-3 32 -20 51q-18 19 -37 20q-19 -1 -35 -20q-17 -19 -21 -51q1 -6 7 -9
q6 -1 9 4l10 17q12 21 31 22v0zM319 48q41 1 78 22v0q37 22 45 58q1 8 -4 13q-5 4 -13 2q-42 -12 -106 -13q-64 1 -105 13q-7 2 -13 -2q-6 -5 -4 -13q8 -36 45 -58q37 -21 77 -22v0zM624 161q-15 13 -47 21v0q-32 7 -54 10q-11 0 -11 -11q3 -22 10 -54q8 -32 21 -47
q17 -16 40 -16q22 0 40 17q17 18 17 40q0 23 -16 40v0zM117 192q-22 -3 -54 -10v0q-32 -8 -47 -21q-16 -17 -16 -40q0 -22 17 -40q18 -17 40 -17q23 0 40 16q13 15 20 47q8 32 10 54q1 11 -10 11v0zM115 224q13 76 69 125v0q56 49 136 51q80 -2 136 -51t69 -125h2
q28 -4 48 -9q-11 100 -82 165q-70 66 -173 68q-103 -2 -173 -68q-71 -65 -82 -165q20 5 48 9h2v0zM501 90q-28 -48 -75 -77v0q-47 -28 -106 -29q-59 1 -106 29q-47 29 -75 77q-13 -29 -19 -32q-5 -6 -12 -10q36 -51 90 -81q55 -30 122 -31q67 1 122 31q54 30 90 81
q-6 4 -12 10q-6 3 -19 32v0z" />
    <glyph glyph-name="face-grin-tears" unicode="&#xf588;" horiz-adv-x="640" 
d="M456 225q-3 32 -20 51v0q-17 19 -36 20q-19 -1 -36 -20t-20 -51q0 -7 6 -9q6 -1 9 4l10 17q12 21 31 22q19 -1 32 -22l9 -17q4 -5 9 -4q6 2 6 9v0zM240 259q19 -1 31 -22l10 -17q4 -5 9 -4q6 2 6 9q-3 32 -20 51q-18 19 -37 20q-19 -1 -35 -20q-17 -19 -21 -51q1 -6 7 -9
q6 -1 9 4l10 17q12 21 31 22v0zM319 48q41 1 78 22v0q37 22 45 58q1 8 -4 13q-5 4 -13 2q-42 -12 -106 -13q-64 1 -105 13q-7 2 -13 -2q-6 -5 -4 -13q8 -36 45 -58q37 -21 77 -22v0zM624 161q-15 13 -47 21v0q-32 7 -54 10q-11 0 -11 -11q3 -22 10 -54q8 -32 21 -47
q17 -16 40 -16q22 0 40 17q17 18 17 40q0 23 -16 40v0zM117 192q-22 -3 -54 -10v0q-32 -8 -47 -21q-16 -17 -16 -40q0 -22 17 -40q18 -17 40 -17q23 0 40 16q13 15 20 47q8 32 10 54q1 11 -10 11v0zM115 224q13 76 69 125v0q56 49 136 51q80 -2 136 -51t69 -125h2
q28 -4 48 -9q-11 100 -82 165q-70 66 -173 68q-103 -2 -173 -68q-71 -65 -82 -165q20 5 48 9h2v0zM501 90q-28 -48 -75 -77v0q-47 -28 -106 -29q-59 1 -106 29q-47 29 -75 77q-13 -29 -19 -32q-5 -6 -12 -10q36 -51 90 -81q55 -30 122 -31q67 1 122 31q54 30 90 81
q-6 4 -12 10q-6 3 -19 32v0z" />
    <glyph glyph-name="face-grin-tongue" unicode="&#x1f61b;" 
d="M175 272q-14 0 -23 -9v0q-9 -9 -9 -23t9 -23t23 -9t23 9t9 23t-9 23t-23 9v0zM256 448q-72 -1 -129 -35v0q-58 -34 -92 -92v0q-34 -57 -35 -129q1 -71 35 -129q33 -57 90 -91q58 -34 129 -36v0h1v0v0q0 1 1 0v0q72 1 129 35q58 34 92 92q34 57 35 129q-1 72 -35 129
q-34 58 -92 92q-57 34 -129 35v0zM320 32q-1 -27 -19 -46v0q-18 -18 -46 -18q-27 1 -45 19q-17 19 -18 46v51l18 9q11 5 22 0q10 -5 13 -17l2 -12q3 -7 9 -7q7 0 9 7l3 12q3 12 13 17t21 0l18 -9v-52v0zM352 8v76q22 18 27 44q1 8 -4 13q-6 4 -13 2q-42 -12 -106 -13
q-64 1 -106 13q-7 2 -13 -2q-5 -5 -4 -13q5 -26 27 -44v-76q-51 26 -81 75q-30 48 -31 109q2 88 61 147t147 61q88 -2 147 -61t61 -147q-1 -61 -31 -109q-30 -49 -81 -75v0zM336 272q-14 0 -23 -9v0q-9 -9 -9 -23t9 -23t23 -9t23 9t9 23t-9 23t-23 9v0z" />
    <glyph glyph-name="face-grin-tongue" unicode="&#xf589;" 
d="M175 272q-14 0 -23 -9v0q-9 -9 -9 -23t9 -23t23 -9t23 9t9 23t-9 23t-23 9v0zM256 448q-72 -1 -129 -35v0q-58 -34 -92 -92v0q-34 -57 -35 -129q1 -71 35 -129q33 -57 90 -91q58 -34 129 -36v0h1v0v0q0 1 1 0v0q72 1 129 35q58 34 92 92q34 57 35 129q-1 72 -35 129
q-34 58 -92 92q-57 34 -129 35v0zM320 32q-1 -27 -19 -46v0q-18 -18 -46 -18q-27 1 -45 19q-17 19 -18 46v51l18 9q11 5 22 0q10 -5 13 -17l2 -12q3 -7 9 -7q7 0 9 7l3 12q3 12 13 17t21 0l18 -9v-52v0zM352 8v76q22 18 27 44q1 8 -4 13q-6 4 -13 2q-42 -12 -106 -13
q-64 1 -106 13q-7 2 -13 -2q-5 -5 -4 -13q5 -26 27 -44v-76q-51 26 -81 75q-30 48 -31 109q2 88 61 147t147 61q88 -2 147 -61t61 -147q-1 -61 -31 -109q-30 -49 -81 -75v0zM336 272q-14 0 -23 -9v0q-9 -9 -9 -23t9 -23t23 -9t23 9t9 23t-9 23t-23 9v0z" />
    <glyph glyph-name="face-grin-tongue-squint" unicode="&#x1f61d;" 
d="M385 296q-7 7 -15 2l-80 -48q-6 -3 -7 -10q0 -7 6 -10l80 -48q10 -5 16 2q6 8 0 16l-33 40l33 40q5 8 0 16v0zM256 448q-72 -1 -129 -35v0q-58 -34 -92 -92v0q-34 -57 -35 -129q1 -71 35 -129q33 -57 90 -91q58 -34 129 -36v0h1v0v0q0 1 1 0v0q72 1 129 35q58 34 92 92
q34 57 35 129q-1 72 -35 129q-34 58 -92 92q-57 34 -129 35v0zM320 32q-1 -27 -19 -46v0q-18 -18 -46 -18q-27 1 -45 19q-17 19 -18 46v51l18 9q11 5 22 0q10 -5 13 -17l2 -12q3 -7 9 -7q7 0 9 7l3 12q3 12 13 17t21 0l18 -9v-52v0zM352 8v76q22 18 27 44q1 8 -4 13
q-6 4 -13 2q-42 -12 -106 -13q-64 1 -106 13q-7 2 -13 -2q-5 -5 -4 -13q5 -26 27 -44v-76q-51 26 -81 75q-30 48 -31 109q2 88 61 147t147 61q88 -2 147 -61t61 -147q-1 -61 -31 -109q-30 -49 -81 -75v0zM142 298q-8 5 -15 -2q-6 -8 0 -16l34 -40l-34 -40q-6 -8 0 -16
q6 -7 15 -2l80 48q6 3 6 10t-6 10l-80 48v0z" />
    <glyph glyph-name="face-grin-tongue-squint" unicode="&#xf58a;" 
d="M385 296q-7 7 -15 2l-80 -48q-6 -3 -7 -10q0 -7 6 -10l80 -48q10 -5 16 2q6 8 0 16l-33 40l33 40q5 8 0 16v0zM256 448q-72 -1 -129 -35v0q-58 -34 -92 -92v0q-34 -57 -35 -129q1 -71 35 -129q33 -57 90 -91q58 -34 129 -36v0h1v0v0q0 1 1 0v0q72 1 129 35q58 34 92 92
q34 57 35 129q-1 72 -35 129q-34 58 -92 92q-57 34 -129 35v0zM320 32q-1 -27 -19 -46v0q-18 -18 -46 -18q-27 1 -45 19q-17 19 -18 46v51l18 9q11 5 22 0q10 -5 13 -17l2 -12q3 -7 9 -7q7 0 9 7l3 12q3 12 13 17t21 0l18 -9v-52v0zM352 8v76q22 18 27 44q1 8 -4 13
q-6 4 -13 2q-42 -12 -106 -13q-64 1 -106 13q-7 2 -13 -2q-5 -5 -4 -13q5 -26 27 -44v-76q-51 26 -81 75q-30 48 -31 109q2 88 61 147t147 61q88 -2 147 -61t61 -147q-1 -61 -31 -109q-30 -49 -81 -75v0zM142 298q-8 5 -15 -2q-6 -8 0 -16l34 -40l-34 -40q-6 -8 0 -16
q6 -7 15 -2l80 48q6 3 6 10t-6 10l-80 48v0z" />
    <glyph glyph-name="face-grin-tongue-wink" unicode="&#x1f61c;" 
d="M159 268q-20 0 -38 -12v0q-18 -11 -22 -30q-1 -8 6 -13q8 -3 14 2l10 9q12 9 30 9t31 -9l9 -9q6 -5 15 -2q7 5 6 13q-4 19 -22 30q-18 12 -39 12v0zM256 448q-72 -1 -129 -35v0q-58 -34 -92 -92v0q-34 -57 -35 -129q1 -71 35 -129q33 -57 90 -91q58 -34 129 -36v0h1v0v0
q0 1 1 0v0q72 1 129 35q58 34 92 92q34 57 35 129q-1 72 -35 129q-34 58 -92 92q-57 34 -129 35v0zM320 32q-1 -27 -19 -46v0q-18 -18 -46 -18q-27 1 -45 19q-17 19 -18 46v51l18 9q11 5 22 0q10 -5 13 -17l2 -12q3 -7 9 -7q7 0 9 7l3 12q3 12 13 17t21 0l18 -9v-52v0z
M352 8v76q22 18 27 44q1 8 -4 13q-6 4 -13 2q-42 -12 -106 -13q-64 1 -106 13q-7 2 -13 -2q-5 -5 -4 -13q5 -26 27 -44v-76q-51 26 -81 75q-30 48 -31 109q2 88 61 147t147 61q88 -2 147 -61t61 -147q-1 -61 -31 -109q-30 -49 -81 -75v0zM336 320q-34 -1 -57 -23v0
q-22 -23 -23 -57q1 -34 23 -57q23 -22 57 -23q34 1 56 23q22 23 23 57q-1 34 -23 57q-22 22 -56 23v0zM336 192q-20 1 -34 14v0q-14 14 -14 34t14 34q14 13 34 14q20 -1 34 -14q13 -14 14 -34q-1 -20 -14 -34q-14 -13 -34 -14v0zM336 264q-22 -2 -24 -24q2 -22 24 -24
q22 2 24 24q-2 22 -24 24v0z" />
    <glyph glyph-name="face-grin-tongue-wink" unicode="&#xf58b;" 
d="M159 268q-20 0 -38 -12v0q-18 -11 -22 -30q-1 -8 6 -13q8 -3 14 2l10 9q12 9 30 9t31 -9l9 -9q6 -5 15 -2q7 5 6 13q-4 19 -22 30q-18 12 -39 12v0zM256 448q-72 -1 -129 -35v0q-58 -34 -92 -92v0q-34 -57 -35 -129q1 -71 35 -129q33 -57 90 -91q58 -34 129 -36v0h1v0v0
q0 1 1 0v0q72 1 129 35q58 34 92 92q34 57 35 129q-1 72 -35 129q-34 58 -92 92q-57 34 -129 35v0zM320 32q-1 -27 -19 -46v0q-18 -18 -46 -18q-27 1 -45 19q-17 19 -18 46v51l18 9q11 5 22 0q10 -5 13 -17l2 -12q3 -7 9 -7q7 0 9 7l3 12q3 12 13 17t21 0l18 -9v-52v0z
M352 8v76q22 18 27 44q1 8 -4 13q-6 4 -13 2q-42 -12 -106 -13q-64 1 -106 13q-7 2 -13 -2q-5 -5 -4 -13q5 -26 27 -44v-76q-51 26 -81 75q-30 48 -31 109q2 88 61 147t147 61q88 -2 147 -61t61 -147q-1 -61 -31 -109q-30 -49 -81 -75v0zM336 320q-34 -1 -57 -23v0
q-22 -23 -23 -57q1 -34 23 -57q23 -22 57 -23q34 1 56 23q22 23 23 57q-1 34 -23 57q-22 22 -56 23v0zM336 192q-20 1 -34 14v0q-14 14 -14 34t14 34q14 13 34 14q20 -1 34 -14q13 -14 14 -34q-1 -20 -14 -34q-14 -13 -34 -14v0zM336 264q-22 -2 -24 -24q2 -22 24 -24
q22 2 24 24q-2 22 -24 24v0z" />
    <glyph glyph-name="face-grin-wink" unicode="&#xf58c;" 
d="M176 208q14 0 23 9v0q9 9 9 23t-9 23t-23 9t-23 -9t-9 -23t9 -23t23 -9v0zM362 143q-42 -13 -106 -13t-106 13q-7 2 -13 -2q-5 -5 -4 -13q8 -36 45 -58q37 -21 78 -22q41 1 78 22q37 22 45 58q1 8 -4 13q-6 4 -13 2v0zM336 268q-20 0 -38 -12v0q-18 -11 -22 -30
q-1 -9 6 -13q7 -3 14 2l9 8q13 10 31 10t30 -10l10 -8q7 -5 14 -2q7 4 6 13q-5 20 -22 31q-18 11 -38 11v0zM256 448q-72 -1 -129 -35v0q-58 -34 -92 -92v0q-34 -57 -35 -129q1 -72 35 -129q34 -58 92 -92q57 -34 129 -35q72 1 129 35q58 34 92 92q34 57 35 129
q-1 72 -35 129q-34 58 -92 92q-57 34 -129 35v0zM256 -16q-88 2 -147 61v0q-59 59 -61 147q2 88 61 147t147 61q88 -2 147 -61t61 -147q-2 -88 -61 -147t-147 -61v0z" />
    <glyph glyph-name="face-kiss" unicode="&#x1f617;" 
d="M277 104q34 15 35 36q-1 15 -20 28t-52 16q-6 0 -8 -6q-1 -6 4 -9l17 -8q20 -9 21 -21q-1 -13 -21 -22l-17 -7q-4 -2 -4 -7t4 -8l17 -7q20 -9 21 -21q-1 -13 -21 -22l-17 -7q-6 -3 -5 -9q2 -6 8 -6h1q32 2 51 15q20 13 20 29q0 21 -34 36v0zM176 272q-14 0 -23 -9v0
q-9 -9 -9 -23t9 -23t23 -9t23 9t9 23t-9 23t-23 9v0zM336 272q-14 0 -23 -9v0q-9 -9 -9 -23t9 -23t23 -9t23 9t9 23t-9 23t-23 9v0zM256 448q-72 -1 -129 -35v0q-58 -34 -92 -92v0q-34 -57 -35 -129q1 -72 35 -129q34 -58 92 -92q57 -34 129 -35q72 1 129 35q58 34 92 92
q34 57 35 129q-1 72 -35 129q-34 58 -92 92q-57 34 -129 35v0zM256 -16q-88 2 -147 61v0q-59 59 -61 147q2 88 61 147t147 61q88 -2 147 -61t61 -147q-2 -88 -61 -147t-147 -61v0z" />
    <glyph glyph-name="face-kiss" unicode="&#xf596;" 
d="M277 104q34 15 35 36q-1 15 -20 28t-52 16q-6 0 -8 -6q-1 -6 4 -9l17 -8q20 -9 21 -21q-1 -13 -21 -22l-17 -7q-4 -2 -4 -7t4 -8l17 -7q20 -9 21 -21q-1 -13 -21 -22l-17 -7q-6 -3 -5 -9q2 -6 8 -6h1q32 2 51 15q20 13 20 29q0 21 -34 36v0zM176 272q-14 0 -23 -9v0
q-9 -9 -9 -23t9 -23t23 -9t23 9t9 23t-9 23t-23 9v0zM336 272q-14 0 -23 -9v0q-9 -9 -9 -23t9 -23t23 -9t23 9t9 23t-9 23t-23 9v0zM256 448q-72 -1 -129 -35v0q-58 -34 -92 -92v0q-34 -57 -35 -129q1 -72 35 -129q34 -58 92 -92q57 -34 129 -35q72 1 129 35q58 34 92 92
q34 57 35 129q-1 72 -35 129q-34 58 -92 92q-57 34 -129 35v0zM256 -16q-88 2 -147 61v0q-59 59 -61 147q2 88 61 147t147 61q88 -2 147 -61t61 -147q-2 -88 -61 -147t-147 -61v0z" />
    <glyph glyph-name="face-kiss-beam" unicode="&#x1f619;" 
d="M176 296q-19 -1 -36 -20v0q-17 -19 -20 -51q0 -6 6 -9q6 -1 9 4l9 17q13 21 32 22q19 -1 31 -22l10 -17q4 -5 9 -4q6 2 6 9q-3 32 -20 51t-36 20v0zM277 104q34 15 35 36q-1 15 -20 28t-52 16q-6 0 -8 -6q-1 -6 4 -9l17 -8q20 -9 21 -21q-1 -13 -21 -22l-17 -7
q-4 -2 -4 -7t4 -8l17 -7q20 -9 21 -21q-1 -13 -21 -22l-17 -7q-6 -3 -5 -9q2 -6 8 -6h1q32 2 51 15q20 13 20 29q0 21 -34 36v0zM336 296q-19 -1 -36 -20v0q-17 -19 -20 -51q0 -7 6 -9q5 -1 9 4l9 17q13 21 32 22q19 -1 31 -22l10 -17q4 -5 9 -4q6 2 6 9q-4 32 -20 51
q-17 19 -36 20v0zM256 448q-72 -1 -129 -35v0q-58 -34 -92 -92v0q-34 -57 -35 -129q1 -72 35 -129q34 -58 92 -92q57 -34 129 -35q72 1 129 35q58 34 92 92q34 57 35 129q-1 72 -35 129q-34 58 -92 92q-57 34 -129 35v0zM256 -16q-88 2 -147 61v0q-59 59 -61 147
q2 88 61 147t147 61q88 -2 147 -61t61 -147q-2 -88 -61 -147t-147 -61v0z" />
    <glyph glyph-name="face-kiss-beam" unicode="&#xf597;" 
d="M176 296q-19 -1 -36 -20v0q-17 -19 -20 -51q0 -6 6 -9q6 -1 9 4l9 17q13 21 32 22q19 -1 31 -22l10 -17q4 -5 9 -4q6 2 6 9q-3 32 -20 51t-36 20v0zM277 104q34 15 35 36q-1 15 -20 28t-52 16q-6 0 -8 -6q-1 -6 4 -9l17 -8q20 -9 21 -21q-1 -13 -21 -22l-17 -7
q-4 -2 -4 -7t4 -8l17 -7q20 -9 21 -21q-1 -13 -21 -22l-17 -7q-6 -3 -5 -9q2 -6 8 -6h1q32 2 51 15q20 13 20 29q0 21 -34 36v0zM336 296q-19 -1 -36 -20v0q-17 -19 -20 -51q0 -7 6 -9q5 -1 9 4l9 17q13 21 32 22q19 -1 31 -22l10 -17q4 -5 9 -4q6 2 6 9q-4 32 -20 51
q-17 19 -36 20v0zM256 448q-72 -1 -129 -35v0q-58 -34 -92 -92v0q-34 -57 -35 -129q1 -72 35 -129q34 -58 92 -92q57 -34 129 -35q72 1 129 35q58 34 92 92q34 57 35 129q-1 72 -35 129q-34 58 -92 92q-57 34 -129 35v0zM256 -16q-88 2 -147 61v0q-59 59 -61 147
q2 88 61 147t147 61q88 -2 147 -61t61 -147q-2 -88 -61 -147t-147 -61v0z" />
    <glyph glyph-name="face-kiss-wink-heart" unicode="&#x1f618;" 
d="M366 223l10 -8q7 -5 14 -1q6 3 6 12q-4 19 -22 30q-18 12 -38 12t-38 -12q-18 -11 -22 -30q-1 -9 6 -13q7 -3 14 2l9 8q13 10 31 10t30 -10v0zM342 3q-40 -19 -86 -19q-88 2 -147 61t-61 147q2 88 61 147t147 61q88 -2 147 -61t61 -147q0 -36 -12 -69q9 -8 15 -18
q15 0 27 -6q18 44 18 93q-1 72 -35 129q-34 58 -92 92q-57 34 -129 35q-72 -1 -129 -35q-58 -34 -92 -92q-34 -57 -35 -129q1 -72 35 -129q34 -58 92 -92q57 -34 129 -35q54 0 101 21v0q-3 4 -4 9l-11 37v0zM254 46l-18 -7q-6 -3 -5 -9q2 -6 8 -6h1q32 2 51 15q20 13 20 29
q-1 21 -35 36q35 15 36 36q-1 15 -20 28t-52 16q-6 0 -8 -6q-1 -6 4 -9l17 -8q20 -9 21 -21q-1 -13 -21 -22l-17 -7q-4 -2 -4 -7t4 -8l17 -7q20 -9 21 -21q0 -13 -20 -22v0zM143 240q0 -14 9 -23v0q9 -9 23 -9t23 9t9 23t-9 23t-23 9q-13 0 -22 -9t-10 -23v0zM455 71l-8 -2
l-3 9q-5 16 -18 25q-14 10 -31 8q-20 -4 -30 -19t-5 -34l23 -83q4 -8 13 -7l84 22q19 5 27 21q9 16 2 35q-7 15 -22 22t-32 3v0z" />
    <glyph glyph-name="face-kiss-wink-heart" unicode="&#xf598;" 
d="M366 223l10 -8q7 -5 14 -1q6 3 6 12q-4 19 -22 30q-18 12 -38 12t-38 -12q-18 -11 -22 -30q-1 -9 6 -13q7 -3 14 2l9 8q13 10 31 10t30 -10v0zM342 3q-40 -19 -86 -19q-88 2 -147 61t-61 147q2 88 61 147t147 61q88 -2 147 -61t61 -147q0 -36 -12 -69q9 -8 15 -18
q15 0 27 -6q18 44 18 93q-1 72 -35 129q-34 58 -92 92q-57 34 -129 35q-72 -1 -129 -35q-58 -34 -92 -92q-34 -57 -35 -129q1 -72 35 -129q34 -58 92 -92q57 -34 129 -35q54 0 101 21v0q-3 4 -4 9l-11 37v0zM254 46l-18 -7q-6 -3 -5 -9q2 -6 8 -6h1q32 2 51 15q20 13 20 29
q-1 21 -35 36q35 15 36 36q-1 15 -20 28t-52 16q-6 0 -8 -6q-1 -6 4 -9l17 -8q20 -9 21 -21q-1 -13 -21 -22l-17 -7q-4 -2 -4 -7t4 -8l17 -7q20 -9 21 -21q0 -13 -20 -22v0zM143 240q0 -14 9 -23v0q9 -9 23 -9t23 9t9 23t-9 23t-23 9q-13 0 -22 -9t-10 -23v0zM455 71l-8 -2
l-3 9q-5 16 -18 25q-14 10 -31 8q-20 -4 -30 -19t-5 -34l23 -83q4 -8 13 -7l84 22q19 5 27 21q9 16 2 35q-7 15 -22 22t-32 3v0z" />
    <glyph glyph-name="face-laugh" unicode="&#xf599;" 
d="M175 224q14 0 23 9v0q9 9 9 23t-9 23t-23 9q-13 0 -22 -9t-10 -23q1 -14 10 -23t22 -9v0zM336 224q14 0 23 9v0q9 9 9 23t-9 23t-23 9t-23 -9t-9 -23t9 -23t23 -9v0zM370 160h-228q-14 -2 -14 -15q7 -45 40 -75q33 -29 81 -30h14q47 1 81 30q33 30 40 75q0 13 -14 15v0z
M256 448q-72 -1 -129 -35v0q-58 -34 -92 -92v0q-34 -57 -35 -129q1 -72 35 -129q34 -58 92 -92q57 -34 129 -35q72 1 129 35q58 34 92 92q34 57 35 129q-1 72 -35 129q-34 58 -92 92q-57 34 -129 35v0zM256 -16q-88 2 -147 61v0q-59 59 -61 147q2 88 61 147t147 61
q88 -2 147 -61t61 -147q-2 -88 -61 -147t-147 -61v0z" />
    <glyph glyph-name="face-laugh-beam" unicode="&#x1f601;" 
d="M145 237q12 21 30 22q19 -1 32 -22l9 -17q4 -5 9 -4q6 2 6 9q-3 32 -20 51q-16 19 -36 20q-19 -1 -36 -20t-20 -51q0 -7 6 -9q5 -1 9 4l11 17v0zM370 160h-228q-14 -2 -14 -15q7 -45 40 -75q33 -29 81 -30h14q47 1 81 30q33 30 40 75q0 13 -14 15v0zM336 296
q-19 -1 -36 -20v0q-17 -19 -20 -51q0 -7 6 -9q5 -1 9 4l9 17q13 21 32 22q19 -1 31 -22l10 -17q4 -5 9 -4q6 2 6 9q-4 32 -20 51q-17 19 -36 20v0zM256 448q-72 -1 -129 -35v0q-58 -34 -92 -92v0q-34 -57 -35 -129q1 -72 35 -129q34 -58 92 -92q57 -34 129 -35q72 1 129 35
q58 34 92 92q34 57 35 129q-1 72 -35 129q-34 58 -92 92q-57 34 -129 35v0zM256 -16q-88 2 -147 61v0q-59 59 -61 147q2 88 61 147t147 61q88 -2 147 -61t61 -147q-2 -88 -61 -147t-147 -61v0z" />
    <glyph glyph-name="face-laugh-beam" unicode="&#xf59a;" 
d="M145 237q12 21 30 22q19 -1 32 -22l9 -17q4 -5 9 -4q6 2 6 9q-3 32 -20 51q-16 19 -36 20q-19 -1 -36 -20t-20 -51q0 -7 6 -9q5 -1 9 4l11 17v0zM370 160h-228q-14 -2 -14 -15q7 -45 40 -75q33 -29 81 -30h14q47 1 81 30q33 30 40 75q0 13 -14 15v0zM336 296
q-19 -1 -36 -20v0q-17 -19 -20 -51q0 -7 6 -9q5 -1 9 4l9 17q13 21 32 22q19 -1 31 -22l10 -17q4 -5 9 -4q6 2 6 9q-4 32 -20 51q-17 19 -36 20v0zM256 448q-72 -1 -129 -35v0q-58 -34 -92 -92v0q-34 -57 -35 -129q1 -72 35 -129q34 -58 92 -92q57 -34 129 -35q72 1 129 35
q58 34 92 92q34 57 35 129q-1 72 -35 129q-34 58 -92 92q-57 34 -129 35v0zM256 -16q-88 2 -147 61v0q-59 59 -61 147q2 88 61 147t147 61q88 -2 147 -61t61 -147q-2 -88 -61 -147t-147 -61v0z" />
    <glyph glyph-name="face-laugh-squint" unicode="&#xf59b;" 
d="M142 194l80 48q6 4 6 10t-6 10l-80 48q-9 5 -15 -2t0 -16l34 -40l-34 -40q-6 -9 0 -16t15 -2v0zM370 160h-228q-14 -2 -14 -15q7 -45 40 -75q33 -29 81 -30h14q47 1 81 30q33 30 40 75q0 13 -14 15v0zM370 310l-80 -48q-6 -4 -6 -10t6 -10l80 -48q9 -5 15 2t0 16l-33 40
l33 40q6 9 0 16t-15 2v0zM256 448q-72 -1 -129 -35v0q-58 -34 -92 -92v0q-34 -57 -35 -129q1 -72 35 -129q34 -58 92 -92q57 -34 129 -35q72 1 129 35q58 34 92 92q34 57 35 129q-1 72 -35 129q-34 58 -92 92q-57 34 -129 35v0zM256 -16q-88 2 -147 61v0q-59 59 -61 147
q2 88 61 147t147 61q88 -2 147 -61t61 -147q-2 -88 -61 -147t-147 -61v0z" />
    <glyph glyph-name="face-laugh-wink" unicode="&#xf59c;" 
d="M370 160h-228q-14 -2 -14 -15q7 -45 40 -75q33 -29 81 -30h14q47 1 81 30q33 30 40 75q0 13 -14 15v0zM175 224q14 0 23 9v0q9 9 9 23t-9 23t-23 9q-13 0 -22 -9t-10 -23q1 -14 10 -23t22 -9v0zM336 284q-20 0 -38 -12v0q-18 -11 -22 -30q-1 -9 6 -12q7 -4 14 1l9 9
q12 9 31 9q18 0 30 -9l10 -9q7 -5 14 -1q6 3 6 12q-4 19 -22 30q-18 12 -38 12v0zM256 448q-72 -1 -129 -35v0q-58 -34 -92 -92v0q-34 -57 -35 -129q1 -72 35 -129q34 -58 92 -92q57 -34 129 -35q72 1 129 35q58 34 92 92q34 57 35 129q-1 72 -35 129q-34 58 -92 92
q-57 34 -129 35v0zM256 -16q-88 2 -147 61v0q-59 59 -61 147q2 88 61 147t147 61q88 -2 147 -61t61 -147q-2 -88 -61 -147t-147 -61v0z" />
    <glyph glyph-name="face-meh-blank" unicode="&#x1f636;" 
d="M336 272q-14 0 -23 -9v0q-9 -9 -9 -23t9 -23t23 -9t23 9t9 23t-9 23t-23 9v0zM175 272q-14 0 -23 -9v0q-9 -9 -9 -23t9 -23t23 -9t23 9t9 23t-9 23t-23 9v0zM256 448q-72 -1 -129 -35v0q-58 -34 -92 -92v0q-34 -57 -35 -129q1 -72 35 -129q34 -58 92 -92q57 -34 129 -35
q72 1 129 35q58 34 92 92q34 57 35 129q-1 72 -35 129q-34 58 -92 92q-57 34 -129 35v0zM256 -16q-88 2 -147 61v0q-59 59 -61 147q2 88 61 147t147 61q88 -2 147 -61t61 -147q-2 -88 -61 -147t-147 -61v0z" />
    <glyph glyph-name="face-meh-blank" unicode="&#xf5a4;" 
d="M336 272q-14 0 -23 -9v0q-9 -9 -9 -23t9 -23t23 -9t23 9t9 23t-9 23t-23 9v0zM175 272q-14 0 -23 -9v0q-9 -9 -9 -23t9 -23t23 -9t23 9t9 23t-9 23t-23 9v0zM256 448q-72 -1 -129 -35v0q-58 -34 -92 -92v0q-34 -57 -35 -129q1 -72 35 -129q34 -58 92 -92q57 -34 129 -35
q72 1 129 35q58 34 92 92q34 57 35 129q-1 72 -35 129q-34 58 -92 92q-57 34 -129 35v0zM256 -16q-88 2 -147 61v0q-59 59 -61 147q2 88 61 147t147 61q88 -2 147 -61t61 -147q-2 -88 -61 -147t-147 -61v0z" />
    <glyph glyph-name="face-rolling-eyes" unicode="&#x1f644;" 
d="M240 224q-1 31 -21 51v0q-20 20 -51 21q-31 -1 -51 -21t-21 -51q1 -31 21 -51t51 -21q31 1 51 21t21 51v0zM128 224q1 21 18 32q-1 -1 -1 -2q-2 -3 -2 -6q2 -22 24 -24q22 2 24 24q0 4 -2 8q18 -11 19 -32q0 -17 -12 -28q-11 -12 -28 -12t-28 12q-12 11 -12 28v0z
M344 296q-31 -1 -51 -21v0q-20 -20 -21 -51q1 -31 21 -51t51 -21q31 1 51 21t21 51q-1 31 -21 51t-51 21v0zM344 184q-17 0 -28 12v0q-12 11 -12 28q1 21 18 32q-2 -4 -2 -8q2 -22 24 -24q22 2 24 24q0 4 -2 8q16 -11 17 -32q0 -17 -11 -28q-11 -12 -28 -12v0zM320 96h-128
q-22 -2 -24 -24q2 -22 24 -24h128q22 2 24 24q-2 22 -24 24v0zM256 448q-72 -1 -129 -35v0q-58 -34 -92 -92v0q-34 -57 -35 -129q1 -72 35 -129q34 -58 92 -92q57 -34 129 -35q72 1 129 35q58 34 92 92q34 57 35 129q-1 72 -35 129q-34 58 -92 92q-57 34 -129 35v0zM256 -16
q-88 2 -147 61v0q-59 59 -61 147q2 88 61 147t147 61q88 -2 147 -61t61 -147q-2 -88 -61 -147t-147 -61v0z" />
    </font>
</defs>
</svg>
